  0
SECTION
  2
HEADER
  9
$ACADVER
  1
AC1018
  9
$ACADMAINTVER
 70
     0
  9
$DWGCODEPAGE
  3
ANSI_1252
  9
$INSBASE
 10
0.0
 20
0.0
 30
0.0
  9
$EXTMIN
 10
0
 20
0
 30
0.0
  9
$EXTMAX
 10
7000
 20
4000
 30
0.0
  9
$LIMMIN
 10
0.0
 20
0.0
  9
$LIMMAX
 10
12.0
 20
9.0
  9
$ORTHOMODE
 70
     0
  9
$REGENMODE
 70
     1
  9
$FILLMODE
 70
     1
  9
$QTEXTMODE
 70
     0
  9
$MIRRTEXT
 70
     1
  9
$LTSCALE
 40
1.0
  9
$ATTMODE
 70
     1
  9
$TEXTSIZE
 40
0.2
  9
$TRACEWID
 40
0.05
  9
$TEXTSTYLE
  7
Standard
  9
$CLAYER
  8
0
  9
$CELTYPE
  6
ByLayer
  9
$CECOLOR
 62
   256
  9
$CELTSCALE
 40
1.0
  9
$DISPSILH
 70
     0
  9
$DIMSCALE
 40
1.0
  9
$DIMASZ
 40
0.18
  9
$DIMEXO
 40
0.0625
  9
$DIMDLI
 40
0.38
  9
$DIMRND
 40
0.0
  9
$DIMDLE
 40
0.0
  9
$DIMEXE
 40
0.18
  9
$DIMTP
 40
0.0
  9
$DIMTM
 40
0.0
  9
$DIMTXT
 40
0.18
  9
$DIMCEN
 40
0.09
  9
$DIMTSZ
 40
0.0
  9
$DIMTOL
 70
     0
  9
$DIMLIM
 70
     0
  9
$DIMTIH
 70
     1
  9
$DIMTOH
 70
     1
  9
$DIMSE1
 70
     0
  9
$DIMSE2
 70
     0
  9
$DIMTAD
 70
     0
  9
$DIMZIN
 70
     0
  9
$DIMBLK
  1

  9
$DIMASO
 70
     1
  9
$DIMSHO
 70
     1
  9
$DIMPOST
  1

  9
$DIMAPOST
  1

  9
$DIMALT
 70
     0
  9
$DIMALTD
 70
     2
  9
$DIMALTF
 40
25.4
  9
$DIMLFAC
 40
1.0
  9
$DIMTOFL
 70
     0
  9
$DIMTVP
 40
0.0
  9
$DIMTIX
 70
     0
  9
$DIMSOXD
 70
     0
  9
$DIMSAH
 70
     0
  9
$DIMBLK1
  1

  9
$DIMBLK2
  1

  9
$DIMSTYLE
  2
Standard
  9
$DIMCLRD
 70
     0
  9
$DIMCLRE
 70
     0
  9
$DIMCLRT
 70
     0
  9
$DIMTFAC
 40
1.0
  9
$DIMGAP
 40
0.09
  9
$DIMJUST
 70
     0
  9
$DIMSD1
 70
     0
  9
$DIMSD2
 70
     0
  9
$DIMTOLJ
 70
     1
  9
$DIMTZIN
 70
     0
  9
$DIMALTZ
 70
     0
  9
$DIMALTTZ
 70
     0
  9
$DIMUPT
 70
     0
  9
$DIMDEC
 70
     4
  9
$DIMTDEC
 70
     4
  9
$DIMALTU
 70
     2
  9
$DIMALTTD
 70
     2
  9
$DIMTXSTY
  7
Standard
  9
$DIMAUNIT
 70
     0
  9
$DIMADEC
 70
     0
  9
$DIMALTRND
 40
0.0
  9
$DIMAZIN
 70
     0
  9
$DIMDSEP
 70
    46
  9
$DIMATFIT
 70
     3
  9
$DIMFRAC
 70
     0
  9
$DIMLDRBLK
  1

  9
$DIMLUNIT
 70
     2
  9
$DIMLWD
 70
    -2
  9
$DIMLWE
 70
    -2
  9
$DIMTMOVE
 70
     0
  9
$LUNITS
 70
     2
  9
$LUPREC
 70
     4
  9
$SKETCHINC
 40
0.1
  9
$FILLETRAD
 40
0.5
  9
$AUNITS
 70
     0
  9
$AUPREC
 70
     0
  9
$MENU
  1
.
  9
$ELEVATION
 40
0.0
  9
$PELEVATION
 40
0.0
  9
$THICKNESS
 40
0.0
  9
$LIMCHECK
 70
     0
  9
$CHAMFERA
 40
0.5
  9
$CHAMFERB
 40
0.5
  9
$CHAMFERC
 40
1.0
  9
$CHAMFERD
 40
0.0
  9
$SKPOLY
 70
     0
  9
$TDCREATE
 40
2455343.56230316
  9
$TDUCREATE
 40
2455343.728969826
  9
$TDUPDATE
 40
2455343.562303171
  9
$TDUUPDATE
 40
2455343.728969838
  9
$TDINDWG
 40
0.0000000116
  9
$TDUSRTIMER
 40
0.0000000116
  9
$USRTIMER
 70
     1
  9
$ANGBASE
 50
0.0
  9
$ANGDIR
 70
     0
  9
$PDMODE
 70
     0
  9
$PDSIZE
 40
0.0
  9
$PLINEWID
 40
0.0
  9
$SPLFRAME
 70
     0
  9
$SPLINETYPE
 70
     6
  9
$SPLINESEGS
 70
     8
  9
$HANDSEED
  5
00020001
  9
$SURFTAB1
 70
     6
  9
$SURFTAB2
 70
     6
  9
$SURFTYPE
 70
     6
  9
$SURFU
 70
     6
  9
$SURFV
 70
     6
  9
$UCSBASE
  2

  9
$UCSNAME
  2

  9
$UCSORG
 10
0.0
 20
0.0
 30
0.0
  9
$UCSXDIR
 10
1.0
 20
0.0
 30
0.0
  9
$UCSYDIR
 10
0.0
 20
1.0
 30
0.0
  9
$UCSORTHOREF
  2

  9
$UCSORTHOVIEW
 70
     0
  9
$UCSORGTOP
 10
0.0
 20
0.0
 30
0.0
  9
$UCSORGBOTTOM
 10
0.0
 20
0.0
 30
0.0
  9
$UCSORGLEFT
 10
0.0
 20
0.0
 30
0.0
  9
$UCSORGRIGHT
 10
0.0
 20
0.0
 30
0.0
  9
$UCSORGFRONT
 10
0.0
 20
0.0
 30
0.0
  9
$UCSORGBACK
 10
0.0
 20
0.0
 30
0.0
  9
$PUCSBASE
  2

  9
$PUCSNAME
  2

  9
$PUCSORG
 10
0.0
 20
0.0
 30
0.0
  9
$PUCSXDIR
 10
1.0
 20
0.0
 30
0.0
  9
$PUCSYDIR
 10
0.0
 20
1.0
 30
0.0
  9
$PUCSORTHOREF
  2

  9
$PUCSORTHOVIEW
 70
     0
  9
$PUCSORGTOP
 10
0.0
 20
0.0
 30
0.0
  9
$PUCSORGBOTTOM
 10
0.0
 20
0.0
 30
0.0
  9
$PUCSORGLEFT
 10
0.0
 20
0.0
 30
0.0
  9
$PUCSORGRIGHT
 10
0.0
 20
0.0
 30
0.0
  9
$PUCSORGFRONT
 10
0.0
 20
0.0
 30
0.0
  9
$PUCSORGBACK
 10
0.0
 20
0.0
 30
0.0
  9
$USERI1
 70
     0
  9
$USERI2
 70
     0
  9
$USERI3
 70
     0
  9
$USERI4
 70
     0
  9
$USERI5
 70
     0
  9
$USERR1
 40
0.0
  9
$USERR2
 40
0.0
  9
$USERR3
 40
0.0
  9
$USERR4
 40
0.0
  9
$USERR5
 40
0.0
  9
$WORLDVIEW
 70
     1
  9
$SHADEDGE
 70
     3
  9
$SHADEDIF
 70
    70
  9
$TILEMODE
 70
     1
  9
$MAXACTVP
 70
    64
  9
$PINSBASE
 10
0.0
 20
0.0
 30
0.0
  9
$PLIMCHECK
 70
     0
  9
$PEXTMIN
 10
1.000000000000000E+20
 20
1.000000000000000E+20
 30
1.000000000000000E+20
  9
$PEXTMAX
 10
-1.000000000000000E+20
 20
-1.000000000000000E+20
 30
-1.000000000000000E+20
  9
$PLIMMIN
 10
0.0
 20
0.0
  9
$PLIMMAX
 10
12.0
 20
9.0
  9
$UNITMODE
 70
     0
  9
$VISRETAIN
 70
     1
  9
$PLINEGEN
 70
     0
  9
$PSLTSCALE
 70
     1
  9
$TREEDEPTH
 70
  3020
  9
$CMLSTYLE
  2
Standard
  9
$CMLJUST
 70
     0
  9
$CMLSCALE
 40
1.0
  9
$PROXYGRAPHICS
 70
     1
  9
$MEASUREMENT
 70
     0
  9
$CELWEIGHT
370
    -1
  9
$ENDCAPS
280
     0
  9
$JOINSTYLE
280
     0
  9
$LWDISPLAY
290
     0
  9
$INSUNITS
 70
     1
  9
$HYPERLINKBASE
  1

  9
$STYLESHEET
  1

  9
$XEDIT
290
     1
  9
$CEPSNTYPE
380
     0
  9
$PSTYLEMODE
290
     1
  9
$FINGERPRINTGUID
  2
{E7F7769E-AACA-40AB-9EF3-61BBAFBCBA26}
  9
$VERSIONGUID
  2
{FAEB1C32-E019-11D5-929B-00C0DF256EC4}
  9
$EXTNAMES
290
     1
  9
$PSVPSCALE
 40
0.0
  9
$OLESTARTUP
290
     0
  9
$SORTENTS
280
   127
  9
$INDEXCTL
280
     0
  9
$HIDETEXT
280
     1
  9
$XCLIPFRAME
290
     0
  9
$HALOGAP
280
     0
  9
$OBSCOLOR
 70
   257
  9
$OBSLTYPE
280
     0
  9
$INTERSECTIONDISPLAY
280
     0
  9
$INTERSECTIONCOLOR
 70
   257
  9
$DIMASSOC
280
     2
  9
$PROJECTNAME
  1

  0
ENDSEC
  0
SECTION
  2
CLASSES
  0
CLASS
  1
ACDBDICTIONARYWDFLT
  2
AcDbDictionaryWithDefault
  3
ObjectDBX Classes
 90
        0
 91
        4
280
     0
281
     0
  0
CLASS
  1
VISUALSTYLE
  2
AcDbVisualStyle
  3
ObjectDBX Classes
 90
     4095
 91
        4
280
     0
281
     0
  0
ENDSEC
  0
SECTION
  2
TABLES
  0
TABLE
  2
VPORT
  5
8
330
0
100
AcDbSymbolTable
 70
     1
  0
VPORT
  5
29
330
8
100
AcDbSymbolTableRecord
100
AcDbViewportTableRecord
  2
*Active
 70
     0
 10
0.0
 20
0.0
 11
1.0
 21
1.0
 12
80.25
 22
106.4409457059851
 13
0.0
 23
0.0
 14
0.5
 24
0.5
 15
0.5
 25
0.5
 16
0.0
 26
0.0
 36
1.0
 17
0.0
 27
0.0
 37
0.0
 40
113.3818914119703
 41
0.8863849310366128
 42
50.0
 43
0.0
 44
0.0
 50
0.0
 51
0.0
 71
     0
 72
  1000
 73
     1
 74
     3
 75
     0
 76
     0
 77
     0
 78
     0
281
     0
 65
     1
110
0.0
120
0.0
130
0.0
111
1.0
121
0.0
131
0.0
112
0.0
122
1.0
132
0.0
 79
     0
146
0.0
  0
ENDTAB
  0
TABLE
  2
LTYPE
  5
5
330
0
100
AcDbSymbolTable
 70
     1
  0
LTYPE
  5
14
330
5
100
AcDbSymbolTableRecord
100
AcDbLinetypeTableRecord
  2
ByBlock
 70
     0
  3

 72
    65
 73
     0
 40
0.0
  0
LTYPE
  5
15
330
5
100
AcDbSymbolTableRecord
100
AcDbLinetypeTableRecord
  2
ByLayer
 70
     0
  3

 72
    65
 73
     0
 40
0.0
  0
LTYPE
  5
16
330
5
100
AcDbSymbolTableRecord
100
AcDbLinetypeTableRecord
  2
Continuous
 70
     0
  3
Solid line
 72
    65
 73
     0
 40
0.0
  0
ENDTAB
  0
TABLE
  2
LAYER
  5
2
330
0
100
AcDbSymbolTable
 70
     1
  0
LAYER
  5
10
330
2
100
AcDbSymbolTableRecord
100
AcDbLayerTableRecord
  2
0
 70
     0
 62
     7
  6
Continuous
370
    -3
390
F
  0
ENDTAB
  0
TABLE
  2
STYLE
  5
3
330
0
100
AcDbSymbolTable
 70
     1
  0
STYLE
  5
11
330
3
100
AcDbSymbolTableRecord
100
AcDbTextStyleTableRecord
  2
Standard
 70
     0
 40
0.0
 41
1.0
 50
0.0
 71
     0
 42
0.2
  3
txt
  4

  0
ENDTAB
  0
TABLE
  2
VIEW
  5
6
330
0
100
AcDbSymbolTable
 70
     0
  0
ENDTAB
  0
TABLE
  2
UCS
  5
7
330
0
100
AcDbSymbolTable
 70
     0
  0
ENDTAB
  0
TABLE
  2
APPID
  5
9
330
0
100
AcDbSymbolTable
 70
     1
  0
APPID
  5
12
330
9
100
AcDbSymbolTableRecord
100
AcDbRegAppTableRecord
  2
ACAD
 70
     0
  0
ENDTAB
  0
TABLE
  2
DIMSTYLE
  5
A
330
0
100
AcDbSymbolTable
 70
     1
100
AcDbDimStyleTable
  0
DIMSTYLE
105
27
330
A
100
AcDbSymbolTableRecord
100
AcDbDimStyleTableRecord
  2
Standard
 70
     0
340
11
  0
ENDTAB
  0
TABLE
  2
BLOCK_RECORD
  5
1
330
0
100
AcDbSymbolTable
 70
     1
  0
BLOCK_RECORD
  5
1F
330
1
100
AcDbSymbolTableRecord
100
AcDbBlockTableRecord
  2
*Model_Space
340
22
  0
BLOCK_RECORD
  5
1B
330
1
100
AcDbSymbolTableRecord
100
AcDbBlockTableRecord
  2
*Paper_Space
340
1E
  0
BLOCK_RECORD
  5
23
330
1
100
AcDbSymbolTableRecord
100
AcDbBlockTableRecord
  2
*Paper_Space0
340
26
  0
ENDTAB
  0
ENDSEC
  0
SECTION
  2
BLOCKS
  0
BLOCK
  5
20
330
1F
100
AcDbEntity
  8
0
100
AcDbBlockBegin
  2
*Model_Space
 70
     0
 10
0.0
 20
0.0
 30
0.0
  3
*Model_Space
  1

  0
ENDBLK
  5
21
330
1F
100
AcDbEntity
  8
0
100
AcDbBlockEnd
  0
BLOCK
  5
1C
330
1B
100
AcDbEntity
 67
     1
  8
0
100
AcDbBlockBegin
  2
*Paper_Space
 70
     0
 10
0.0
 20
0.0
 30
0.0
  3
*Paper_Space
  1

  0
ENDBLK
  5
1D
330
1B
100
AcDbEntity
 67
     1
  8
0
100
AcDbBlockEnd
  0
BLOCK
  5
24
330
23
100
AcDbEntity
  8
0
100
AcDbBlockBegin
  2
*Paper_Space0
 70
     0
 10
0.0
 20
0.0
 30
0.0
  3
*Paper_Space0
  1

  0
ENDBLK
  5
25
330
23
100
AcDbEntity
  8
0
100
AcDbBlockEnd
  0
ENDSEC
  0
SECTION
  2
ENTITIES
  0
HATCH
  5
20000
  8
0
100
AcDbEntity
100
AcDbHatch
 10
0
 20
0
 30
0
210
0
220
0
230
1
  2
SOLID
 70
1
 71
0
 91
4
 92
2
 72
0
 73
1
 93
5
 10
0
 20
0
 10
0
 20
4000
 10
7000
 20
4000
 10
7000
 20
0
 10
0
 20
0
 97
0
 92
2
 72
0
 73
1
 93
5
 10
6500
 20
2004.75
 10
500
 20
2004.75
 10
500
 20
2002.5
 10
6500
 20
2002.5
 10
6500
 20
2004.75
 97
0
 92
2
 72
0
 73
1
 93
5
 10
500
 20
1997.5
 10
500
 20
1995.25
 10
6500
 20
1995.25
 10
6500
 20
1997.5
 10
500
 20
1997.5
 97
0
 92
2
 72
0
 73
1
 93
3593
 10
1261
 20
2006.75
 10
1261.07613227624
 20
2006.75061015745
 10
1262.67871115483
 20
2006.77629934742
 10
1262.83089747625
 20
2006.78117966653
 10
1264.43182959671
 20
2006.85822083905
 10
1264.58378130534
 20
2006.86797646242
 10
1266.18142160169
 20
2006.99629045248
 10
1266.33298255687
 20
2007.01091135555
 10
1267.92568934572
 20
2007.19036631184
 10
1268.07670380833
 20
2007.20983747064
 10
1269.66284047578
 20
2007.44024899108
 10
1269.81315326825
 20
2007.46455039768
 10
1271.39108995165
 20
2007.74568171885
 10
1271.54054661743
 20
2007.7747884019
 10
1273.10866188017
 20
2008.10635064236
 10
1273.25710884243
 20
2008.14023269279
 10
1274.81379134009
 20
2008.52188514993
 10
1274.96107605953
 20
2008.56050775163
 10
1276.50472619561
 20
2008.99185825175
 10
1276.65069732724
 20
2009.0351817174
 10
1278.17972889686
 20
2009.5157870187
 10
1278.32423644547
 20
2009.5637668305
 10
1279.83707826535
 20
2010.09313307855
 10
1279.97997373966
 20
2010.145719934
 10
1281.47507126256
 20
2010.72330316919
 10
1281.61620782781
 20
2010.78044303175
 10
1283.09202473996
 20
2011.40564974826
 10
1283.23125736879
 20
2011.46728390286
 10
1284.68627716855
 20
2012.13947165853
 10
1284.82346279003
 20
2012.20553677189
 10
1286.25619034619
 20
2012.92401484836
 10
1286.39118799281
 20
2012.99444303414
 10
1287.80015108097
 20
2013.75847314662
 10
1287.93282203352
 20
2013.83319203507
 10
1289.31657284885
 20
2014.64198909097
 10
1289.44678077897
 20
2014.7209219034
 10
1290.80389742398
 20
2015.57365480907
 10
1290.93150853421
 20
2015.65672043667
 10
1292.26059647979
 20
2016.55251295142
 10
1292.3854796411
 20
2016.63962603864
 10
1293.68517315955
 20
2017.57755767509
 10
1293.80720004604
 20
2017.66862870735
 10
1295.07616361442
 20
2018.64773567735
 10
1295.19520883522
 20
2018.74267107301
 10
1296.43213850767
 20
2019.76194727795
 10
1296.54807973576
 20
2019.86064948447
 10
1297.75170448344
 20
2020.91904754917
 10
1297.86442258138
 20
2021.02141514336
 10
1299.03350559849
 20
2022.11784749224
 10
1299.14288474081
 20
2022.22377528448
 10
1300.27622471552
 20
2023.35711525919
 10
1300.38215250776
 20
2023.46649440151
 10
1301.47858485664
 20
2024.63557741862
 10
1301.58095245083
 20
2024.74829551656
 10
1302.63935051553
 20
2025.95192026424
 10
1302.73805272205
 20
2026.06786149233
 10
1303.75732892699
 20
2027.30479116478
 10
1303.85226432265
 20
2027.42383638558
 10
1304.83137129265
 20
2028.69279995396
 10
1304.92244232491
 20
2028.81482684045
 10
1305.86037396136
 20
2030.1145203589
 10
1305.94748704858
 20
2030.23940352021
 10
1306.84327956333
 20
2031.56849146579
 10
1306.92634519093
 20
2031.69610257602
 10
1307.7790780966
 20
2033.05321922103
 10
1307.85801090903
 20
2033.18342715115
 10
1308.66680796493
 20
2034.56717796648
 10
1308.74152685338
 20
2034.69984891903
 10
1309.50555696586
 20
2036.10881200719
 10
1309.57598515164
 20
2036.24380965381
 10
1310.29446322811
 20
2037.67653720997
 10
1310.36052834147
 20
2037.81372283145
 10
1311.03271609714
 20
2039.26874263121
 10
1311.09435025174
 20
2039.40797526004
 10
1311.71955696825
 20
2040.88379217219
 10
1311.77669683081
 20
2041.02492873744
 10
1312.354280066
 20
2042.52002626034
 10
1312.40686692145
 20
2042.66292173465
 10
1312.9362331695
 20
2044.17576355453
 10
1312.9842129813
 20
2044.32027110314
 10
1313.4648182826
 20
2045.84930267276
 10
1313.50814174825
 20
2045.99527380439
 10
1313.93949224837
 20
2047.53892394047
 10
1313.97811485007
 20
2047.68620865991
 10
1314.35976730721
 20
2049.24289115757
 10
1314.39364935764
 20
2049.39133811982
 10
1314.7252115981
 20
2050.95945338257
 10
1314.75431828116
 20
2051.10891004835
 10
1315.03544960232
 20
2052.68684673175
 10
1315.05975100892
 20
2052.83715952422
 10
1315.29016252936
 20
2054.42329619167
 10
1315.30963368816
 20
2054.57431065428
 10
1315.48908864445
 20
2056.16701744313
 10
1315.50370954752
 20
2056.31857839831
 10
1315.63202353758
 20
2057.91621869466
 10
1315.64177916095
 20
2058.06817040329
 10
1315.71882033347
 20
2059.66910252375
 10
1315.72370065258
 20
2059.82128884517
 10
1315.74938984255
 20
2061.42386772376
 10
1315.75
 20
2061.5
 10
1315.75
 20
3161.46193141684
 10
1315.77385863923
 20
3162.95031432609
 10
1315.84357996009
 20
3164.39913835618
 10
1315.95970255506
 20
3165.84498332563
 10
1316.12210710031
 20
3167.286363531
 10
1316.3306267142
 20
3168.72179785669
 10
1316.58504712873
 20
3170.14981129689
 10
1316.88510690972
 20
3171.56893647128
 10
1317.23049772547
 20
3172.97771513279
 10
1317.62086466357
 20
3174.37469966612
 10
1318.0558065956
 20
3175.75845457524
 10
1318.53487658931
 20
3177.12755795843
 10
1319.05758236792
 20
3178.48060296942
 10
1319.62338681589
 20
3179.81619926298
 10
1320.23170853091
 20
3181.13297442366
 10
1320.88192242129
 20
3182.42957537596
 10
1321.57336034832
 20
3183.70466977474
 10
1322.30531181277
 20
3184.95694737433
 10
1323.07702468504
 20
3186.18512137483
 10
1323.88770597799
 20
3187.38792974444
 10
1324.73652266179
 20
3188.56413651625
 10
1325.62260251991
 20
3189.71253305829
 10
1326.54503504541
 20
3190.83193931548
 10
1327.50287237651
 20
3191.92120502223
 10
1328.49513027059
 20
3192.97921088438
 10
1329.52078911562
 20
3194.00486972941
 10
1330.57879497777
 20
3194.99712762349
 10
1331.66806068452
 20
3195.95496495459
 10
1332.78746694171
 20
3196.87739748009
 10
1333.93586348375
 20
3197.76347733821
 10
1335.11207025556
 20
3198.61229402201
 10
1336.31487862517
 20
3199.42297531496
 10
1337.54305262567
 20
3200.19468818723
 10
1338.79533022526
 20
3200.92663965169
 10
1340.07042462404
 20
3201.61807757871
 10
1341.36702557634
 20
3202.26829146909
 10
1342.68380073702
 20
3202.87661318411
 10
1344.01939703058
 20
3203.44241763208
 10
1345.37244204157
 20
3203.96512341069
 10
1346.74154542475
 20
3204.4441934044
 10
1348.12530033388
 20
3204.87913533643
 10
1349.52228486721
 20
3205.26950227452
 10
1350.93106352873
 20
3205.61489309028
 10
1352.35018870311
 20
3205.91495287127
 10
1353.77820214332
 20
3206.1693732858
 10
1355.21363646901
 20
3206.37789289969
 10
1356.65501667437
 20
3206.54029744494
 10
1358.10086164381
 20
3206.65642003991
 10
1359.54968567391
 20
3206.72614136077
 10
1361.03806858315
 20
3206.75
 10
1660.96193141685
 20
3206.75
 10
1662.45031432609
 20
3206.72614136077
 10
1663.89913835619
 20
3206.65642003991
 10
1665.34498332563
 20
3206.54029744494
 10
1666.786363531
 20
3206.37789289969
 10
1668.22179785669
 20
3206.1693732858
 10
1669.64981129689
 20
3205.91495287127
 10
1671.06893647127
 20
3205.61489309028
 10
1672.47771513279
 20
3205.26950227452
 10
1673.87469966612
 20
3204.87913533643
 10
1675.25845457525
 20
3204.4441934044
 10
1676.62755795843
 20
3203.96512341069
 10
1677.98060296942
 20
3203.44241763208
 10
1679.31619926299
 20
3202.87661318411
 10
1680.63297442366
 20
3202.26829146909
 10
1681.92957537596
 20
3201.61807757871
 10
1683.20466977474
 20
3200.92663965169
 10
1684.45694737433
 20
3200.19468818723
 10
1685.68512137483
 20
3199.42297531496
 10
1686.88792974443
 20
3198.61229402201
 10
1688.06413651625
 20
3197.76347733821
 10
1689.21253305829
 20
3196.87739748009
 10
1690.33193931548
 20
3195.95496495459
 10
1691.42120502223
 20
3194.99712762349
 10
1692.47921088438
 20
3194.00486972941
 10
1693.5048697294
 20
3192.97921088438
 10
1694.4971276235
 20
3191.92120502223
 10
1695.45496495459
 20
3190.83193931548
 10
1696.37739748009
 20
3189.71253305828
 10
1697.26347733821
 20
3188.56413651625
 10
1698.11229402201
 20
3187.38792974444
 10
1698.92297531496
 20
3186.18512137483
 10
1699.69468818723
 20
3184.95694737433
 10
1700.42663965169
 20
3183.70466977474
 10
1701.11807757871
 20
3182.42957537596
 10
1701.76829146909
 20
3181.13297442366
 10
1702.37661318411
 20
3179.81619926298
 10
1702.94241763208
 20
3178.48060296942
 10
1703.46512341069
 20
3177.12755795843
 10
1703.9441934044
 20
3175.75845457524
 10
1704.37913533643
 20
3174.37469966612
 10
1704.76950227452
 20
3172.97771513279
 10
1705.11489309028
 20
3171.56893647127
 10
1705.41495287127
 20
3170.14981129689
 10
1705.6693732858
 20
3168.72179785669
 10
1705.87789289969
 20
3167.286363531
 10
1706.04029744494
 20
3165.84498332563
 10
1706.15642003991
 20
3164.39913835618
 10
1706.22614136077
 20
3162.9503143261
 10
1706.24938976416
 20
3161.5
 10
1706.22614136077
 20
3160.0496856739
 10
1706.15642003991
 20
3158.60086164382
 10
1706.04029744494
 20
3157.15501667437
 10
1705.87789289969
 20
3155.713636469
 10
1705.6693732858
 20
3154.27820214332
 10
1705.41495287127
 20
3152.85018870311
 10
1705.11489309028
 20
3151.43106352873
 10
1704.76950227452
 20
3150.02228486721
 10
1704.37913533643
 20
3148.62530033388
 10
1703.9441934044
 20
3147.24154542476
 10
1703.46512341069
 20
3145.87244204157
 10
1702.94241763208
 20
3144.51939703058
 10
1702.37661318411
 20
3143.18380073702
 10
1701.76829146909
 20
3141.86702557634
 10
1701.11807757871
 20
3140.57042462404
 10
1700.42663965169
 20
3139.29533022526
 10
1699.69468818723
 20
3138.04305262567
 10
1698.92297531496
 20
3136.81487862517
 10
1698.11229402201
 20
3135.61207025556
 10
1697.26347733821
 20
3134.43586348375
 10
1696.37739748009
 20
3133.28746694172
 10
1695.45496495459
 20
3132.16806068452
 10
1694.4971276235
 20
3131.07879497777
 10
1693.50486972941
 20
3130.02078911562
 10
1692.47921088438
 20
3128.99513027059
 10
1691.42120502223
 20
3128.00287237651
 10
1690.33193931548
 20
3127.04503504541
 10
1689.21253305828
 20
3126.12260251991
 10
1688.06413651625
 20
3125.23652266179
 10
1686.88792974443
 20
3124.38770597799
 10
1685.68512137483
 20
3123.57702468504
 10
1684.45694737433
 20
3122.80531181277
 10
1683.20466977474
 20
3122.07336034832
 10
1681.92957537596
 20
3121.38192242129
 10
1680.63297442366
 20
3120.73170853091
 10
1679.31619926299
 20
3120.12338681589
 10
1677.98060296942
 20
3119.55758236792
 10
1676.62755795843
 20
3119.03487658931
 10
1675.25845457525
 20
3118.5558065956
 10
1673.87469966612
 20
3118.12086466357
 10
1672.47771513279
 20
3117.73049772548
 10
1671.06893647127
 20
3117.38510690972
 10
1669.64981129689
 20
3117.08504712873
 10
1668.22179785669
 20
3116.8306267142
 10
1666.786363531
 20
3116.62210710031
 10
1665.34498332563
 20
3116.45970255506
 10
1663.89913835619
 20
3116.34357996009
 10
1662.45031432609
 20
3116.27385863923
 10
1660.96193141685
 20
3116.25
 10
1461
 20
3116.25
 10
1460.84775500653
 20
3116.24755952695
 10
1457.6442440075
 20
3116.14482916447
 10
1457.3403796279
 20
3116.12532042403
 10
1454.15003254271
 20
3115.81755147767
 10
1453.84804241437
 20
3115.77861416238
 10
1450.68396906352
 20
3115.26707132077
 10
1450.38509412864
 20
3115.20886543242
 10
1447.26029636823
 20
3114.49565073482
 10
1446.96576476803
 20
3114.41841545388
 10
1443.89308306232
 20
3113.50645965246
 10
1443.60410509032
 20
3113.41051235527
 10
1440.59616574753
 20
3112.30356287204
 10
1440.3139288762
 20
3112.18929782663
 10
1437.38309216429
 20
3110.89190335445
 10
1437.10875616548
 20
3110.75979010039
 10
1434.26706552116
 20
3109.27728191144
 10
1434.00175770033
 20
3109.12786333044
 10
1431.26089024
 20
3107.46633336887
 10
1431.00570080389
 20
3107.30022345393
 10
1428.37691933986
 20
3105.46649930273
 10
1428.13289691661
 20
3105.28438063512
 10
1425.62700367578
 20
3103.28599746018
 10
1425.39515100587
 20
3103.08861840456
 10
1423.02244324108
 20
3100.93378799099
 10
1422.80371305686
 20
3100.72195962025
 10
1420.57394073327
 20
3098.41953662843
 10
1420.36923184398
 20
3098.19412939078
 10
1418.29155757434
 20
3095.75357497065
 10
1418.10171117273
 20
3095.51551511277
 10
1416.18467256628
 20
3092.94685802594
 10
1416.01046877192
 20
3092.69712378686
 10
1414.2619433515
 20
3090.01091919628
 10
1414.10409800515
 20
3089.75053678754
 10
1412.53127083676
 20
3086.95782288406
 10
1412.39043255881
 20
3086.68786227285
 10
1410.99976672667
 20
3083.80011491693
 10
1410.87651425182
 20
3083.5216854293
 10
1409.67372430012
 20
3080.55077099424
 10
1409.56856409921
 20
3080.26501675668
 10
1408.55859254987
 20
3077.22314336716
 10
1408.47195674873
 20
3076.93123860512
 10
1407.65895379147
 20
3073.83090597139
 10
1407.5911983952
 20
3073.53405018415
 10
1406.97850483357
 20
3070.387998238
 10
1406.92990826362
 20
3070.08741126967
 10
1406.52004178688
 20
3066.90856781339
 10
1406.49080373698
 20
3066.60548484029
 10
1406.2854485744
 20
3063.40691242349
 10
1406.27568918997
 20
3063.10257887858
 10
1406.27568918997
 20
3059.89742112142
 10
1406.2854485744
 20
3059.59308757651
 10
1406.49080373698
 20
3056.39451515971
 10
1406.52004178688
 20
3056.09143218661
 10
1406.92990826362
 20
3052.91258873033
 10
1406.97850483357
 20
3052.612001762
 10
1407.5911983952
 20
3049.46594981585
 10
1407.65895379147
 20
3049.16909402861
 10
1408.47195674873
 20
3046.06876139488
 10
1408.55859254987
 20
3045.77685663284
 10
1409.56856409921
 20
3042.73498324332
 10
1409.67372430012
 20
3042.44922900576
 10
1410.87651425182
 20
3039.4783145707
 10
1410.99976672667
 20
3039.19988508307
 10
1412.39043255881
 20
3036.31213772715
 10
1412.53127083676
 20
3036.04217711594
 10
1414.10409800515
 20
3033.24946321245
 10
1414.2619433515
 20
3032.98908080372
 10
1416.01046877192
 20
3030.30287621314
 10
1416.18467256628
 20
3030.05314197406
 10
1418.10171117273
 20
3027.48448488723
 10
1418.29155757435
 20
3027.24642502935
 10
1420.36923184398
 20
3024.80587060922
 10
1420.57394073327
 20
3024.58046337157
 10
1422.80371305686
 20
3022.27804037975
 10
1423.02244324108
 20
3022.06621200901
 10
1425.39515100587
 20
3019.91138159544
 10
1425.62700367578
 20
3019.71400253982
 10
1428.13289691661
 20
3017.71561936488
 10
1428.37691933986
 20
3017.53350069727
 10
1431.00570080389
 20
3015.69977654607
 10
1431.26089024
 20
3015.53366663113
 10
1434.00175770033
 20
3013.87213666956
 10
1434.26706552116
 20
3013.72271808856
 10
1437.10875616548
 20
3012.24020989961
 10
1437.38309216429
 20
3012.10809664555
 10
1440.3139288762
 20
3010.81070217337
 10
1440.59616574753
 20
3010.69643712796
 10
1443.60410509032
 20
3009.58948764473
 10
1443.89308306232
 20
3009.49354034754
 10
1446.96576476803
 20
3008.58158454612
 10
1447.26029636823
 20
3008.50434926518
 10
1450.38509412864
 20
3007.79113456758
 10
1450.68396906352
 20
3007.73292867923
 10
1453.84804241437
 20
3007.22138583762
 10
1454.15003254271
 20
3007.18244852233
 10
1457.3403796279
 20
3006.87467957597
 10
1457.6442440075
 20
3006.85517083553
 10
1460.84775500653
 20
3006.75244047305
 10
1461
 20
3006.75
 10
1680.92385794299
 20
3006.75
 10
1683.89902101211
 20
3006.65459231118
 10
1686.78612932503
 20
3006.37607644448
 10
1689.64946119144
 20
3005.91315515379
 10
1692.47725056652
 20
3005.26773068198
 10
1695.25787745715
 20
3004.44245521665
 10
1697.979915671
 20
3003.44071999171
 10
1700.63217976918
 20
3002.26664135206
 10
1703.2037710296
 20
3000.92504383868
 10
1705.68412223217
 20
2999.42144036353
 10
1708.06304108176
 20
2997.76200955579
 10
1710.33075209054
 20
2995.95357037262
 10
1712.47793674755
 20
2994.00355407851
 10
1714.49577181047
 20
2991.91997370871
 10
1716.37596556219
 20
2989.71139114187
 10
1718.11079188331
 20
2987.38688191751
 10
1719.69312200033
 20
2984.95599794263
 10
1721.11645377941
 20
2982.4287282409
 10
1722.37493844496
 20
2979.81545790564
 10
1723.46340461353
 20
2977.12692542519
 10
1724.37737954418
 20
2974.3741785562
 10
1725.11310751787
 20
2971.56852892603
 10
1725.66756527053
 20
2968.7215055508
 10
1726.03847441633
 20
2965.84480746025
 10
1726.22431081003
 20
2962.9502556239
 10
1726.22431081003
 20
2960.0497443761
 10
1726.03847441633
 20
2957.15519253975
 10
1725.66756527053
 20
2954.2784944492
 10
1725.11310751787
 20
2951.43147107397
 10
1724.37737954418
 20
2948.6258214438
 10
1723.46340461353
 20
2945.87307457481
 10
1722.37493844496
 20
2943.18454209436
 10
1721.11645377941
 20
2940.5712717591
 10
1719.69312200033
 20
2938.04400205737
 10
1718.11079188331
 20
2935.61311808249
 10
1716.37596556219
 20
2933.28860885813
 10
1714.49577181047
 20
2931.08002629129
 10
1712.47793674755
 20
2928.99644592149
 10
1710.33075209054
 20
2927.04642962738
 10
1708.06304108176
 20
2925.23799044421
 10
1705.68412223217
 20
2923.57855963647
 10
1703.2037710296
 20
2922.07495616132
 10
1700.63217976918
 20
2920.73335864794
 10
1697.979915671
 20
2919.55928000829
 10
1695.25787745715
 20
2918.55754478335
 10
1692.47725056652
 20
2917.73226931802
 10
1689.64946119144
 20
2917.08684484621
 10
1686.78612932503
 20
2916.62392355551
 10
1683.89902101211
 20
2916.34540768882
 10
1680.92385794299
 20
2916.25
 10
1461
 20
2916.25
 10
1460.84775500653
 20
2916.24755952695
 10
1457.6442440075
 20
2916.14482916447
 10
1457.3403796279
 20
2916.12532042403
 10
1454.15003254271
 20
2915.81755147767
 10
1453.84804241437
 20
2915.77861416238
 10
1450.68396906352
 20
2915.26707132077
 10
1450.38509412864
 20
2915.20886543242
 10
1447.26029636823
 20
2914.49565073482
 10
1446.96576476803
 20
2914.41841545388
 10
1443.89308306232
 20
2913.50645965246
 10
1443.60410509032
 20
2913.41051235527
 10
1440.59616574753
 20
2912.30356287204
 10
1440.3139288762
 20
2912.18929782663
 10
1437.38309216429
 20
2910.89190335445
 10
1437.10875616548
 20
2910.75979010039
 10
1434.26706552116
 20
2909.27728191144
 10
1434.00175770033
 20
2909.12786333044
 10
1431.26089024
 20
2907.46633336887
 10
1431.00570080389
 20
2907.30022345393
 10
1428.37691933986
 20
2905.46649930273
 10
1428.13289691661
 20
2905.28438063512
 10
1425.62700367578
 20
2903.28599746018
 10
1425.39515100587
 20
2903.08861840456
 10
1423.02244324108
 20
2900.93378799099
 10
1422.80371305686
 20
2900.72195962025
 10
1420.57394073327
 20
2898.41953662843
 10
1420.36923184398
 20
2898.19412939078
 10
1418.29155757435
 20
2895.75357497065
 10
1418.10171117273
 20
2895.51551511277
 10
1416.18467256628
 20
2892.94685802594
 10
1416.01046877192
 20
2892.69712378686
 10
1414.2619433515
 20
2890.01091919628
 10
1414.10409800515
 20
2889.75053678754
 10
1412.53127083676
 20
2886.95782288406
 10
1412.39043255881
 20
2886.68786227285
 10
1410.99976672667
 20
2883.80011491693
 10
1410.87651425182
 20
2883.5216854293
 10
1409.67372430012
 20
2880.55077099424
 10
1409.56856409921
 20
2880.26501675668
 10
1408.55859254987
 20
2877.22314336716
 10
1408.47195674873
 20
2876.93123860512
 10
1407.65895379147
 20
2873.83090597139
 10
1407.5911983952
 20
2873.53405018415
 10
1406.97850483357
 20
2870.387998238
 10
1406.92990826362
 20
2870.08741126967
 10
1406.52004178688
 20
2866.90856781339
 10
1406.49080373698
 20
2866.60548484029
 10
1406.2854485744
 20
2863.40691242349
 10
1406.27568918997
 20
2863.10257887858
 10
1406.27568918997
 20
2859.89742112142
 10
1406.2854485744
 20
2859.59308757651
 10
1406.49080373698
 20
2856.39451515971
 10
1406.52004178688
 20
2856.09143218661
 10
1406.92990826362
 20
2852.91258873033
 10
1406.97850483357
 20
2852.612001762
 10
1407.5911983952
 20
2849.46594981585
 10
1407.65895379147
 20
2849.16909402861
 10
1408.47195674873
 20
2846.06876139488
 10
1408.55859254987
 20
2845.77685663284
 10
1409.56856409921
 20
2842.73498324332
 10
1409.67372430012
 20
2842.44922900576
 10
1410.87651425182
 20
2839.4783145707
 10
1410.99976672667
 20
2839.19988508307
 10
1412.39043255881
 20
2836.31213772715
 10
1412.53127083676
 20
2836.04217711594
 10
1414.10409800515
 20
2833.24946321245
 10
1414.2619433515
 20
2832.98908080372
 10
1416.01046877192
 20
2830.30287621314
 10
1416.18467256628
 20
2830.05314197406
 10
1418.10171117273
 20
2827.48448488723
 10
1418.29155757435
 20
2827.24642502935
 10
1420.36923184398
 20
2824.80587060922
 10
1420.57394073327
 20
2824.58046337157
 10
1422.80371305686
 20
2822.27804037975
 10
1423.02244324108
 20
2822.06621200901
 10
1425.39515100587
 20
2819.91138159544
 10
1425.62700367578
 20
2819.71400253982
 10
1428.13289691661
 20
2817.71561936488
 10
1428.37691933986
 20
2817.53350069727
 10
1431.00570080389
 20
2815.69977654607
 10
1431.26089024
 20
2815.53366663113
 10
1434.00175770033
 20
2813.87213666956
 10
1434.26706552116
 20
2813.72271808856
 10
1437.10875616548
 20
2812.24020989961
 10
1437.38309216429
 20
2812.10809664555
 10
1440.3139288762
 20
2810.81070217337
 10
1440.59616574753
 20
2810.69643712796
 10
1443.60410509032
 20
2809.58948764473
 10
1443.89308306232
 20
2809.49354034754
 10
1446.96576476803
 20
2808.58158454612
 10
1447.26029636823
 20
2808.50434926518
 10
1450.38509412864
 20
2807.79113456758
 10
1450.68396906352
 20
2807.73292867923
 10
1453.84804241437
 20
2807.22138583762
 10
1454.15003254271
 20
2807.18244852233
 10
1457.3403796279
 20
2806.87467957597
 10
1457.6442440075
 20
2806.85517083553
 10
1460.84775500653
 20
2806.75244047305
 10
1461
 20
2806.75
 10
1680.92385794299
 20
2806.75
 10
1683.89902101211
 20
2806.65459231118
 10
1686.78612932503
 20
2806.37607644448
 10
1689.64946119144
 20
2805.91315515379
 10
1692.47725056652
 20
2805.26773068198
 10
1695.25787745715
 20
2804.44245521665
 10
1697.979915671
 20
2803.44071999171
 10
1700.63217976918
 20
2802.26664135206
 10
1703.2037710296
 20
2800.92504383868
 10
1705.68412223217
 20
2799.42144036353
 10
1708.06304108176
 20
2797.76200955579
 10
1710.33075209054
 20
2795.95357037262
 10
1712.47793674755
 20
2794.00355407851
 10
1714.49577181047
 20
2791.91997370871
 10
1716.37596556219
 20
2789.71139114187
 10
1718.11079188331
 20
2787.38688191751
 10
1719.69312200033
 20
2784.95599794263
 10
1721.11645377941
 20
2782.4287282409
 10
1722.37493844496
 20
2779.81545790564
 10
1723.46340461353
 20
2777.12692542519
 10
1724.37737954418
 20
2774.3741785562
 10
1725.11310751787
 20
2771.56852892603
 10
1725.66756527053
 20
2768.7215055508
 10
1726.03847441633
 20
2765.84480746025
 10
1726.22431081003
 20
2762.9502556239
 10
1726.22431081003
 20
2760.0497443761
 10
1726.03847441633
 20
2757.15519253975
 10
1725.66756527053
 20
2754.2784944492
 10
1725.11310751787
 20
2751.43147107397
 10
1724.37737954418
 20
2748.6258214438
 10
1723.46340461353
 20
2745.87307457481
 10
1722.37493844496
 20
2743.18454209436
 10
1721.11645377941
 20
2740.5712717591
 10
1719.69312200033
 20
2738.04400205737
 10
1718.11079188331
 20
2735.61311808249
 10
1716.37596556219
 20
2733.28860885813
 10
1714.49577181047
 20
2731.08002629129
 10
1712.47793674755
 20
2728.99644592149
 10
1710.33075209054
 20
2727.04642962738
 10
1708.06304108176
 20
2725.23799044421
 10
1705.68412223217
 20
2723.57855963647
 10
1703.2037710296
 20
2722.07495616132
 10
1700.63217976918
 20
2720.73335864794
 10
1697.979915671
 20
2719.55928000829
 10
1695.25787745715
 20
2718.55754478335
 10
1692.47725056652
 20
2717.73226931802
 10
1689.64946119144
 20
2717.08684484621
 10
1686.78612932503
 20
2716.62392355551
 10
1683.89902101211
 20
2716.34540768882
 10
1680.92385794299
 20
2716.25
 10
1461
 20
2716.25
 10
1460.84775500653
 20
2716.24755952695
 10
1457.6442440075
 20
2716.14482916447
 10
1457.3403796279
 20
2716.12532042403
 10
1454.15003254271
 20
2715.81755147767
 10
1453.84804241437
 20
2715.77861416238
 10
1450.68396906352
 20
2715.26707132077
 10
1450.38509412864
 20
2715.20886543242
 10
1447.26029636823
 20
2714.49565073482
 10
1446.96576476803
 20
2714.41841545388
 10
1443.89308306232
 20
2713.50645965246
 10
1443.60410509032
 20
2713.41051235527
 10
1440.59616574753
 20
2712.30356287204
 10
1440.3139288762
 20
2712.18929782663
 10
1437.38309216429
 20
2710.89190335445
 10
1437.10875616548
 20
2710.75979010039
 10
1434.26706552116
 20
2709.27728191144
 10
1434.00175770033
 20
2709.12786333044
 10
1431.26089024
 20
2707.46633336887
 10
1431.00570080389
 20
2707.30022345393
 10
1428.37691933986
 20
2705.46649930273
 10
1428.13289691661
 20
2705.28438063512
 10
1425.62700367578
 20
2703.28599746018
 10
1425.39515100587
 20
2703.08861840456
 10
1423.02244324108
 20
2700.93378799099
 10
1422.80371305686
 20
2700.72195962025
 10
1420.57394073327
 20
2698.41953662843
 10
1420.36923184398
 20
2698.19412939078
 10
1418.29155757435
 20
2695.75357497065
 10
1418.10171117273
 20
2695.51551511277
 10
1416.18467256628
 20
2692.94685802594
 10
1416.01046877192
 20
2692.69712378686
 10
1414.2619433515
 20
2690.01091919628
 10
1414.10409800515
 20
2689.75053678754
 10
1412.53127083676
 20
2686.95782288406
 10
1412.39043255881
 20
2686.68786227285
 10
1410.99976672667
 20
2683.80011491693
 10
1410.87651425182
 20
2683.5216854293
 10
1409.67372430012
 20
2680.55077099424
 10
1409.56856409921
 20
2680.26501675668
 10
1408.55859254987
 20
2677.22314336716
 10
1408.47195674873
 20
2676.93123860512
 10
1407.65895379147
 20
2673.83090597139
 10
1407.5911983952
 20
2673.53405018415
 10
1406.97850483357
 20
2670.387998238
 10
1406.92990826362
 20
2670.08741126967
 10
1406.52004178688
 20
2666.90856781339
 10
1406.49080373698
 20
2666.60548484029
 10
1406.2854485744
 20
2663.40691242349
 10
1406.27568918997
 20
2663.10257887858
 10
1406.27568918997
 20
2659.89742112142
 10
1406.2854485744
 20
2659.59308757651
 10
1406.49080373698
 20
2656.39451515971
 10
1406.52004178688
 20
2656.09143218661
 10
1406.92990826362
 20
2652.91258873033
 10
1406.97850483357
 20
2652.612001762
 10
1407.5911983952
 20
2649.46594981585
 10
1407.65895379147
 20
2649.16909402861
 10
1408.47195674873
 20
2646.06876139488
 10
1408.55859254987
 20
2645.77685663284
 10
1409.56856409921
 20
2642.73498324332
 10
1409.67372430012
 20
2642.44922900576
 10
1410.87651425182
 20
2639.4783145707
 10
1410.99976672667
 20
2639.19988508307
 10
1412.39043255881
 20
2636.31213772715
 10
1412.53127083676
 20
2636.04217711594
 10
1414.10409800515
 20
2633.24946321245
 10
1414.2619433515
 20
2632.98908080372
 10
1416.01046877192
 20
2630.30287621314
 10
1416.18467256628
 20
2630.05314197406
 10
1418.10171117273
 20
2627.48448488723
 10
1418.29155757435
 20
2627.24642502935
 10
1420.36923184398
 20
2624.80587060922
 10
1420.57394073327
 20
2624.58046337157
 10
1422.80371305686
 20
2622.27804037975
 10
1423.02244324108
 20
2622.06621200901
 10
1425.39515100587
 20
2619.91138159544
 10
1425.62700367578
 20
2619.71400253982
 10
1428.13289691661
 20
2617.71561936488
 10
1428.37691933986
 20
2617.53350069727
 10
1431.00570080389
 20
2615.69977654607
 10
1431.26089024
 20
2615.53366663113
 10
1434.00175770033
 20
2613.87213666956
 10
1434.26706552116
 20
2613.72271808856
 10
1437.10875616548
 20
2612.24020989961
 10
1437.38309216429
 20
2612.10809664555
 10
1440.3139288762
 20
2610.81070217337
 10
1440.59616574753
 20
2610.69643712796
 10
1443.60410509032
 20
2609.58948764473
 10
1443.89308306232
 20
2609.49354034754
 10
1446.96576476803
 20
2608.58158454612
 10
1447.26029636823
 20
2608.50434926518
 10
1450.38509412864
 20
2607.79113456758
 10
1450.68396906352
 20
2607.73292867923
 10
1453.84804241437
 20
2607.22138583762
 10
1454.15003254271
 20
2607.18244852233
 10
1457.3403796279
 20
2606.87467957597
 10
1457.6442440075
 20
2606.85517083553
 10
1460.84775500653
 20
2606.75244047305
 10
1461
 20
2606.75
 10
1680.92385794299
 20
2606.75
 10
1683.89902101211
 20
2606.65459231118
 10
1686.78612932503
 20
2606.37607644448
 10
1689.64946119144
 20
2605.91315515379
 10
1692.47725056652
 20
2605.26773068198
 10
1695.25787745715
 20
2604.44245521665
 10
1697.979915671
 20
2603.44071999171
 10
1700.63217976918
 20
2602.26664135206
 10
1703.2037710296
 20
2600.92504383868
 10
1705.68412223217
 20
2599.42144036353
 10
1708.06304108176
 20
2597.76200955579
 10
1710.33075209054
 20
2595.95357037262
 10
1712.47793674755
 20
2594.00355407851
 10
1714.49577181047
 20
2591.91997370871
 10
1716.37596556219
 20
2589.71139114187
 10
1718.11079188331
 20
2587.38688191751
 10
1719.69312200033
 20
2584.95599794263
 10
1721.11645377941
 20
2582.4287282409
 10
1722.37493844496
 20
2579.81545790564
 10
1723.46340461353
 20
2577.12692542519
 10
1724.37737954418
 20
2574.3741785562
 10
1725.11310751787
 20
2571.56852892603
 10
1725.66756527053
 20
2568.7215055508
 10
1726.03847441633
 20
2565.84480746025
 10
1726.22431081003
 20
2562.9502556239
 10
1726.22431081003
 20
2560.0497443761
 10
1726.03847441633
 20
2557.15519253975
 10
1725.66756527053
 20
2554.2784944492
 10
1725.11310751787
 20
2551.43147107397
 10
1724.37737954418
 20
2548.6258214438
 10
1723.46340461353
 20
2545.87307457481
 10
1722.37493844496
 20
2543.18454209436
 10
1721.11645377941
 20
2540.5712717591
 10
1719.69312200033
 20
2538.04400205737
 10
1718.11079188331
 20
2535.61311808249
 10
1716.37596556219
 20
2533.28860885813
 10
1714.49577181047
 20
2531.08002629129
 10
1712.47793674755
 20
2528.99644592149
 10
1710.33075209054
 20
2527.04642962738
 10
1708.06304108176
 20
2525.23799044421
 10
1705.68412223217
 20
2523.57855963647
 10
1703.2037710296
 20
2522.07495616132
 10
1700.63217976918
 20
2520.73335864794
 10
1697.979915671
 20
2519.55928000829
 10
1695.25787745715
 20
2518.55754478335
 10
1692.47725056652
 20
2517.73226931802
 10
1689.64946119144
 20
2517.08684484621
 10
1686.78612932503
 20
2516.62392355552
 10
1683.89902101211
 20
2516.34540768882
 10
1680.92385794299
 20
2516.25
 10
1461
 20
2516.25
 10
1460.84775500653
 20
2516.24755952695
 10
1457.6442440075
 20
2516.14482916447
 10
1457.3403796279
 20
2516.12532042403
 10
1454.15003254271
 20
2515.81755147767
 10
1453.84804241437
 20
2515.77861416238
 10
1450.68396906352
 20
2515.26707132077
 10
1450.38509412864
 20
2515.20886543242
 10
1447.26029636823
 20
2514.49565073482
 10
1446.96576476803
 20
2514.41841545388
 10
1443.89308306232
 20
2513.50645965246
 10
1443.60410509032
 20
2513.41051235527
 10
1440.59616574753
 20
2512.30356287204
 10
1440.3139288762
 20
2512.18929782663
 10
1437.38309216429
 20
2510.89190335445
 10
1437.10875616548
 20
2510.75979010039
 10
1434.26706552116
 20
2509.27728191144
 10
1434.00175770033
 20
2509.12786333044
 10
1431.26089024
 20
2507.46633336887
 10
1431.00570080389
 20
2507.30022345393
 10
1428.37691933986
 20
2505.46649930273
 10
1428.13289691661
 20
2505.28438063512
 10
1425.62700367578
 20
2503.28599746018
 10
1425.39515100587
 20
2503.08861840456
 10
1423.02244324108
 20
2500.93378799099
 10
1422.80371305686
 20
2500.72195962025
 10
1420.57394073327
 20
2498.41953662843
 10
1420.36923184398
 20
2498.19412939078
 10
1418.29155757434
 20
2495.75357497065
 10
1418.10171117273
 20
2495.51551511277
 10
1416.18467256628
 20
2492.94685802594
 10
1416.01046877192
 20
2492.69712378686
 10
1414.2619433515
 20
2490.01091919628
 10
1414.10409800515
 20
2489.75053678755
 10
1412.53127083676
 20
2486.95782288406
 10
1412.39043255881
 20
2486.68786227285
 10
1410.99976672667
 20
2483.80011491693
 10
1410.87651425182
 20
2483.5216854293
 10
1409.67372430012
 20
2480.55077099424
 10
1409.56856409921
 20
2480.26501675668
 10
1408.55859254987
 20
2477.22314336716
 10
1408.47195674873
 20
2476.93123860512
 10
1407.65895379147
 20
2473.83090597139
 10
1407.5911983952
 20
2473.53405018415
 10
1406.97850483357
 20
2470.387998238
 10
1406.92990826362
 20
2470.08741126967
 10
1406.52004178688
 20
2466.90856781339
 10
1406.49080373698
 20
2466.60548484029
 10
1406.2854485744
 20
2463.40691242349
 10
1406.27568918997
 20
2463.10257887858
 10
1406.27568918997
 20
2459.89742112142
 10
1406.2854485744
 20
2459.59308757651
 10
1406.49080373698
 20
2456.39451515971
 10
1406.52004178688
 20
2456.09143218661
 10
1406.92990826362
 20
2452.91258873033
 10
1406.97850483357
 20
2452.612001762
 10
1407.5911983952
 20
2449.46594981585
 10
1407.65895379147
 20
2449.16909402861
 10
1408.47195674873
 20
2446.06876139488
 10
1408.55859254987
 20
2445.77685663284
 10
1409.56856409921
 20
2442.73498324332
 10
1409.67372430012
 20
2442.44922900576
 10
1410.87651425182
 20
2439.4783145707
 10
1410.99976672667
 20
2439.19988508307
 10
1412.39043255881
 20
2436.31213772715
 10
1412.53127083676
 20
2436.04217711594
 10
1414.10409800515
 20
2433.24946321245
 10
1414.2619433515
 20
2432.98908080372
 10
1416.01046877192
 20
2430.30287621314
 10
1416.18467256628
 20
2430.05314197406
 10
1418.10171117273
 20
2427.48448488723
 10
1418.29155757435
 20
2427.24642502935
 10
1420.36923184398
 20
2424.80587060922
 10
1420.57394073327
 20
2424.58046337157
 10
1422.80371305686
 20
2422.27804037975
 10
1423.02244324108
 20
2422.06621200901
 10
1425.39515100587
 20
2419.91138159544
 10
1425.62700367578
 20
2419.71400253982
 10
1428.13289691661
 20
2417.71561936488
 10
1428.37691933986
 20
2417.53350069727
 10
1431.00570080389
 20
2415.69977654607
 10
1431.26089024
 20
2415.53366663113
 10
1434.00175770033
 20
2413.87213666956
 10
1434.26706552116
 20
2413.72271808856
 10
1437.10875616548
 20
2412.24020989961
 10
1437.38309216429
 20
2412.10809664555
 10
1440.3139288762
 20
2410.81070217337
 10
1440.59616574753
 20
2410.69643712796
 10
1443.60410509032
 20
2409.58948764473
 10
1443.89308306232
 20
2409.49354034754
 10
1446.96576476803
 20
2408.58158454612
 10
1447.26029636823
 20
2408.50434926518
 10
1450.38509412864
 20
2407.79113456758
 10
1450.68396906352
 20
2407.73292867923
 10
1453.84804241437
 20
2407.22138583762
 10
1454.15003254271
 20
2407.18244852233
 10
1457.3403796279
 20
2406.87467957597
 10
1457.72035672472
 20
2406.85334051993
 10
1459.24680332706
 20
2406.82887172326
 10
1460.69562735715
 20
2406.75915040239
 10
1462.1414723266
 20
2406.64302780743
 10
1463.58285253196
 20
2406.48062326218
 10
1465.01828685765
 20
2406.27210364828
 10
1466.44630029786
 20
2406.01768323375
 10
1467.86542547224
 20
2405.71762345276
 10
1469.27420413375
 20
2405.37223263701
 10
1470.67118866709
 20
2404.98186569891
 10
1472.05494357621
 20
2404.54692376689
 10
1473.4240469594
 20
2404.06785377317
 10
1474.77709197038
 20
2403.54514799457
 10
1476.11268826395
 20
2402.9793435466
 10
1477.42946342463
 20
2402.37102183158
 10
1478.72606437692
 20
2401.72080794119
 10
1480.00115877571
 20
2401.02937001417
 10
1481.25343637529
 20
2400.29741854971
 10
1482.48161037579
 20
2399.52570567744
 10
1483.6844187454
 20
2398.71502438449
 10
1484.86062551721
 20
2397.8662077007
 10
1486.00902205925
 20
2396.98012784257
 10
1487.12842831644
 20
2396.05769531707
 10
1488.21769402319
 20
2395.09985798598
 10
1489.27569988535
 20
2394.10760009189
 10
1490.30135873037
 20
2393.08194124687
 10
1491.29361662446
 20
2392.02393538471
 10
1492.25145395556
 20
2390.93466967796
 10
1493.17388648105
 20
2389.81526342077
 10
1494.05996633917
 20
2388.66686687873
 10
1494.90878302298
 20
2387.49066010692
 10
1495.71946431592
 20
2386.28785173732
 10
1496.4911771882
 20
2385.05967773681
 10
1497.22312865265
 20
2383.80740013722
 10
1497.91456657967
 20
2382.53230573844
 10
1498.56478047006
 20
2381.23570478614
 10
1499.17310218508
 20
2379.91892962547
 10
1499.73890663305
 20
2378.5833333319
 10
1500.26161241165
 20
2377.23028832091
 10
1500.74068240537
 20
2375.86118493773
 10
1501.17562433739
 20
2374.47743002861
 10
1501.56599127549
 20
2373.08044549527
 10
1501.91138209124
 20
2371.67166683376
 10
1502.21144187224
 20
2370.25254165937
 10
1502.46586228677
 20
2368.82452821917
 10
1502.67438190066
 20
2367.38909389348
 10
1502.83678644591
 20
2365.94771368811
 10
1502.95290904087
 20
2364.50186871867
 10
1503.02263036174
 20
2363.05304468858
 10
1503.04648900096
 20
2361.56466177932
 10
1503.04648900096
 20
2300.44895025238
 10
1505.29648900096
 20
2300.44895025238
 10
1505.29648900096
 20
2361.58269426608
 10
1505.27176325876
 20
2363.12517000291
 10
1505.19857463974
 20
2364.6460452337
 10
1505.07667717342
 20
2366.16379325274
 10
1504.90619611767
 20
2367.67685447132
 10
1504.68730665331
 20
2369.18367411679
 10
1504.42023370405
 20
2370.68270383009
 10
1504.10525170542
 20
2372.17240325686
 10
1503.74268432269
 20
2373.65124163023
 10
1503.33290411837
 20
2375.11769934381
 10
1502.87633216932
 20
2376.57026951317
 10
1502.37343763408
 20
2378.00745952427
 10
1501.82473727078
 20
2379.42779256721
 10
1501.23079490614
 20
2380.8298091538
 10
1500.59222085607
 20
2382.2120686172
 10
1499.90967129859
 20
2383.57315059238
 10
1499.18384759951
 20
2384.9116564756
 10
1498.41549559174
 20
2386.22621086159
 10
1497.60540480891
 20
2387.51546295685
 10
1496.75440767406
 20
2388.77808796771
 10
1495.86337864426
 20
2390.01278846162
 10
1494.9332333121
 20
2391.21829570034
 10
1493.96492746475
 20
2392.39337094371
 10
1492.95945610196
 20
2393.53680672248
 10
1491.91785241349
 20
2394.64742807908
 10
1490.84118671756
 20
2395.72409377501
 10
1489.73056536096
 20
2396.76569746347
 10
1488.58712958219
 20
2397.77116882627
 10
1487.41205433882
 20
2398.73947467362
 10
1486.2065471001
 20
2399.66962000578
 10
1484.9718466062
 20
2400.56064903557
 10
1483.70922159533
 20
2401.41164617043
 10
1482.41996950007
 20
2402.22173695326
 10
1481.10541511408
 20
2402.99008896103
 10
1479.76690923086
 20
2403.71591266011
 10
1478.40582725568
 20
2404.39846221759
 10
1477.02356779228
 20
2405.03703626765
 10
1475.6215512057
 20
2405.6309786323
 10
1474.20121816275
 20
2406.1796789956
 10
1472.76402815165
 20
2406.68257353084
 10
1471.31145798229
 20
2407.13914547989
 10
1469.84500026871
 20
2407.54892568421
 10
1468.36616189534
 20
2407.91149306693
 10
1466.87646246857
 20
2408.22647506557
 10
1465.37743275527
 20
2408.49354801483
 10
1463.87061310981
 20
2408.71243747919
 10
1462.35755189121
 20
2408.88291853494
 10
1460.83980387218
 20
2409.00481600126
 10
1459.3189286414
 20
2409.07800462027
 10
1457.75641938189
 20
2409.10305149798
 10
1457.5564314362
 20
2409.11428258011
 10
1454.36608435101
 20
2409.42205152646
 10
1454.20714217819
 20
2409.4425448503
 10
1451.04306882735
 20
2409.95408769191
 10
1450.88576623004
 20
2409.98472236999
 10
1447.76096846963
 20
2410.69793706759
 10
1447.60595183795
 20
2410.73858721546
 10
1444.53327013224
 20
2411.65054301688
 10
1444.38117646277
 20
2411.70104159434
 10
1441.37323711998
 20
2412.80799107757
 10
1441.22469139823
 20
2412.86813057516
 10
1438.29385468632
 20
2414.16552504734
 10
1438.14946731852
 20
2414.23505833895
 10
1435.3077766742
 20
2415.7175665279
 10
1435.16814097903
 20
2415.79620788632
 10
1432.4272735187
 20
2417.45773784789
 10
1432.29296328917
 20
2417.54516411892
 10
1429.66418182513
 20
2419.37888827011
 10
1429.53574897079
 20
2419.47474020043
 10
1427.02985572996
 20
2421.47312337537
 10
1426.90782800896
 20
2421.57700708885
 10
1424.53512024417
 20
2423.73183750243
 10
1424.41999909458
 20
2423.8433261186
 10
1422.19022677099
 20
2426.14574911043
 10
1422.08248525031
 20
2426.26438449866
 10
1420.00481098068
 20
2428.70493891879
 10
1419.90489182193
 20
2428.83023358084
 10
1417.98785321548
 20
2431.39889066766
 10
1417.89616700792
 20
2431.53032974087
 10
1416.1476415875
 20
2434.21653433145
 10
1416.06456508942
 20
2434.35357770446
 10
1414.49173792104
 20
2437.14629160795
 10
1414.41761251159
 20
2437.28837614016
 10
1413.02694667945
 20
2440.17612349609
 10
1412.96207695584
 20
2440.32266533168
 10
1411.75928700415
 20
2443.29357976674
 10
1411.70393952999
 20
2443.44397673388
 10
1410.69396798064
 20
2446.48585012339
 10
1410.64837019057
 20
2446.63948420867
 10
1409.83536723331
 20
2449.73981684241
 10
1409.79970649843
 20
2449.89605673043
 10
1409.1870129368
 20
2453.04210867658
 10
1409.16143579472
 20
2453.20031234412
 10
1408.75156931798
 20
2456.3791558004
 10
1408.73618087066
 20
2456.53867315466
 10
1408.53082570809
 20
2459.73724557147
 10
1408.52568918997
 20
2459.89742112142
 10
1408.52568918997
 20
2463.10257887858
 10
1408.53082570809
 20
2463.26275442853
 10
1408.73618087066
 20
2466.46132684534
 10
1408.75156931798
 20
2466.6208441996
 10
1409.16143579472
 20
2469.79968765588
 10
1409.1870129368
 20
2469.95789132342
 10
1409.79970649843
 20
2473.10394326957
 10
1409.83536723331
 20
2473.26018315759
 10
1410.64837019057
 20
2476.36051579133
 10
1410.69396798064
 20
2476.51414987661
 10
1411.70393952999
 20
2479.55602326612
 10
1411.75928700415
 20
2479.70642023326
 10
1412.96207695584
 20
2482.67733466832
 10
1413.02694667945
 20
2482.82387650391
 10
1414.41761251159
 20
2485.71162385984
 10
1414.49173792104
 20
2485.85370839205
 10
1416.06456508942
 20
2488.64642229554
 10
1416.1476415875
 20
2488.78346566855
 10
1417.89616700792
 20
2491.46967025914
 10
1417.98785321548
 20
2491.60110933234
 10
1419.90489182193
 20
2494.16976641916
 10
1420.00481098068
 20
2494.29506108121
 10
1422.08248525031
 20
2496.73561550134
 10
1422.19022677099
 20
2496.85425088957
 10
1424.41999909458
 20
2499.15667388139
 10
1424.53512024417
 20
2499.26816249757
 10
1426.90782800896
 20
2501.42299291115
 10
1427.02985572996
 20
2501.52687662463
 10
1429.53574897079
 20
2503.52525979957
 10
1429.66418182513
 20
2503.62111172989
 10
1432.29296328917
 20
2505.45483588108
 10
1432.4272735187
 20
2505.54226215211
 10
1435.16814097903
 20
2507.20379211368
 10
1435.3077766742
 20
2507.2824334721
 10
1438.14946731852
 20
2508.76494166105
 10
1438.29385468632
 20
2508.83447495266
 10
1441.22469139823
 20
2510.13186942484
 10
1441.37323711998
 20
2510.19200892243
 10
1444.38117646277
 20
2511.29895840566
 10
1444.53327013224
 20
2511.34945698313
 10
1447.60595183795
 20
2512.26141278454
 10
1447.76096846963
 20
2512.30206293241
 10
1450.88576623004
 20
2513.01527763001
 10
1451.04306882735
 20
2513.04591230809
 10
1454.20714217819
 20
2513.5574551497
 10
1454.36608435101
 20
2513.57794847354
 10
1457.5564314362
 20
2513.88571741989
 10
1457.71636005703
 20
2513.89598517802
 10
1460.91987105607
 20
2513.9987155405
 10
1461
 20
2514
 10
1680.95992523315
 20
2514
 10
1684.04325311118
 20
2514.09887632371
 10
1687.07400084254
 20
2514.39124891235
 10
1690.07978920158
 20
2514.877201464
 10
1693.04826675918
 20
2515.5547370954
 10
1695.96723540432
 20
2516.4210716673
 10
1698.82470046872
 20
2517.47264522512
 10
1701.60892001551
 20
2518.70513662754
 10
1704.30845308936
 20
2520.11348130303
 10
1706.91220672981
 20
2521.69189206123
 10
1709.40948155466
 20
2523.43388287376
 10
1711.79001572599
 20
2525.33229552672
 10
1714.04402711826
 20
2527.37932903531
 10
1716.16225351519
 20
2529.56657169975
 10
1718.13599067013
 20
2531.88503567078
 10
1719.95712807377
 20
2534.32519388263
 10
1721.61818228188
 20
2536.87701920179
 10
1723.11232766642
 20
2539.53002563066
 10
1724.43342446351
 20
2542.27331139676
 10
1725.57604400304
 20
2545.09560375045
 10
1726.53549101623
 20
2547.98530528705
 10
1727.3078229295
 20
2550.93054160313
 10
1727.88986606536
 20
2553.91921009089
 10
1728.27922868371
 20
2556.93902967047
 10
1728.47431081003
 20
2559.97759125546
 10
1728.47431081003
 20
2563.02240874454
 10
1728.27922868371
 20
2566.06097032953
 10
1727.88986606536
 20
2569.08078990911
 10
1727.3078229295
 20
2572.06945839687
 10
1726.53549101623
 20
2575.01469471295
 10
1725.57604400304
 20
2577.90439624955
 10
1724.43342446351
 20
2580.72668860324
 10
1723.11232766642
 20
2583.46997436934
 10
1721.61818228188
 20
2586.12298079821
 10
1719.95712807377
 20
2588.67480611737
 10
1718.13599067013
 20
2591.11496432922
 10
1716.16225351519
 20
2593.43342830025
 10
1714.04402711826
 20
2595.62067096469
 10
1711.79001572599
 20
2597.66770447328
 10
1709.40948155467
 20
2599.56611712624
 10
1706.91220672981
 20
2601.30810793877
 10
1704.30845308936
 20
2602.88651869697
 10
1701.60892001551
 20
2604.29486337246
 10
1698.82470046872
 20
2605.52735477488
 10
1695.96723540432
 20
2606.5789283327
 10
1693.04826675918
 20
2607.4452629046
 10
1690.07978920158
 20
2608.122798536
 10
1687.07400084254
 20
2608.60875108765
 10
1684.04325311118
 20
2608.90112367629
 10
1680.95992523315
 20
2609
 10
1461
 20
2609
 10
1460.91987105607
 20
2609.0012844595
 10
1457.71636005703
 20
2609.10401482198
 10
1457.5564314362
 20
2609.11428258011
 10
1454.36608435101
 20
2609.42205152646
 10
1454.20714217819
 20
2609.4425448503
 10
1451.04306882735
 20
2609.95408769191
 10
1450.88576623004
 20
2609.98472236999
 10
1447.76096846963
 20
2610.69793706759
 10
1447.60595183795
 20
2610.73858721546
 10
1444.53327013224
 20
2611.65054301688
 10
1444.38117646277
 20
2611.70104159434
 10
1441.37323711998
 20
2612.80799107757
 10
1441.22469139823
 20
2612.86813057516
 10
1438.29385468632
 20
2614.16552504734
 10
1438.14946731852
 20
2614.23505833895
 10
1435.3077766742
 20
2615.7175665279
 10
1435.16814097903
 20
2615.79620788632
 10
1432.4272735187
 20
2617.45773784789
 10
1432.29296328917
 20
2617.54516411892
 10
1429.66418182513
 20
2619.37888827011
 10
1429.53574897079
 20
2619.47474020043
 10
1427.02985572996
 20
2621.47312337537
 10
1426.90782800896
 20
2621.57700708885
 10
1424.53512024417
 20
2623.73183750243
 10
1424.41999909458
 20
2623.8433261186
 10
1422.19022677099
 20
2626.14574911043
 10
1422.08248525031
 20
2626.26438449866
 10
1420.00481098068
 20
2628.70493891879
 10
1419.90489182193
 20
2628.83023358084
 10
1417.98785321548
 20
2631.39889066766
 10
1417.89616700792
 20
2631.53032974087
 10
1416.1476415875
 20
2634.21653433145
 10
1416.06456508942
 20
2634.35357770446
 10
1414.49173792104
 20
2637.14629160795
 10
1414.41761251159
 20
2637.28837614016
 10
1413.02694667945
 20
2640.17612349609
 10
1412.96207695584
 20
2640.32266533168
 10
1411.75928700415
 20
2643.29357976674
 10
1411.70393952999
 20
2643.44397673388
 10
1410.69396798064
 20
2646.48585012339
 10
1410.64837019057
 20
2646.63948420867
 10
1409.83536723331
 20
2649.73981684241
 10
1409.79970649843
 20
2649.89605673043
 10
1409.1870129368
 20
2653.04210867658
 10
1409.16143579472
 20
2653.20031234412
 10
1408.75156931798
 20
2656.3791558004
 10
1408.73618087066
 20
2656.53867315466
 10
1408.53082570809
 20
2659.73724557147
 10
1408.52568918997
 20
2659.89742112142
 10
1408.52568918997
 20
2663.10257887858
 10
1408.53082570809
 20
2663.26275442853
 10
1408.73618087066
 20
2666.46132684534
 10
1408.75156931798
 20
2666.6208441996
 10
1409.16143579472
 20
2669.79968765588
 10
1409.1870129368
 20
2669.95789132342
 10
1409.79970649843
 20
2673.10394326957
 10
1409.83536723331
 20
2673.26018315759
 10
1410.64837019057
 20
2676.36051579133
 10
1410.69396798064
 20
2676.51414987661
 10
1411.70393952999
 20
2679.55602326612
 10
1411.75928700415
 20
2679.70642023326
 10
1412.96207695584
 20
2682.67733466832
 10
1413.02694667945
 20
2682.82387650391
 10
1414.41761251159
 20
2685.71162385984
 10
1414.49173792104
 20
2685.85370839205
 10
1416.06456508942
 20
2688.64642229554
 10
1416.1476415875
 20
2688.78346566855
 10
1417.89616700792
 20
2691.46967025914
 10
1417.98785321548
 20
2691.60110933234
 10
1419.90489182193
 20
2694.16976641916
 10
1420.00481098068
 20
2694.29506108121
 10
1422.08248525031
 20
2696.73561550134
 10
1422.19022677099
 20
2696.85425088957
 10
1424.41999909458
 20
2699.1566738814
 10
1424.53512024417
 20
2699.26816249757
 10
1426.90782800896
 20
2701.42299291115
 10
1427.02985572996
 20
2701.52687662463
 10
1429.53574897079
 20
2703.52525979957
 10
1429.66418182513
 20
2703.62111172989
 10
1432.29296328917
 20
2705.45483588108
 10
1432.4272735187
 20
2705.54226215211
 10
1435.16814097903
 20
2707.20379211368
 10
1435.3077766742
 20
2707.2824334721
 10
1438.14946731852
 20
2708.76494166105
 10
1438.29385468632
 20
2708.83447495266
 10
1441.22469139823
 20
2710.13186942484
 10
1441.37323711998
 20
2710.19200892243
 10
1444.38117646277
 20
2711.29895840566
 10
1444.53327013224
 20
2711.34945698313
 10
1447.60595183795
 20
2712.26141278454
 10
1447.76096846963
 20
2712.30206293241
 10
1450.88576623004
 20
2713.01527763001
 10
1451.04306882735
 20
2713.04591230809
 10
1454.20714217819
 20
2713.5574551497
 10
1454.36608435101
 20
2713.57794847354
 10
1457.5564314362
 20
2713.88571741989
 10
1457.71636005703
 20
2713.89598517802
 10
1460.91987105607
 20
2713.9987155405
 10
1461
 20
2714
 10
1680.95992523315
 20
2714
 10
1684.04325311118
 20
2714.09887632371
 10
1687.07400084254
 20
2714.39124891235
 10
1690.07978920158
 20
2714.877201464
 10
1693.04826675918
 20
2715.5547370954
 10
1695.96723540432
 20
2716.4210716673
 10
1698.82470046872
 20
2717.47264522512
 10
1701.60892001551
 20
2718.70513662754
 10
1704.30845308936
 20
2720.11348130303
 10
1706.91220672981
 20
2721.69189206123
 10
1709.40948155467
 20
2723.43388287376
 10
1711.79001572599
 20
2725.33229552672
 10
1714.04402711826
 20
2727.37932903531
 10
1716.16225351519
 20
2729.56657169975
 10
1718.13599067013
 20
2731.88503567078
 10
1719.95712807377
 20
2734.32519388263
 10
1721.61818228188
 20
2736.87701920179
 10
1723.11232766642
 20
2739.53002563066
 10
1724.43342446351
 20
2742.27331139676
 10
1725.57604400304
 20
2745.09560375045
 10
1726.53549101623
 20
2747.98530528705
 10
1727.3078229295
 20
2750.93054160313
 10
1727.88986606536
 20
2753.91921009089
 10
1728.27922868371
 20
2756.93902967047
 10
1728.47431081003
 20
2759.97759125546
 10
1728.47431081003
 20
2763.02240874454
 10
1728.27922868371
 20
2766.06097032953
 10
1727.88986606536
 20
2769.08078990911
 10
1727.3078229295
 20
2772.06945839687
 10
1726.53549101623
 20
2775.01469471295
 10
1725.57604400304
 20
2777.90439624955
 10
1724.43342446351
 20
2780.72668860324
 10
1723.11232766642
 20
2783.46997436934
 10
1721.61818228188
 20
2786.12298079821
 10
1719.95712807377
 20
2788.67480611737
 10
1718.13599067013
 20
2791.11496432922
 10
1716.16225351519
 20
2793.43342830025
 10
1714.04402711826
 20
2795.62067096469
 10
1711.79001572599
 20
2797.66770447328
 10
1709.40948155467
 20
2799.56611712624
 10
1706.91220672981
 20
2801.30810793877
 10
1704.30845308936
 20
2802.88651869697
 10
1701.60892001551
 20
2804.29486337246
 10
1698.82470046872
 20
2805.52735477488
 10
1695.96723540432
 20
2806.5789283327
 10
1693.04826675918
 20
2807.4452629046
 10
1690.07978920158
 20
2808.122798536
 10
1687.07400084254
 20
2808.60875108765
 10
1684.04325311118
 20
2808.90112367629
 10
1680.95992523315
 20
2809
 10
1461
 20
2809
 10
1460.91987105607
 20
2809.0012844595
 10
1457.71636005703
 20
2809.10401482198
 10
1457.5564314362
 20
2809.11428258011
 10
1454.36608435101
 20
2809.42205152646
 10
1454.20714217819
 20
2809.4425448503
 10
1451.04306882735
 20
2809.95408769191
 10
1450.88576623004
 20
2809.98472236999
 10
1447.76096846963
 20
2810.69793706759
 10
1447.60595183795
 20
2810.73858721546
 10
1444.53327013224
 20
2811.65054301688
 10
1444.38117646277
 20
2811.70104159434
 10
1441.37323711998
 20
2812.80799107757
 10
1441.22469139823
 20
2812.86813057516
 10
1438.29385468632
 20
2814.16552504734
 10
1438.14946731852
 20
2814.23505833895
 10
1435.3077766742
 20
2815.7175665279
 10
1435.16814097903
 20
2815.79620788632
 10
1432.4272735187
 20
2817.45773784789
 10
1432.29296328917
 20
2817.54516411892
 10
1429.66418182513
 20
2819.37888827011
 10
1429.53574897079
 20
2819.47474020043
 10
1427.02985572996
 20
2821.47312337537
 10
1426.90782800896
 20
2821.57700708885
 10
1424.53512024417
 20
2823.73183750243
 10
1424.41999909458
 20
2823.8433261186
 10
1422.19022677099
 20
2826.14574911043
 10
1422.08248525031
 20
2826.26438449866
 10
1420.00481098068
 20
2828.70493891879
 10
1419.90489182193
 20
2828.83023358084
 10
1417.98785321548
 20
2831.39889066766
 10
1417.89616700792
 20
2831.53032974087
 10
1416.1476415875
 20
2834.21653433145
 10
1416.06456508942
 20
2834.35357770446
 10
1414.49173792104
 20
2837.14629160795
 10
1414.41761251159
 20
2837.28837614016
 10
1413.02694667945
 20
2840.17612349609
 10
1412.96207695584
 20
2840.32266533168
 10
1411.75928700415
 20
2843.29357976674
 10
1411.70393952999
 20
2843.44397673388
 10
1410.69396798064
 20
2846.48585012339
 10
1410.64837019057
 20
2846.63948420867
 10
1409.83536723331
 20
2849.73981684241
 10
1409.79970649843
 20
2849.89605673043
 10
1409.1870129368
 20
2853.04210867658
 10
1409.16143579472
 20
2853.20031234412
 10
1408.75156931798
 20
2856.3791558004
 10
1408.73618087066
 20
2856.53867315466
 10
1408.53082570809
 20
2859.73724557147
 10
1408.52568918997
 20
2859.89742112142
 10
1408.52568918997
 20
2863.10257887858
 10
1408.53082570809
 20
2863.26275442853
 10
1408.73618087066
 20
2866.46132684534
 10
1408.75156931798
 20
2866.6208441996
 10
1409.16143579472
 20
2869.79968765588
 10
1409.1870129368
 20
2869.95789132342
 10
1409.79970649843
 20
2873.10394326957
 10
1409.83536723331
 20
2873.26018315759
 10
1410.64837019057
 20
2876.36051579133
 10
1410.69396798064
 20
2876.51414987661
 10
1411.70393952999
 20
2879.55602326612
 10
1411.75928700415
 20
2879.70642023326
 10
1412.96207695584
 20
2882.67733466832
 10
1413.02694667945
 20
2882.82387650391
 10
1414.41761251159
 20
2885.71162385984
 10
1414.49173792104
 20
2885.85370839205
 10
1416.06456508942
 20
2888.64642229554
 10
1416.1476415875
 20
2888.78346566855
 10
1417.89616700792
 20
2891.46967025914
 10
1417.98785321548
 20
2891.60110933234
 10
1419.90489182193
 20
2894.16976641916
 10
1420.00481098068
 20
2894.29506108121
 10
1422.08248525031
 20
2896.73561550134
 10
1422.19022677099
 20
2896.85425088957
 10
1424.41999909458
 20
2899.1566738814
 10
1424.53512024417
 20
2899.26816249757
 10
1426.90782800896
 20
2901.42299291115
 10
1427.02985572996
 20
2901.52687662463
 10
1429.53574897079
 20
2903.52525979957
 10
1429.66418182513
 20
2903.62111172989
 10
1432.29296328917
 20
2905.45483588108
 10
1432.4272735187
 20
2905.54226215211
 10
1435.16814097903
 20
2907.20379211368
 10
1435.3077766742
 20
2907.2824334721
 10
1438.14946731852
 20
2908.76494166105
 10
1438.29385468632
 20
2908.83447495266
 10
1441.22469139823
 20
2910.13186942484
 10
1441.37323711998
 20
2910.19200892243
 10
1444.38117646277
 20
2911.29895840566
 10
1444.53327013224
 20
2911.34945698313
 10
1447.60595183795
 20
2912.26141278454
 10
1447.76096846963
 20
2912.30206293241
 10
1450.88576623004
 20
2913.01527763001
 10
1451.04306882735
 20
2913.04591230809
 10
1454.20714217819
 20
2913.5574551497
 10
1454.36608435101
 20
2913.57794847354
 10
1457.5564314362
 20
2913.88571741989
 10
1457.71636005703
 20
2913.89598517802
 10
1460.91987105607
 20
2913.9987155405
 10
1461
 20
2914
 10
1680.95992523315
 20
2914
 10
1684.04325311118
 20
2914.09887632371
 10
1687.07400084254
 20
2914.39124891235
 10
1690.07978920158
 20
2914.877201464
 10
1693.04826675918
 20
2915.5547370954
 10
1695.96723540432
 20
2916.4210716673
 10
1698.82470046872
 20
2917.47264522512
 10
1701.60892001551
 20
2918.70513662754
 10
1704.30845308936
 20
2920.11348130303
 10
1706.91220672981
 20
2921.69189206123
 10
1709.40948155467
 20
2923.43388287376
 10
1711.79001572599
 20
2925.33229552672
 10
1714.04402711826
 20
2927.37932903531
 10
1716.16225351519
 20
2929.56657169975
 10
1718.13599067013
 20
2931.88503567078
 10
1719.95712807377
 20
2934.32519388263
 10
1721.61818228188
 20
2936.87701920179
 10
1723.11232766642
 20
2939.53002563066
 10
1724.43342446351
 20
2942.27331139676
 10
1725.57604400304
 20
2945.09560375045
 10
1726.53549101623
 20
2947.98530528705
 10
1727.3078229295
 20
2950.93054160313
 10
1727.88986606536
 20
2953.91921009089
 10
1728.27922868371
 20
2956.93902967047
 10
1728.47431081003
 20
2959.97759125546
 10
1728.47431081003
 20
2963.02240874454
 10
1728.27922868371
 20
2966.06097032953
 10
1727.88986606536
 20
2969.08078990911
 10
1727.3078229295
 20
2972.06945839687
 10
1726.53549101623
 20
2975.01469471295
 10
1725.57604400304
 20
2977.90439624955
 10
1724.43342446351
 20
2980.72668860324
 10
1723.11232766642
 20
2983.46997436934
 10
1721.61818228188
 20
2986.12298079821
 10
1719.95712807377
 20
2988.67480611737
 10
1718.13599067013
 20
2991.11496432922
 10
1716.16225351519
 20
2993.43342830025
 10
1714.04402711826
 20
2995.62067096469
 10
1711.79001572599
 20
2997.66770447328
 10
1709.40948155467
 20
2999.56611712624
 10
1706.91220672981
 20
3001.30810793877
 10
1704.30845308936
 20
3002.88651869697
 10
1701.60892001551
 20
3004.29486337246
 10
1698.82470046872
 20
3005.52735477488
 10
1695.96723540432
 20
3006.5789283327
 10
1693.04826675918
 20
3007.4452629046
 10
1690.07978920158
 20
3008.122798536
 10
1687.07400084254
 20
3008.60875108765
 10
1684.04325311118
 20
3008.90112367629
 10
1680.95992523315
 20
3009
 10
1461
 20
3009
 10
1460.91987105607
 20
3009.0012844595
 10
1457.71636005703
 20
3009.10401482198
 10
1457.5564314362
 20
3009.11428258011
 10
1454.36608435101
 20
3009.42205152646
 10
1454.20714217819
 20
3009.4425448503
 10
1451.04306882735
 20
3009.95408769191
 10
1450.88576623004
 20
3009.98472236999
 10
1447.76096846963
 20
3010.69793706759
 10
1447.60595183795
 20
3010.73858721546
 10
1444.53327013224
 20
3011.65054301688
 10
1444.38117646277
 20
3011.70104159434
 10
1441.37323711998
 20
3012.80799107757
 10
1441.22469139823
 20
3012.86813057516
 10
1438.29385468632
 20
3014.16552504734
 10
1438.14946731852
 20
3014.23505833895
 10
1435.3077766742
 20
3015.7175665279
 10
1435.16814097903
 20
3015.79620788632
 10
1432.4272735187
 20
3017.45773784789
 10
1432.29296328917
 20
3017.54516411892
 10
1429.66418182513
 20
3019.37888827011
 10
1429.53574897079
 20
3019.47474020043
 10
1427.02985572996
 20
3021.47312337537
 10
1426.90782800896
 20
3021.57700708885
 10
1424.53512024417
 20
3023.73183750243
 10
1424.41999909458
 20
3023.8433261186
 10
1422.19022677099
 20
3026.14574911043
 10
1422.08248525031
 20
3026.26438449866
 10
1420.00481098068
 20
3028.70493891879
 10
1419.90489182193
 20
3028.83023358084
 10
1417.98785321548
 20
3031.39889066766
 10
1417.89616700792
 20
3031.53032974087
 10
1416.1476415875
 20
3034.21653433145
 10
1416.06456508942
 20
3034.35357770446
 10
1414.49173792104
 20
3037.14629160795
 10
1414.41761251159
 20
3037.28837614016
 10
1413.02694667945
 20
3040.17612349609
 10
1412.96207695584
 20
3040.32266533168
 10
1411.75928700415
 20
3043.29357976674
 10
1411.70393952999
 20
3043.44397673388
 10
1410.69396798064
 20
3046.48585012339
 10
1410.64837019057
 20
3046.63948420867
 10
1409.83536723331
 20
3049.73981684241
 10
1409.79970649843
 20
3049.89605673043
 10
1409.1870129368
 20
3053.04210867658
 10
1409.16143579472
 20
3053.20031234412
 10
1408.75156931798
 20
3056.37915580041
 10
1408.73618087066
 20
3056.53867315466
 10
1408.53082570809
 20
3059.73724557147
 10
1408.52568918997
 20
3059.89742112142
 10
1408.52568918997
 20
3063.10257887858
 10
1408.53082570809
 20
3063.26275442853
 10
1408.73618087066
 20
3066.46132684534
 10
1408.75156931798
 20
3066.6208441996
 10
1409.16143579472
 20
3069.79968765588
 10
1409.1870129368
 20
3069.95789132342
 10
1409.79970649843
 20
3073.10394326957
 10
1409.83536723331
 20
3073.26018315759
 10
1410.64837019057
 20
3076.36051579133
 10
1410.69396798064
 20
3076.51414987661
 10
1411.70393952999
 20
3079.55602326612
 10
1411.75928700415
 20
3079.70642023326
 10
1412.96207695584
 20
3082.67733466832
 10
1413.02694667945
 20
3082.82387650391
 10
1414.41761251159
 20
3085.71162385984
 10
1414.49173792104
 20
3085.85370839205
 10
1416.06456508942
 20
3088.64642229554
 10
1416.1476415875
 20
3088.78346566855
 10
1417.89616700792
 20
3091.46967025913
 10
1417.98785321548
 20
3091.60110933234
 10
1419.90489182193
 20
3094.16976641916
 10
1420.00481098068
 20
3094.29506108121
 10
1422.08248525031
 20
3096.73561550133
 10
1422.19022677099
 20
3096.85425088957
 10
1424.41999909458
 20
3099.1566738814
 10
1424.53512024417
 20
3099.26816249757
 10
1426.90782800896
 20
3101.42299291115
 10
1427.02985572996
 20
3101.52687662463
 10
1429.53574897079
 20
3103.52525979957
 10
1429.66418182513
 20
3103.62111172989
 10
1432.29296328917
 20
3105.45483588108
 10
1432.4272735187
 20
3105.54226215211
 10
1435.16814097903
 20
3107.20379211368
 10
1435.3077766742
 20
3107.2824334721
 10
1438.14946731852
 20
3108.76494166105
 10
1438.29385468632
 20
3108.83447495266
 10
1441.22469139823
 20
3110.13186942484
 10
1441.37323711998
 20
3110.19200892243
 10
1444.38117646277
 20
3111.29895840566
 10
1444.53327013224
 20
3111.34945698313
 10
1447.60595183795
 20
3112.26141278454
 10
1447.76096846963
 20
3112.30206293241
 10
1450.88576623004
 20
3113.01527763001
 10
1451.04306882735
 20
3113.04591230809
 10
1454.20714217819
 20
3113.5574551497
 10
1454.36608435101
 20
3113.57794847354
 10
1457.5564314362
 20
3113.88571741989
 10
1457.71636005703
 20
3113.89598517802
 10
1460.91987105607
 20
3113.9987155405
 10
1461
 20
3114
 10
1660.9799639036
 20
3114
 10
1662.52243964043
 20
3114.02472574221
 10
1664.04331487122
 20
3114.09791436122
 10
1665.56106289025
 20
3114.21981182755
 10
1667.07412410884
 20
3114.3902928833
 10
1668.58094375431
 20
3114.60918234766
 10
1670.07997346761
 20
3114.87625529691
 10
1671.56967289437
 20
3115.19123729555
 10
1673.04851126775
 20
3115.55380467827
 10
1674.51496898133
 20
3115.96358488259
 10
1675.96753915068
 20
3116.42015683164
 10
1677.40472916179
 20
3116.92305136688
 10
1678.82506220473
 20
3117.47175173018
 10
1680.22707879131
 20
3118.06569409483
 10
1681.60933825471
 20
3118.70426814489
 10
1682.9704202299
 20
3119.38681770237
 10
1684.30892611311
 20
3120.11264140145
 10
1685.62348049911
 20
3120.88099340923
 10
1686.91273259437
 20
3121.69108419205
 10
1688.17535760523
 20
3122.54208132691
 10
1689.41005809913
 20
3123.4331103567
 10
1690.61556533786
 20
3124.36325568887
 10
1691.79064058123
 20
3125.33156153621
 10
1692.93407636
 20
3126.33703289901
 10
1694.0446977166
 20
3127.37863658747
 10
1695.12136341253
 20
3128.4553022834
 10
1696.16296710099
 20
3129.56592364001
 10
1697.16843846379
 20
3130.70935941877
 10
1698.13674431113
 20
3131.88443466214
 10
1699.0668896433
 20
3133.08994190087
 10
1699.95791867309
 20
3134.32464239477
 10
1700.80891580794
 20
3135.58726740563
 10
1701.61900659077
 20
3136.87651950089
 10
1702.38735859855
 20
3138.19107388689
 10
1703.11318229763
 20
3139.52957977011
 10
1703.79573185511
 20
3140.89066174528
 10
1704.43430590517
 20
3142.27292120869
 10
1705.02824826982
 20
3143.67493779527
 10
1705.57694863312
 20
3145.09527083821
 10
1706.07984316836
 20
3146.53246084931
 10
1706.53641511741
 20
3147.98503101868
 10
1706.94619532173
 20
3149.45148873225
 10
1707.30876270445
 20
3150.93032710563
 10
1707.62374470309
 20
3152.42002653239
 10
1707.89081765234
 20
3153.91905624569
 10
1708.1097071167
 20
3155.42587589116
 10
1708.28018817245
 20
3156.93893710975
 10
1708.40208563878
 20
3158.45668512878
 10
1708.47527425779
 20
3159.97756035957
 10
1708.49967882324
 20
3161.5
 10
1708.47527425779
 20
3163.02243964043
 10
1708.40208563878
 20
3164.54331487122
 10
1708.28018817245
 20
3166.06106289025
 10
1708.1097071167
 20
3167.57412410884
 10
1707.89081765234
 20
3169.08094375431
 10
1707.62374470309
 20
3170.57997346761
 10
1707.30876270445
 20
3172.06967289437
 10
1706.94619532173
 20
3173.54851126775
 10
1706.53641511741
 20
3175.01496898132
 10
1706.07984316836
 20
3176.46753915069
 10
1705.57694863312
 20
3177.90472916179
 10
1705.02824826982
 20
3179.32506220473
 10
1704.43430590517
 20
3180.72707879131
 10
1703.79573185511
 20
3182.10933825472
 10
1703.11318229763
 20
3183.47042022989
 10
1702.38735859855
 20
3184.80892611311
 10
1701.61900659077
 20
3186.12348049911
 10
1700.80891580794
 20
3187.41273259437
 10
1699.95791867309
 20
3188.67535760523
 10
1699.0668896433
 20
3189.91005809913
 10
1698.13674431113
 20
3191.11556533786
 10
1697.16843846379
 20
3192.29064058123
 10
1696.16296710099
 20
3193.43407635999
 10
1695.12136341253
 20
3194.5446977166
 10
1694.0446977166
 20
3195.62136341253
 10
1692.93407635999
 20
3196.66296710099
 10
1691.79064058123
 20
3197.66843846379
 10
1690.61556533786
 20
3198.63674431113
 10
1689.41005809913
 20
3199.5668896433
 10
1688.17535760523
 20
3200.45791867309
 10
1686.91273259437
 20
3201.30891580795
 10
1685.62348049911
 20
3202.11900659077
 10
1684.30892611311
 20
3202.88735859855
 10
1682.97042022989
 20
3203.61318229763
 10
1681.60933825471
 20
3204.29573185511
 10
1680.22707879131
 20
3204.93430590517
 10
1678.82506220473
 20
3205.52824826982
 10
1677.40472916179
 20
3206.07694863312
 10
1675.96753915068
 20
3206.57984316836
 10
1674.51496898133
 20
3207.03641511741
 10
1673.04851126775
 20
3207.44619532173
 10
1671.56967289437
 20
3207.80876270445
 10
1670.07997346761
 20
3208.12374470309
 10
1668.58094375431
 20
3208.39081765234
 10
1667.07412410884
 20
3208.6097071167
 10
1665.56106289025
 20
3208.78018817245
 10
1664.04331487122
 20
3208.90208563878
 10
1662.52243964043
 20
3208.97527425779
 10
1660.9799639036
 20
3209
 10
1361.0200360964
 20
3209
 10
1359.47756035957
 20
3208.97527425779
 10
1357.95668512878
 20
3208.90208563878
 10
1356.43893710975
 20
3208.78018817245
 10
1354.92587589116
 20
3208.6097071167
 10
1353.41905624569
 20
3208.39081765234
 10
1351.92002653239
 20
3208.12374470309
 10
1350.43032710563
 20
3207.80876270445
 10
1348.95148873225
 20
3207.44619532173
 10
1347.48503101867
 20
3207.03641511741
 10
1346.03246084932
 20
3206.57984316836
 10
1344.59527083821
 20
3206.07694863312
 10
1343.17493779527
 20
3205.52824826982
 10
1341.77292120869
 20
3204.93430590517
 10
1340.39066174529
 20
3204.29573185511
 10
1339.0295797701
 20
3203.61318229762
 10
1337.69107388689
 20
3202.88735859855
 10
1336.37651950089
 20
3202.11900659077
 10
1335.08726740563
 20
3201.30891580794
 10
1333.82464239477
 20
3200.45791867309
 10
1332.58994190087
 20
3199.5668896433
 10
1331.38443466214
 20
3198.63674431113
 10
1330.20935941877
 20
3197.66843846379
 10
1329.06592364001
 20
3196.66296710099
 10
1327.9553022834
 20
3195.62136341253
 10
1326.87863658747
 20
3194.5446977166
 10
1325.83703289901
 20
3193.43407635999
 10
1324.83156153621
 20
3192.29064058123
 10
1323.86325568887
 20
3191.11556533786
 10
1322.9331103567
 20
3189.91005809913
 10
1322.04208132691
 20
3188.67535760523
 10
1321.19108419206
 20
3187.41273259437
 10
1320.38099340923
 20
3186.12348049911
 10
1319.61264140145
 20
3184.80892611311
 10
1318.88681770237
 20
3183.47042022989
 10
1318.20426814489
 20
3182.10933825471
 10
1317.56569409483
 20
3180.72707879131
 10
1316.97175173018
 20
3179.32506220473
 10
1316.42305136688
 20
3177.90472916178
 10
1315.92015683164
 20
3176.46753915069
 10
1315.46358488259
 20
3175.01496898133
 10
1315.05380467827
 20
3173.54851126774
 10
1314.69123729555
 20
3172.06967289437
 10
1314.37625529691
 20
3170.57997346761
 10
1314.10918234766
 20
3169.08094375431
 10
1313.8902928833
 20
3167.57412410884
 10
1313.71981182755
 20
3166.06106289025
 10
1313.59791436122
 20
3164.54331487122
 10
1313.52472574221
 20
3163.02243964043
 10
1313.5
 20
3161.4799639036
 10
1313.5
 20
2061.5
 10
1313.4996788645
 20
2061.45993038092
 10
1313.47398967453
 20
2059.85735150234
 10
1313.47142108553
 20
2059.77725343843
 10
1313.39437991301
 20
2058.17632131798
 10
1313.38924537439
 20
2058.09634673449
 10
1313.26093138433
 20
2056.49870643814
 10
1313.25323617219
 20
2056.41893751436
 10
1313.0737812159
 20
2054.82623072552
 10
1313.06353323758
 20
2054.7467494294
 10
1312.83312171714
 20
2053.16061276196
 10
1312.82033150314
 20
2053.08150076592
 10
1312.53920018198
 20
2051.50356408252
 10
1312.52388087511
 20
2051.42490267948
 10
1312.19231863464
 20
2049.85678741673
 10
1312.17448597652
 20
2049.7786574366
 10
1311.79283351938
 20
2048.22197493894
 10
1311.77250583428
 20
2048.14445666555
 10
1311.34115533416
 20
2046.60080652947
 10
1311.31835351013
 20
2046.52397961809
 10
1310.83774820883
 20
2044.99494804846
 10
1310.8124956763
 20
2044.91889144393
 10
1310.28312942826
 20
2043.40604962405
 10
1310.25545213591
 20
2043.33084147968
 10
1309.67786890073
 20
2041.83574395677
 10
1309.64779528885
 20
2041.76146155401
 10
1309.02258857234
 20
2040.28564464186
 10
1308.99014954361
 20
2040.21236431089
 10
1308.31796178794
 20
2038.75734451114
 10
1308.28319067564
 20
2038.68514155246
 10
1307.56471259917
 20
2037.2524139963
 10
1307.52764513297
 20
2037.18136260334
 10
1306.76361502049
 20
2035.77239951519
 10
1306.72428928973
 20
2035.70257269805
 10
1305.91549223383
 20
2034.31882188272
 10
1305.87394864834
 20
2034.25029139319
 10
1305.02121574266
 20
2032.89317474818
 10
1304.9774969913
 20
2032.82601100596
 10
1304.08170447655
 20
2031.49692306037
 10
1304.03585548328
 20
2031.43119508074
 10
1303.09792384683
 20
2030.13150156229
 10
1303.04999172458
 20
2030.06727688519
 10
1302.07088475458
 20
2028.79831331681
 10
1302.02091875687
 20
2028.73565793744
 10
1301.00164255192
 20
2027.49872826499
 10
1300.94969402218
 20
2027.43770656599
 10
1299.89129595749
 20
2026.23408181832
 10
1299.83741827633
 20
2026.17475650361
 10
1298.74098592745
 20
2025.0056734865
 10
1298.68523445785
 20
2024.94810551686
 10
1297.55189448314
 20
2023.81476554215
 10
1297.4943265135
 20
2023.75901407255
 10
1296.32524349639
 20
2022.66258172367
 10
1296.26591818168
 20
2022.60870404251
 10
1295.06229343401
 20
2021.55030597782
 10
1295.00127173501
 20
2021.49835744808
 10
1293.76434206256
 20
2020.47908124313
 10
1293.70168668319
 20
2020.42911524541
 10
1292.43272311481
 20
2019.45000827542
 10
1292.36849843771
 20
2019.40207615317
 10
1291.06880491926
 20
2018.46414451672
 10
1291.00307693963
 20
2018.41829552345
 10
1289.67398899405
 20
2017.5225030087
 10
1289.60682525182
 20
2017.47878425734
 10
1288.24970860681
 20
2016.62605135166
 10
1288.18117811728
 20
2016.58450776617
 10
1286.79742730195
 20
2015.77571071027
 10
1286.72760048481
 20
2015.73638497951
 10
1285.31863739666
 20
2014.97235486703
 10
1285.2475860037
 20
2014.93528740083
 10
1283.81485844754
 20
2014.21680932436
 10
1283.74265548886
 20
2014.18203821206
 10
1282.28763568911
 20
2013.50985045639
 10
1282.21435535814
 20
2013.47741142766
 10
1280.73853844599
 20
2012.85220471115
 10
1280.66425604323
 20
2012.82213109927
 10
1279.16915852033
 20
2012.24454786409
 10
1279.09395037595
 20
2012.21687057174
 10
1277.58110855607
 20
2011.6875043237
 10
1277.50505195154
 20
2011.66225179117
 10
1275.97602038191
 20
2011.18164648987
 10
1275.89919347053
 20
2011.15884466584
 10
1274.35554333445
 20
2010.72749416572
 10
1274.27802506106
 20
2010.70716648062
 10
1272.7213425634
 20
2010.32551402348
 10
1272.64321258327
 20
2010.30768136536
 10
1271.07509732052
 20
2009.97611912489
 10
1270.99643591748
 20
2009.96079981803
 10
1269.41849923408
 20
2009.67966849686
 10
1269.33938723804
 20
2009.66687828286
 10
1267.7532505706
 20
2009.43646676242
 10
1267.67376927448
 20
2009.4262187841
 10
1266.08106248564
 20
2009.24676382781
 10
1266.00129356186
 20
2009.23906861567
 10
1264.40365326551
 20
2009.11075462561
 10
1264.32367868202
 20
2009.10562008699
 10
1262.72274656157
 20
2009.02857891447
 10
1262.64264849766
 20
2009.02601032547
 10
1261.04006961908
 20
2009.0003211355
 10
1261
 20
2009
 10
961
 20
2009
 10
961
 20
2014
 10
1260.9799639036
 20
2014
 10
1262.52243964043
 20
2014.02472574221
 10
1264.04331487122
 20
2014.09791436122
 10
1265.56106289025
 20
2014.21981182755
 10
1267.07412410884
 20
2014.3902928833
 10
1268.58094375431
 20
2014.60918234766
 10
1270.07997346761
 20
2014.87625529691
 10
1271.56967289437
 20
2015.19123729555
 10
1273.04851126775
 20
2015.55380467827
 10
1274.51496898133
 20
2015.96358488259
 10
1275.96753915069
 20
2016.42015683164
 10
1277.40472916178
 20
2016.92305136688
 10
1278.82506220473
 20
2017.47175173018
 10
1280.22707879131
 20
2018.06569409483
 10
1281.60933825471
 20
2018.70426814489
 10
1282.97042022989
 20
2019.38681770237
 10
1284.30892611312
 20
2020.11264140145
 10
1285.62348049911
 20
2020.88099340923
 10
1286.91273259437
 20
2021.69108419206
 10
1288.17535760523
 20
2022.54208132691
 10
1289.41005809913
 20
2023.4331103567
 10
1290.61556533786
 20
2024.36325568887
 10
1291.79064058123
 20
2025.33156153621
 10
1292.93407635999
 20
2026.33703289901
 10
1294.0446977166
 20
2027.37863658747
 10
1295.12136341253
 20
2028.4553022834
 10
1296.16296710099
 20
2029.56592364001
 10
1297.16843846379
 20
2030.70935941877
 10
1298.13674431113
 20
2031.88443466214
 10
1299.0668896433
 20
2033.08994190087
 10
1299.95791867309
 20
2034.32464239477
 10
1300.80891580794
 20
2035.58726740563
 10
1301.61900659077
 20
2036.87651950089
 10
1302.38735859855
 20
2038.19107388689
 10
1303.11318229763
 20
2039.52957977011
 10
1303.79573185511
 20
2040.89066174529
 10
1304.43430590517
 20
2042.27292120869
 10
1305.02824826982
 20
2043.67493779527
 10
1305.57694863312
 20
2045.09527083822
 10
1306.07984316836
 20
2046.53246084931
 10
1306.53641511741
 20
2047.98503101867
 10
1306.94619532173
 20
2049.45148873225
 10
1307.30876270445
 20
2050.93032710563
 10
1307.62374470309
 20
2052.42002653239
 10
1307.89081765234
 20
2053.91905624569
 10
1308.1097071167
 20
2055.42587589116
 10
1308.28018817245
 20
2056.93893710975
 10
1308.40208563878
 20
2058.45668512878
 10
1308.47527425779
 20
2059.97756035957
 10
1308.5
 20
2061.5200360964
 10
1308.5
 20
3161.5
 10
1308.5003211355
 20
3161.54006961908
 10
1308.52601032547
 20
3163.14264849766
 10
1308.52857891447
 20
3163.22274656157
 10
1308.60562008699
 20
3164.82367868202
 10
1308.61075462561
 20
3164.90365326551
 10
1308.73906861567
 20
3166.50129356186
 10
1308.74676382781
 20
3166.58106248564
 10
1308.92621878411
 20
3168.17376927448
 10
1308.93646676242
 20
3168.2532505706
 10
1309.16687828286
 20
3169.83938723804
 10
1309.17966849686
 20
3169.91849923408
 10
1309.46079981802
 20
3171.49643591748
 10
1309.47611912489
 20
3171.57509732052
 10
1309.80768136536
 20
3173.14321258327
 10
1309.82551402348
 20
3173.2213425634
 10
1310.20716648062
 20
3174.77802506106
 10
1310.22749416572
 20
3174.85554333445
 10
1310.65884466584
 20
3176.39919347053
 10
1310.68164648987
 20
3176.47602038191
 10
1311.16225179117
 20
3178.00505195154
 10
1311.1875043237
 20
3178.08110855607
 10
1311.71687057174
 20
3179.59395037595
 10
1311.74454786409
 20
3179.66915852033
 10
1312.32213109927
 20
3181.16425604323
 10
1312.35220471115
 20
3181.23853844599
 10
1312.97741142766
 20
3182.71435535814
 10
1313.00985045639
 20
3182.78763568911
 10
1313.68203821206
 20
3184.24265548886
 10
1313.71680932436
 20
3184.31485844754
 10
1314.43528740083
 20
3185.7475860037
 10
1314.47235486703
 20
3185.81863739666
 10
1315.23638497951
 20
3187.22760048481
 10
1315.27571071027
 20
3187.29742730195
 10
1316.08450776617
 20
3188.68117811728
 10
1316.12605135166
 20
3188.74970860681
 10
1316.97878425734
 20
3190.10682525182
 10
1317.0225030087
 20
3190.17398899405
 10
1317.91829552345
 20
3191.50307693963
 10
1317.96414451672
 20
3191.56880491926
 10
1318.90207615317
 20
3192.86849843771
 10
1318.95000827542
 20
3192.93272311481
 10
1319.92911524542
 20
3194.20168668319
 10
1319.97908124313
 20
3194.26434206256
 10
1320.99835744808
 20
3195.50127173501
 10
1321.05030597782
 20
3195.56229343401
 10
1322.10870404251
 20
3196.76591818168
 10
1322.16258172367
 20
3196.82524349639
 10
1323.25901407255
 20
3197.9943265135
 10
1323.31476554215
 20
3198.05189448314
 10
1324.44810551686
 20
3199.18523445785
 10
1324.5056734865
 20
3199.24098592745
 10
1325.67475650361
 20
3200.33741827633
 10
1325.73408181832
 20
3200.39129595749
 10
1326.93770656599
 20
3201.44969402218
 10
1326.99872826499
 20
3201.50164255193
 10
1328.23565793744
 20
3202.52091875687
 10
1328.29831331681
 20
3202.57088475458
 10
1329.56727688519
 20
3203.54999172458
 10
1329.63150156229
 20
3203.59792384683
 10
1330.93119508074
 20
3204.53585548327
 10
1330.99692306037
 20
3204.58170447655
 10
1332.32601100595
 20
3205.4774969913
 10
1332.39317474818
 20
3205.52121574266
 10
1333.75029139319
 20
3206.37394864834
 10
1333.81882188272
 20
3206.41549223383
 10
1335.20257269805
 20
3207.22428928973
 10
1335.27239951519
 20
3207.26361502049
 10
1336.68136260334
 20
3208.02764513297
 10
1336.7524139963
 20
3208.06471259917
 10
1338.18514155246
 20
3208.78319067564
 10
1338.25734451114
 20
3208.81796178794
 10
1339.71236431089
 20
3209.49014954361
 10
1339.78564464186
 20
3209.52258857234
 10
1341.26146155401
 20
3210.14779528885
 10
1341.33574395677
 20
3210.17786890073
 10
1342.83084147967
 20
3210.75545213591
 10
1342.90604962405
 20
3210.78312942826
 10
1344.41889144393
 20
3211.3124956763
 10
1344.49494804846
 20
3211.33774820883
 10
1346.02397961809
 20
3211.81835351013
 10
1346.10080652947
 20
3211.84115533416
 10
1347.64445666555
 20
3212.27250583427
 10
1347.72197493894
 20
3212.29283351938
 10
1349.2786574366
 20
3212.67448597652
 10
1349.35678741673
 20
3212.69231863464
 10
1350.92490267948
 20
3213.02388087511
 10
1351.00356408252
 20
3213.03920018198
 10
1352.58150076592
 20
3213.32033150314
 10
1352.66061276196
 20
3213.33312171714
 10
1354.2467494294
 20
3213.56353323758
 10
1354.32623072552
 20
3213.5737812159
 10
1355.91893751436
 20
3213.75323617219
 10
1355.99870643814
 20
3213.76093138433
 10
1357.59634673449
 20
3213.88924537439
 10
1357.67632131798
 20
3213.89437991301
 10
1359.27725343843
 20
3213.97142108553
 10
1359.35735150234
 20
3213.97398967453
 10
1360.95993038092
 20
3213.9996788645
 10
1361
 20
3214
 10
1661
 20
3214
 10
1661.04006961908
 20
3213.9996788645
 10
1662.64264849766
 20
3213.97398967453
 10
1662.72274656157
 20
3213.97142108553
 10
1664.32367868202
 20
3213.89437991301
 10
1664.40365326551
 20
3213.88924537439
 10
1666.00129356186
 20
3213.76093138433
 10
1666.08106248564
 20
3213.75323617219
 10
1667.67376927448
 20
3213.5737812159
 10
1667.7532505706
 20
3213.56353323758
 10
1669.33938723804
 20
3213.33312171714
 10
1669.41849923408
 20
3213.32033150314
 10
1670.99643591748
 20
3213.03920018198
 10
1671.07509732052
 20
3213.02388087511
 10
1672.64321258327
 20
3212.69231863464
 10
1672.7213425634
 20
3212.67448597652
 10
1674.27802506106
 20
3212.29283351938
 10
1674.35554333445
 20
3212.27250583427
 10
1675.89919347053
 20
3211.84115533416
 10
1675.97602038191
 20
3211.81835351013
 10
1677.50505195154
 20
3211.33774820883
 10
1677.58110855607
 20
3211.3124956763
 10
1679.09395037595
 20
3210.78312942826
 10
1679.16915852033
 20
3210.75545213591
 10
1680.66425604323
 20
3210.17786890073
 10
1680.73853844599
 20
3210.14779528885
 10
1682.21435535814
 20
3209.52258857234
 10
1682.28763568911
 20
3209.49014954361
 10
1683.74265548886
 20
3208.81796178794
 10
1683.81485844754
 20
3208.78319067564
 10
1685.2475860037
 20
3208.06471259917
 10
1685.31863739666
 20
3208.02764513297
 10
1686.72760048481
 20
3207.26361502049
 10
1686.79742730195
 20
3207.22428928973
 10
1688.18117811728
 20
3206.41549223383
 10
1688.24970860681
 20
3206.37394864834
 10
1689.60682525182
 20
3205.52121574266
 10
1689.67398899405
 20
3205.4774969913
 10
1691.00307693963
 20
3204.58170447655
 10
1691.06880491926
 20
3204.53585548327
 10
1692.36849843771
 20
3203.59792384683
 10
1692.43272311481
 20
3203.54999172458
 10
1693.70168668319
 20
3202.57088475458
 10
1693.76434206256
 20
3202.52091875687
 10
1695.00127173501
 20
3201.50164255193
 10
1695.06229343401
 20
3201.44969402218
 10
1696.26591818168
 20
3200.39129595749
 10
1696.32524349639
 20
3200.33741827633
 10
1697.4943265135
 20
3199.24098592745
 10
1697.55189448314
 20
3199.18523445785
 10
1698.68523445785
 20
3198.05189448314
 10
1698.74098592745
 20
3197.9943265135
 10
1699.83741827633
 20
3196.82524349639
 10
1699.89129595749
 20
3196.76591818168
 10
1700.94969402218
 20
3195.56229343401
 10
1701.00164255192
 20
3195.50127173501
 10
1702.02091875687
 20
3194.26434206256
 10
1702.07088475458
 20
3194.20168668319
 10
1703.04999172458
 20
3192.93272311481
 10
1703.09792384683
 20
3192.86849843771
 10
1704.03585548327
 20
3191.56880491926
 10
1704.08170447655
 20
3191.50307693963
 10
1704.9774969913
 20
3190.17398899405
 10
1705.02121574266
 20
3190.10682525182
 10
1705.87394864834
 20
3188.74970860681
 10
1705.91549223383
 20
3188.68117811728
 10
1706.72428928973
 20
3187.29742730195
 10
1706.76361502049
 20
3187.22760048481
 10
1707.52764513297
 20
3185.81863739666
 10
1707.56471259917
 20
3185.7475860037
 10
1708.28319067564
 20
3184.31485844754
 10
1708.31796178794
 20
3184.24265548886
 10
1708.99014954361
 20
3182.78763568911
 10
1709.02258857234
 20
3182.71435535814
 10
1709.64779528885
 20
3181.23853844599
 10
1709.67786890073
 20
3181.16425604323
 10
1710.25545213591
 20
3179.66915852033
 10
1710.28312942826
 20
3179.59395037595
 10
1710.8124956763
 20
3178.08110855607
 10
1710.83774820883
 20
3178.00505195154
 10
1711.31835351013
 20
3176.47602038191
 10
1711.34115533416
 20
3176.39919347053
 10
1711.77250583427
 20
3174.85554333445
 10
1711.79283351938
 20
3174.77802506106
 10
1712.17448597652
 20
3173.2213425634
 10
1712.19231863464
 20
3173.14321258327
 10
1712.52388087511
 20
3171.57509732052
 10
1712.53920018197
 20
3171.49643591748
 10
1712.82033150314
 20
3169.91849923408
 10
1712.83312171714
 20
3169.83938723804
 10
1713.06353323758
 20
3168.2532505706
 10
1713.0737812159
 20
3168.17376927448
 10
1713.25323617219
 20
3166.58106248564
 10
1713.26093138433
 20
3166.50129356186
 10
1713.38924537439
 20
3164.90365326551
 10
1713.39437991301
 20
3164.82367868202
 10
1713.47142108553
 20
3163.22274656157
 10
1713.47398967453
 20
3163.14264849766
 10
1713.4996788645
 20
3161.54006961908
 10
1713.4996788645
 20
3161.45993038092
 10
1713.47398967453
 20
3159.85735150234
 10
1713.47142108553
 20
3159.77725343843
 10
1713.39437991301
 20
3158.17632131798
 10
1713.38924537439
 20
3158.09634673449
 10
1713.26093138433
 20
3156.49870643814
 10
1713.25323617219
 20
3156.41893751436
 10
1713.0737812159
 20
3154.82623072552
 10
1713.06353323758
 20
3154.7467494294
 10
1712.83312171714
 20
3153.16061276196
 10
1712.82033150314
 20
3153.08150076592
 10
1712.53920018197
 20
3151.50356408252
 10
1712.52388087511
 20
3151.42490267948
 10
1712.19231863464
 20
3149.85678741673
 10
1712.17448597652
 20
3149.7786574366
 10
1711.79283351938
 20
3148.22197493894
 10
1711.77250583427
 20
3148.14445666555
 10
1711.34115533416
 20
3146.60080652947
 10
1711.31835351013
 20
3146.52397961809
 10
1710.83774820883
 20
3144.99494804846
 10
1710.8124956763
 20
3144.91889144393
 10
1710.28312942826
 20
3143.40604962405
 10
1710.25545213591
 20
3143.33084147967
 10
1709.67786890073
 20
3141.83574395677
 10
1709.64779528885
 20
3141.76146155401
 10
1709.02258857234
 20
3140.28564464186
 10
1708.99014954361
 20
3140.21236431089
 10
1708.31796178794
 20
3138.75734451114
 10
1708.28319067564
 20
3138.68514155246
 10
1707.56471259917
 20
3137.2524139963
 10
1707.52764513297
 20
3137.18136260334
 10
1706.76361502049
 20
3135.77239951519
 10
1706.72428928973
 20
3135.70257269805
 10
1705.91549223383
 20
3134.31882188272
 10
1705.87394864834
 20
3134.25029139319
 10
1705.02121574266
 20
3132.89317474818
 10
1704.9774969913
 20
3132.82601100595
 10
1704.08170447655
 20
3131.49692306037
 10
1704.03585548327
 20
3131.43119508074
 10
1703.09792384683
 20
3130.13150156229
 10
1703.04999172458
 20
3130.06727688519
 10
1702.07088475458
 20
3128.79831331681
 10
1702.02091875687
 20
3128.73565793744
 10
1701.00164255192
 20
3127.49872826499
 10
1700.94969402218
 20
3127.43770656599
 10
1699.89129595749
 20
3126.23408181832
 10
1699.83741827633
 20
3126.17475650361
 10
1698.74098592745
 20
3125.0056734865
 10
1698.68523445785
 20
3124.94810551686
 10
1697.55189448314
 20
3123.81476554215
 10
1697.4943265135
 20
3123.75901407255
 10
1696.32524349639
 20
3122.66258172367
 10
1696.26591818168
 20
3122.60870404251
 10
1695.06229343401
 20
3121.55030597782
 10
1695.00127173501
 20
3121.49835744807
 10
1693.76434206256
 20
3120.47908124313
 10
1693.70168668319
 20
3120.42911524542
 10
1692.43272311481
 20
3119.45000827542
 10
1692.36849843771
 20
3119.40207615317
 10
1691.06880491926
 20
3118.46414451673
 10
1691.00307693963
 20
3118.41829552345
 10
1689.67398899405
 20
3117.5225030087
 10
1689.60682525182
 20
3117.47878425734
 10
1688.24970860681
 20
3116.62605135166
 10
1688.18117811728
 20
3116.58450776617
 10
1686.79742730195
 20
3115.77571071027
 10
1686.72760048481
 20
3115.73638497951
 10
1685.31863739666
 20
3114.97235486703
 10
1685.2475860037
 20
3114.93528740083
 10
1683.81485844754
 20
3114.21680932436
 10
1683.74265548886
 20
3114.18203821206
 10
1682.28763568911
 20
3113.50985045639
 10
1682.21435535814
 20
3113.47741142766
 10
1680.73853844599
 20
3112.85220471115
 10
1680.66425604323
 20
3112.82213109927
 10
1679.16915852033
 20
3112.24454786409
 10
1679.09395037595
 20
3112.21687057174
 10
1677.58110855607
 20
3111.6875043237
 10
1677.50505195154
 20
3111.66225179117
 10
1675.97602038191
 20
3111.18164648987
 10
1675.89919347053
 20
3111.15884466584
 10
1674.35554333445
 20
3110.72749416573
 10
1674.27802506106
 20
3110.70716648062
 10
1672.7213425634
 20
3110.32551402348
 10
1672.64321258327
 20
3110.30768136536
 10
1671.07509732052
 20
3109.97611912489
 10
1670.99643591748
 20
3109.96079981802
 10
1669.41849923408
 20
3109.67966849686
 10
1669.33938723804
 20
3109.66687828286
 10
1667.7532505706
 20
3109.43646676242
 10
1667.67376927448
 20
3109.42621878411
 10
1666.08106248564
 20
3109.24676382781
 10
1666.00129356186
 20
3109.23906861567
 10
1664.40365326551
 20
3109.11075462561
 10
1664.32367868202
 20
3109.10562008699
 10
1662.72274656157
 20
3109.02857891447
 10
1662.64264849766
 20
3109.02601032547
 10
1661.04006961908
 20
3109.0003211355
 10
1661
 20
3109
 10
1461.04007476685
 20
3109
 10
1457.95674688882
 20
3108.90112367629
 10
1454.92599915745
 20
3108.60875108765
 10
1451.92021079842
 20
3108.122798536
 10
1448.95173324082
 20
3107.4452629046
 10
1446.03276459568
 20
3106.5789283327
 10
1443.17529953128
 20
3105.52735477488
 10
1440.39107998449
 20
3104.29486337246
 10
1437.69154691064
 20
3102.88651869697
 10
1435.08779327019
 20
3101.30810793877
 10
1432.59051844534
 20
3099.56611712624
 10
1430.20998427401
 20
3097.66770447328
 10
1427.95597288174
 20
3095.62067096469
 10
1425.83774648481
 20
3093.43342830025
 10
1423.86400932986
 20
3091.11496432922
 10
1422.04287192622
 20
3088.67480611737
 10
1420.38181771812
 20
3086.12298079821
 10
1418.88767233358
 20
3083.46997436934
 10
1417.56657553649
 20
3080.72668860324
 10
1416.42395599696
 20
3077.90439624955
 10
1415.46450898377
 20
3075.01469471295
 10
1414.6921770705
 20
3072.06945839687
 10
1414.11013393464
 20
3069.08078990911
 10
1413.72077131629
 20
3066.06097032953
 10
1413.52568918997
 20
3063.02240874454
 10
1413.52568918997
 20
3059.97759125546
 10
1413.72077131629
 20
3056.93902967047
 10
1414.11013393464
 20
3053.91921009089
 10
1414.6921770705
 20
3050.93054160313
 10
1415.46450898377
 20
3047.98530528705
 10
1416.42395599696
 20
3045.09560375045
 10
1417.56657553649
 20
3042.27331139676
 10
1418.88767233358
 20
3039.53002563066
 10
1420.38181771812
 20
3036.87701920179
 10
1422.04287192623
 20
3034.32519388263
 10
1423.86400932986
 20
3031.88503567078
 10
1425.83774648481
 20
3029.56657169975
 10
1427.95597288173
 20
3027.37932903531
 10
1430.20998427401
 20
3025.33229552672
 10
1432.59051844534
 20
3023.43388287376
 10
1435.08779327019
 20
3021.69189206123
 10
1437.69154691064
 20
3020.11348130303
 10
1440.39107998449
 20
3018.70513662754
 10
1443.17529953128
 20
3017.47264522512
 10
1446.03276459568
 20
3016.4210716673
 10
1448.95173324082
 20
3015.5547370954
 10
1451.92021079842
 20
3014.877201464
 10
1454.92599915746
 20
3014.39124891235
 10
1457.95674688882
 20
3014.09887632371
 10
1461.04007476685
 20
3014
 10
1681
 20
3014
 10
1681.08012894393
 20
3013.9987155405
 10
1684.28363994297
 20
3013.89598517802
 10
1684.4435685638
 20
3013.88571741989
 10
1687.63391564899
 20
3013.57794847354
 10
1687.79285782181
 20
3013.5574551497
 10
1690.95693117265
 20
3013.04591230809
 10
1691.11423376996
 20
3013.01527763001
 10
1694.23903153037
 20
3012.30206293241
 10
1694.39404816205
 20
3012.26141278454
 10
1697.46672986776
 20
3011.34945698313
 10
1697.61882353723
 20
3011.29895840566
 10
1700.62676288002
 20
3010.19200892243
 10
1700.77530860177
 20
3010.13186942484
 10
1703.70614531368
 20
3008.83447495266
 10
1703.85053268148
 20
3008.76494166105
 10
1706.6922233258
 20
3007.2824334721
 10
1706.83185902097
 20
3007.20379211368
 10
1709.5727264813
 20
3005.54226215211
 10
1709.70703671083
 20
3005.45483588108
 10
1712.33581817487
 20
3003.62111172989
 10
1712.46425102921
 20
3003.52525979957
 10
1714.97014427004
 20
3001.52687662463
 10
1715.09217199104
 20
3001.42299291115
 10
1717.46487975583
 20
2999.26816249757
 10
1717.58000090542
 20
2999.1566738814
 10
1719.80977322901
 20
2996.85425088957
 10
1719.91751474969
 20
2996.73561550134
 10
1721.99518901932
 20
2994.29506108121
 10
1722.09510817807
 20
2994.16976641916
 10
1724.01214678452
 20
2991.60110933234
 10
1724.10383299208
 20
2991.46967025914
 10
1725.8523584125
 20
2988.78346566855
 10
1725.93543491058
 20
2988.64642229554
 10
1727.50826207896
 20
2985.85370839205
 10
1727.58238748841
 20
2985.71162385984
 10
1728.97305332055
 20
2982.82387650391
 10
1729.03792304416
 20
2982.67733466832
 10
1730.24071299585
 20
2979.70642023326
 10
1730.29606047001
 20
2979.55602326612
 10
1731.30603201936
 20
2976.51414987661
 10
1731.35162980943
 20
2976.36051579133
 10
1732.16463276669
 20
2973.26018315759
 10
1732.20029350157
 20
2973.10394326957
 10
1732.8129870632
 20
2969.95789132342
 10
1732.83856420528
 20
2969.79968765588
 10
1733.24843068202
 20
2966.6208441996
 10
1733.26381912934
 20
2966.46132684534
 10
1733.46917429191
 20
2963.26275442853
 10
1733.47431081003
 20
2963.10257887858
 10
1733.47431081003
 20
2959.89742112142
 10
1733.46917429191
 20
2959.73724557147
 10
1733.26381912934
 20
2956.53867315466
 10
1733.24843068202
 20
2956.3791558004
 10
1732.83856420528
 20
2953.20031234412
 10
1732.8129870632
 20
2953.04210867658
 10
1732.20029350157
 20
2949.89605673043
 10
1732.16463276669
 20
2949.73981684241
 10
1731.35162980943
 20
2946.63948420867
 10
1731.30603201936
 20
2946.48585012339
 10
1730.29606047001
 20
2943.44397673388
 10
1730.24071299585
 20
2943.29357976674
 10
1729.03792304416
 20
2940.32266533168
 10
1728.97305332055
 20
2940.17612349609
 10
1727.58238748841
 20
2937.28837614016
 10
1727.50826207896
 20
2937.14629160795
 10
1725.93543491058
 20
2934.35357770446
 10
1725.8523584125
 20
2934.21653433145
 10
1724.10383299208
 20
2931.53032974087
 10
1724.01214678452
 20
2931.39889066766
 10
1722.09510817807
 20
2928.83023358084
 10
1721.99518901932
 20
2928.70493891879
 10
1719.91751474969
 20
2926.26438449866
 10
1719.80977322901
 20
2926.14574911043
 10
1717.58000090542
 20
2923.8433261186
 10
1717.46487975583
 20
2923.73183750243
 10
1715.09217199104
 20
2921.57700708885
 10
1714.97014427004
 20
2921.47312337537
 10
1712.46425102921
 20
2919.47474020043
 10
1712.33581817487
 20
2919.37888827011
 10
1709.70703671083
 20
2917.54516411892
 10
1709.5727264813
 20
2917.45773784789
 10
1706.83185902097
 20
2915.79620788632
 10
1706.6922233258
 20
2915.7175665279
 10
1703.85053268148
 20
2914.23505833895
 10
1703.70614531368
 20
2914.16552504734
 10
1700.77530860177
 20
2912.86813057516
 10
1700.62676288002
 20
2912.80799107757
 10
1697.61882353723
 20
2911.70104159434
 10
1697.46672986776
 20
2911.65054301688
 10
1694.39404816205
 20
2910.73858721546
 10
1694.23903153037
 20
2910.69793706759
 10
1691.11423376996
 20
2909.98472236999
 10
1690.95693117265
 20
2909.95408769191
 10
1687.79285782181
 20
2909.4425448503
 10
1687.63391564899
 20
2909.42205152646
 10
1684.4435685638
 20
2909.11428258011
 10
1684.28363994297
 20
2909.10401482198
 10
1681.08012894393
 20
2909.0012844595
 10
1681
 20
2909
 10
1461.04007476685
 20
2909
 10
1457.95674688882
 20
2908.90112367629
 10
1454.92599915746
 20
2908.60875108765
 10
1451.92021079842
 20
2908.122798536
 10
1448.95173324082
 20
2907.4452629046
 10
1446.03276459568
 20
2906.5789283327
 10
1443.17529953128
 20
2905.52735477488
 10
1440.39107998449
 20
2904.29486337246
 10
1437.69154691064
 20
2902.88651869697
 10
1435.08779327019
 20
2901.30810793877
 10
1432.59051844534
 20
2899.56611712624
 10
1430.20998427401
 20
2897.66770447328
 10
1427.95597288173
 20
2895.62067096469
 10
1425.83774648481
 20
2893.43342830025
 10
1423.86400932986
 20
2891.11496432922
 10
1422.04287192623
 20
2888.67480611737
 10
1420.38181771812
 20
2886.12298079821
 10
1418.88767233358
 20
2883.46997436934
 10
1417.56657553649
 20
2880.72668860324
 10
1416.42395599696
 20
2877.90439624955
 10
1415.46450898377
 20
2875.01469471295
 10
1414.6921770705
 20
2872.06945839687
 10
1414.11013393464
 20
2869.08078990911
 10
1413.72077131629
 20
2866.06097032953
 10
1413.52568918997
 20
2863.02240874454
 10
1413.52568918997
 20
2859.97759125546
 10
1413.72077131629
 20
2856.93902967047
 10
1414.11013393464
 20
2853.91921009089
 10
1414.6921770705
 20
2850.93054160313
 10
1415.46450898377
 20
2847.98530528705
 10
1416.42395599696
 20
2845.09560375045
 10
1417.56657553649
 20
2842.27331139676
 10
1418.88767233358
 20
2839.53002563066
 10
1420.38181771812
 20
2836.87701920179
 10
1422.04287192623
 20
2834.32519388263
 10
1423.86400932986
 20
2831.88503567078
 10
1425.83774648481
 20
2829.56657169975
 10
1427.95597288173
 20
2827.37932903531
 10
1430.20998427401
 20
2825.33229552672
 10
1432.59051844534
 20
2823.43388287376
 10
1435.08779327019
 20
2821.69189206123
 10
1437.69154691064
 20
2820.11348130303
 10
1440.39107998449
 20
2818.70513662754
 10
1443.17529953128
 20
2817.47264522512
 10
1446.03276459568
 20
2816.4210716673
 10
1448.95173324082
 20
2815.5547370954
 10
1451.92021079842
 20
2814.877201464
 10
1454.92599915746
 20
2814.39124891235
 10
1457.95674688882
 20
2814.09887632371
 10
1461.04007476685
 20
2814
 10
1681
 20
2814
 10
1681.08012894393
 20
2813.9987155405
 10
1684.28363994297
 20
2813.89598517802
 10
1684.4435685638
 20
2813.88571741989
 10
1687.63391564899
 20
2813.57794847354
 10
1687.79285782181
 20
2813.5574551497
 10
1690.95693117265
 20
2813.04591230809
 10
1691.11423376996
 20
2813.01527763001
 10
1694.23903153037
 20
2812.30206293241
 10
1694.39404816205
 20
2812.26141278454
 10
1697.46672986776
 20
2811.34945698313
 10
1697.61882353723
 20
2811.29895840566
 10
1700.62676288002
 20
2810.19200892243
 10
1700.77530860177
 20
2810.13186942484
 10
1703.70614531368
 20
2808.83447495266
 10
1703.85053268148
 20
2808.76494166105
 10
1706.6922233258
 20
2807.2824334721
 10
1706.83185902097
 20
2807.20379211368
 10
1709.5727264813
 20
2805.54226215211
 10
1709.70703671083
 20
2805.45483588108
 10
1712.33581817487
 20
2803.62111172989
 10
1712.46425102921
 20
2803.52525979957
 10
1714.97014427004
 20
2801.52687662463
 10
1715.09217199104
 20
2801.42299291115
 10
1717.46487975583
 20
2799.26816249757
 10
1717.58000090542
 20
2799.1566738814
 10
1719.80977322901
 20
2796.85425088957
 10
1719.91751474969
 20
2796.73561550134
 10
1721.99518901932
 20
2794.29506108121
 10
1722.09510817807
 20
2794.16976641916
 10
1724.01214678452
 20
2791.60110933234
 10
1724.10383299208
 20
2791.46967025914
 10
1725.8523584125
 20
2788.78346566855
 10
1725.93543491058
 20
2788.64642229554
 10
1727.50826207896
 20
2785.85370839205
 10
1727.58238748841
 20
2785.71162385984
 10
1728.97305332055
 20
2782.82387650391
 10
1729.03792304416
 20
2782.67733466832
 10
1730.24071299585
 20
2779.70642023326
 10
1730.29606047001
 20
2779.55602326612
 10
1731.30603201936
 20
2776.51414987661
 10
1731.35162980943
 20
2776.36051579133
 10
1732.16463276669
 20
2773.26018315759
 10
1732.20029350157
 20
2773.10394326957
 10
1732.8129870632
 20
2769.95789132342
 10
1732.83856420528
 20
2769.79968765588
 10
1733.24843068202
 20
2766.6208441996
 10
1733.26381912934
 20
2766.46132684534
 10
1733.46917429191
 20
2763.26275442853
 10
1733.47431081003
 20
2763.10257887858
 10
1733.47431081003
 20
2759.89742112142
 10
1733.46917429191
 20
2759.73724557147
 10
1733.26381912934
 20
2756.53867315466
 10
1733.24843068202
 20
2756.3791558004
 10
1732.83856420528
 20
2753.20031234412
 10
1732.8129870632
 20
2753.04210867658
 10
1732.20029350157
 20
2749.89605673043
 10
1732.16463276669
 20
2749.73981684241
 10
1731.35162980943
 20
2746.63948420867
 10
1731.30603201936
 20
2746.48585012339
 10
1730.29606047001
 20
2743.44397673388
 10
1730.24071299585
 20
2743.29357976674
 10
1729.03792304416
 20
2740.32266533168
 10
1728.97305332055
 20
2740.17612349609
 10
1727.58238748841
 20
2737.28837614016
 10
1727.50826207896
 20
2737.14629160795
 10
1725.93543491058
 20
2734.35357770446
 10
1725.8523584125
 20
2734.21653433145
 10
1724.10383299208
 20
2731.53032974087
 10
1724.01214678452
 20
2731.39889066766
 10
1722.09510817807
 20
2728.83023358084
 10
1721.99518901932
 20
2728.70493891879
 10
1719.91751474969
 20
2726.26438449866
 10
1719.80977322901
 20
2726.14574911043
 10
1717.58000090542
 20
2723.8433261186
 10
1717.46487975583
 20
2723.73183750243
 10
1715.09217199104
 20
2721.57700708885
 10
1714.97014427004
 20
2721.47312337537
 10
1712.46425102921
 20
2719.47474020043
 10
1712.33581817487
 20
2719.37888827011
 10
1709.70703671083
 20
2717.54516411892
 10
1709.5727264813
 20
2717.45773784789
 10
1706.83185902097
 20
2715.79620788632
 10
1706.6922233258
 20
2715.7175665279
 10
1703.85053268148
 20
2714.23505833895
 10
1703.70614531368
 20
2714.16552504734
 10
1700.77530860177
 20
2712.86813057516
 10
1700.62676288002
 20
2712.80799107757
 10
1697.61882353723
 20
2711.70104159434
 10
1697.46672986776
 20
2711.65054301688
 10
1694.39404816205
 20
2710.73858721546
 10
1694.23903153037
 20
2710.69793706759
 10
1691.11423376996
 20
2709.98472236999
 10
1690.95693117265
 20
2709.95408769191
 10
1687.79285782181
 20
2709.4425448503
 10
1687.63391564899
 20
2709.42205152646
 10
1684.4435685638
 20
2709.11428258011
 10
1684.28363994297
 20
2709.10401482198
 10
1681.08012894393
 20
2709.0012844595
 10
1681
 20
2709
 10
1461.04007476685
 20
2709
 10
1457.95674688882
 20
2708.90112367629
 10
1454.92599915746
 20
2708.60875108765
 10
1451.92021079842
 20
2708.122798536
 10
1448.95173324082
 20
2707.4452629046
 10
1446.03276459568
 20
2706.5789283327
 10
1443.17529953128
 20
2705.52735477488
 10
1440.39107998449
 20
2704.29486337246
 10
1437.69154691064
 20
2702.88651869697
 10
1435.08779327019
 20
2701.30810793877
 10
1432.59051844534
 20
2699.56611712624
 10
1430.20998427401
 20
2697.66770447328
 10
1427.95597288173
 20
2695.62067096469
 10
1425.83774648481
 20
2693.43342830025
 10
1423.86400932986
 20
2691.11496432922
 10
1422.04287192623
 20
2688.67480611737
 10
1420.38181771812
 20
2686.12298079821
 10
1418.88767233358
 20
2683.46997436934
 10
1417.56657553649
 20
2680.72668860324
 10
1416.42395599696
 20
2677.90439624955
 10
1415.46450898377
 20
2675.01469471295
 10
1414.6921770705
 20
2672.06945839687
 10
1414.11013393464
 20
2669.08078990911
 10
1413.72077131629
 20
2666.06097032953
 10
1413.52568918997
 20
2663.02240874454
 10
1413.52568918997
 20
2659.97759125546
 10
1413.72077131629
 20
2656.93902967047
 10
1414.11013393464
 20
2653.91921009089
 10
1414.6921770705
 20
2650.93054160313
 10
1415.46450898377
 20
2647.98530528705
 10
1416.42395599696
 20
2645.09560375045
 10
1417.56657553649
 20
2642.27331139676
 10
1418.88767233358
 20
2639.53002563066
 10
1420.38181771812
 20
2636.87701920179
 10
1422.04287192623
 20
2634.32519388263
 10
1423.86400932986
 20
2631.88503567078
 10
1425.83774648481
 20
2629.56657169975
 10
1427.95597288173
 20
2627.37932903531
 10
1430.20998427401
 20
2625.33229552672
 10
1432.59051844534
 20
2623.43388287376
 10
1435.08779327019
 20
2621.69189206123
 10
1437.69154691064
 20
2620.11348130303
 10
1440.39107998449
 20
2618.70513662754
 10
1443.17529953128
 20
2617.47264522512
 10
1446.03276459568
 20
2616.4210716673
 10
1448.95173324082
 20
2615.5547370954
 10
1451.92021079842
 20
2614.877201464
 10
1454.92599915746
 20
2614.39124891235
 10
1457.95674688882
 20
2614.09887632371
 10
1461.04007476685
 20
2614
 10
1681
 20
2614
 10
1681.08012894393
 20
2613.9987155405
 10
1684.28363994297
 20
2613.89598517802
 10
1684.4435685638
 20
2613.88571741989
 10
1687.63391564899
 20
2613.57794847354
 10
1687.79285782181
 20
2613.5574551497
 10
1690.95693117265
 20
2613.04591230809
 10
1691.11423376996
 20
2613.01527763001
 10
1694.23903153037
 20
2612.30206293241
 10
1694.39404816205
 20
2612.26141278454
 10
1697.46672986776
 20
2611.34945698313
 10
1697.61882353723
 20
2611.29895840566
 10
1700.62676288002
 20
2610.19200892243
 10
1700.77530860177
 20
2610.13186942484
 10
1703.70614531368
 20
2608.83447495266
 10
1703.85053268148
 20
2608.76494166105
 10
1706.6922233258
 20
2607.2824334721
 10
1706.83185902097
 20
2607.20379211368
 10
1709.5727264813
 20
2605.54226215211
 10
1709.70703671083
 20
2605.45483588108
 10
1712.33581817487
 20
2603.62111172989
 10
1712.46425102921
 20
2603.52525979957
 10
1714.97014427004
 20
2601.52687662463
 10
1715.09217199104
 20
2601.42299291115
 10
1717.46487975583
 20
2599.26816249757
 10
1717.58000090542
 20
2599.1566738814
 10
1719.80977322901
 20
2596.85425088957
 10
1719.91751474969
 20
2596.73561550134
 10
1721.99518901932
 20
2594.29506108121
 10
1722.09510817807
 20
2594.16976641916
 10
1724.01214678452
 20
2591.60110933234
 10
1724.10383299208
 20
2591.46967025914
 10
1725.8523584125
 20
2588.78346566855
 10
1725.93543491058
 20
2588.64642229554
 10
1727.50826207896
 20
2585.85370839205
 10
1727.58238748841
 20
2585.71162385984
 10
1728.97305332055
 20
2582.82387650391
 10
1729.03792304416
 20
2582.67733466832
 10
1730.24071299585
 20
2579.70642023326
 10
1730.29606047001
 20
2579.55602326612
 10
1731.30603201936
 20
2576.51414987661
 10
1731.35162980943
 20
2576.36051579133
 10
1732.16463276669
 20
2573.26018315759
 10
1732.20029350157
 20
2573.10394326957
 10
1732.8129870632
 20
2569.95789132342
 10
1732.83856420528
 20
2569.79968765588
 10
1733.24843068202
 20
2566.6208441996
 10
1733.26381912934
 20
2566.46132684534
 10
1733.46917429191
 20
2563.26275442853
 10
1733.47431081003
 20
2563.10257887858
 10
1733.47431081003
 20
2559.89742112142
 10
1733.46917429191
 20
2559.73724557147
 10
1733.26381912934
 20
2556.53867315466
 10
1733.24843068202
 20
2556.3791558004
 10
1732.83856420528
 20
2553.20031234412
 10
1732.8129870632
 20
2553.04210867658
 10
1732.20029350157
 20
2549.89605673043
 10
1732.16463276669
 20
2549.73981684241
 10
1731.35162980943
 20
2546.63948420867
 10
1731.30603201936
 20
2546.48585012339
 10
1730.29606047001
 20
2543.44397673388
 10
1730.24071299585
 20
2543.29357976674
 10
1729.03792304416
 20
2540.32266533168
 10
1728.97305332055
 20
2540.17612349609
 10
1727.58238748841
 20
2537.28837614016
 10
1727.50826207896
 20
2537.14629160795
 10
1725.93543491058
 20
2534.35357770446
 10
1725.8523584125
 20
2534.21653433145
 10
1724.10383299208
 20
2531.53032974087
 10
1724.01214678452
 20
2531.39889066766
 10
1722.09510817807
 20
2528.83023358084
 10
1721.99518901932
 20
2528.70493891879
 10
1719.91751474969
 20
2526.26438449866
 10
1719.80977322901
 20
2526.14574911043
 10
1717.58000090542
 20
2523.8433261186
 10
1717.46487975583
 20
2523.73183750243
 10
1715.09217199104
 20
2521.57700708885
 10
1714.97014427004
 20
2521.47312337537
 10
1712.46425102921
 20
2519.47474020043
 10
1712.33581817487
 20
2519.37888827011
 10
1709.70703671083
 20
2517.54516411892
 10
1709.5727264813
 20
2517.45773784789
 10
1706.83185902097
 20
2515.79620788632
 10
1706.6922233258
 20
2515.7175665279
 10
1703.85053268148
 20
2514.23505833895
 10
1703.70614531368
 20
2514.16552504734
 10
1700.77530860177
 20
2512.86813057516
 10
1700.62676288002
 20
2512.80799107757
 10
1697.61882353723
 20
2511.70104159434
 10
1697.46672986776
 20
2511.65054301688
 10
1694.39404816205
 20
2510.73858721546
 10
1694.23903153037
 20
2510.69793706759
 10
1691.11423376996
 20
2509.98472236999
 10
1690.95693117265
 20
2509.95408769191
 10
1687.79285782181
 20
2509.4425448503
 10
1687.63391564899
 20
2509.42205152646
 10
1684.44356856381
 20
2509.11428258011
 10
1684.28363994297
 20
2509.10401482198
 10
1681.08012894393
 20
2509.0012844595
 10
1681
 20
2509
 10
1461.04007476685
 20
2509
 10
1457.95674688882
 20
2508.90112367629
 10
1454.92599915746
 20
2508.60875108765
 10
1451.92021079842
 20
2508.122798536
 10
1448.95173324082
 20
2507.4452629046
 10
1446.03276459568
 20
2506.5789283327
 10
1443.17529953128
 20
2505.52735477488
 10
1440.39107998449
 20
2504.29486337246
 10
1437.69154691064
 20
2502.88651869697
 10
1435.08779327019
 20
2501.30810793877
 10
1432.59051844534
 20
2499.56611712624
 10
1430.20998427401
 20
2497.66770447328
 10
1427.95597288173
 20
2495.62067096469
 10
1425.83774648481
 20
2493.43342830025
 10
1423.86400932987
 20
2491.11496432922
 10
1422.04287192623
 20
2488.67480611737
 10
1420.38181771812
 20
2486.12298079821
 10
1418.88767233358
 20
2483.46997436934
 10
1417.56657553649
 20
2480.72668860324
 10
1416.42395599696
 20
2477.90439624955
 10
1415.46450898377
 20
2475.01469471295
 10
1414.6921770705
 20
2472.06945839687
 10
1414.11013393464
 20
2469.08078990911
 10
1413.72077131629
 20
2466.06097032953
 10
1413.52568918997
 20
2463.02240874454
 10
1413.52568918997
 20
2459.97759125546
 10
1413.72077131629
 20
2456.93902967047
 10
1414.11013393464
 20
2453.91921009089
 10
1414.6921770705
 20
2450.93054160313
 10
1415.46450898377
 20
2447.98530528705
 10
1416.42395599696
 20
2445.09560375045
 10
1417.56657553649
 20
2442.27331139676
 10
1418.88767233358
 20
2439.53002563066
 10
1420.38181771812
 20
2436.87701920179
 10
1422.04287192623
 20
2434.32519388263
 10
1423.86400932987
 20
2431.88503567078
 10
1425.83774648481
 20
2429.56657169975
 10
1427.95597288173
 20
2427.37932903531
 10
1430.20998427401
 20
2425.33229552672
 10
1432.59051844534
 20
2423.43388287376
 10
1435.08779327019
 20
2421.69189206123
 10
1437.69154691064
 20
2420.11348130303
 10
1440.39107998449
 20
2418.70513662754
 10
1443.17529953128
 20
2417.47264522512
 10
1446.03276459568
 20
2416.4210716673
 10
1448.95173324082
 20
2415.5547370954
 10
1451.92021079842
 20
2414.877201464
 10
1454.92599915746
 20
2414.39124891235
 10
1457.93677773563
 20
2414.10080272391
 10
1459.43913749862
 20
2414.07672003702
 10
1459.51923556253
 20
2414.07415144801
 10
1461.12016768298
 20
2413.99711027549
 10
1461.20014226648
 20
2413.99197573687
 10
1462.79778256282
 20
2413.86366174682
 10
1462.87755148661
 20
2413.85596653468
 10
1464.47025827545
 20
2413.67651157838
 10
1464.54973957156
 20
2413.66626360006
 10
1466.135876239
 20
2413.43585207962
 10
1466.21498823504
 20
2413.42306186563
 10
1467.79292491844
 20
2413.14193054446
 10
1467.87158632149
 20
2413.12661123759
 10
1469.43970158423
 20
2412.79504899713
 10
1469.51783156437
 20
2412.77721633901
 10
1471.07451406203
 20
2412.39556388187
 10
1471.15203233542
 20
2412.37523619676
 10
1472.69568247149
 20
2411.94388569664
 10
1472.77250938288
 20
2411.92108387261
 10
1474.30154095251
 20
2411.44047857132
 10
1474.37759755703
 20
2411.41522603879
 10
1475.89043937692
 20
2410.88585979074
 10
1475.96564752129
 20
2410.8581824984
 10
1477.46074504419
 20
2410.28059926321
 10
1477.53502744696
 20
2410.25052565134
 10
1479.01084435911
 20
2409.62531893483
 10
1479.08412469007
 20
2409.59287990609
 10
1480.53914448983
 20
2408.92069215042
 10
1480.6113474485
 20
2408.88592103812
 10
1482.04407500466
 20
2408.16744296165
 10
1482.11512639762
 20
2408.13037549546
 10
1483.52408948578
 20
2407.36634538298
 10
1483.59391630291
 20
2407.32701965221
 10
1484.97766711824
 20
2406.51822259631
 10
1485.04619760778
 20
2406.47667901082
 10
1486.40331425278
 20
2405.62394610515
 10
1486.47047799501
 20
2405.58022735378
 10
1487.79956594059
 20
2404.68443483903
 10
1487.86529392023
 20
2404.63858584576
 10
1489.16498743868
 20
2403.70065420931
 10
1489.22921211578
 20
2403.65272208706
 10
1490.49817568416
 20
2402.67361511707
 10
1490.56083106352
 20
2402.62364911935
 10
1491.79776073598
 20
2401.60437291441
 10
1491.85878243497
 20
2401.55242438466
 10
1493.06240718265
 20
2400.49402631997
 10
1493.12173249735
 20
2400.44014863882
 10
1494.29081551446
 20
2399.34371628994
 10
1494.3483834841
 20
2399.28796482034
 10
1495.48172345882
 20
2398.15462484562
 10
1495.53747492842
 20
2398.09705687598
 10
1496.6339072773
 20
2396.92797385887
 10
1496.68778495845
 20
2396.86864854417
 10
1497.74618302314
 20
2395.66502379649
 10
1497.79813155289
 20
2395.60400209749
 10
1498.81740775783
 20
2394.36707242504
 10
1498.86737375555
 20
2394.30441704567
 10
1499.84648072555
 20
2393.0354534773
 10
1499.89441284779
 20
2392.9712288002
 10
1500.83234448424
 20
2391.67153528175
 10
1500.87819347752
 20
2391.60580730211
 10
1501.77398599226
 20
2390.27671935653
 10
1501.81770474363
 20
2390.2095556143
 10
1502.6704376493
 20
2388.8524389693
 10
1502.71198123479
 20
2388.78390847976
 10
1503.52077829069
 20
2387.40015766443
 10
1503.56010402146
 20
2387.3303308473
 10
1504.32413413394
 20
2385.92136775914
 10
1504.36120160013
 20
2385.85031636618
 10
1505.0796796766
 20
2384.41758881002
 10
1505.1144507889
 20
2384.34538585135
 10
1505.78663854457
 20
2382.89036605159
 10
1505.81907757331
 20
2382.81708572063
 10
1506.44428428982
 20
2381.34126880847
 10
1506.47435790169
 20
2381.26698640571
 10
1507.05194113688
 20
2379.77188888281
 10
1507.07961842922
 20
2379.69668073844
 10
1507.60898467727
 20
2378.18383891855
 10
1507.6342372098
 20
2378.10778231402
 10
1508.1148425111
 20
2376.57875074439
 10
1508.13764433512
 20
2376.50192383301
 10
1508.56899483524
 20
2374.95827369694
 10
1508.58932252035
 20
2374.88075542355
 10
1508.97097497749
 20
2373.32407292589
 10
1508.98880763561
 20
2373.24594294575
 10
1509.32036987607
 20
2371.677827683
 10
1509.33568918294
 20
2371.59916627996
 10
1509.61682050411
 20
2370.02122959656
 10
1509.62961071811
 20
2369.94211760052
 10
1509.86002223855
 20
2368.35598093308
 10
1509.87027021686
 20
2368.27649963697
 10
1510.04972517316
 20
2366.68379284813
 10
1510.0574203853
 20
2366.60402392434
 10
1510.18573437536
 20
2365.00638362799
 10
1510.19086891397
 20
2364.9264090445
 10
1510.26791008649
 20
2363.32547692405
 10
1510.2704786755
 20
2363.24537886014
 10
1510.29616786546
 20
2361.64279998156
 10
1510.29648900096
 20
2361.60273036248
 10
1510.29648900096
 20
2300.44895025238
 10
1512.54648900096
 20
2300.44895025238
 10
1512.54648900096
 20
2361.60273036248
 10
1512.54587884351
 20
2361.67886263873
 10
1512.52018965355
 20
2363.28144151731
 10
1512.51530933443
 20
2363.43362783874
 10
1512.43826816192
 20
2365.03455995919
 10
1512.42851253854
 20
2365.18651166782
 10
1512.30019854849
 20
2366.78415196417
 10
1512.28557764542
 20
2366.93571291936
 10
1512.10612268912
 20
2368.5284197082
 10
1512.08665153032
 20
2368.67943417081
 10
1511.85624000988
 20
2370.26557083826
 10
1511.83193860329
 20
2370.41588363073
 10
1511.55080728212
 20
2371.99382031413
 10
1511.52170059907
 20
2372.14327697991
 10
1511.1901383586
 20
2373.71139224266
 10
1511.15625630818
 20
2373.85983920491
 10
1510.77460385104
 20
2375.41652170257
 10
1510.73598124933
 20
2375.56380642202
 10
1510.30463074921
 20
2377.10745655809
 10
1510.26130728356
 20
2377.25342768972
 10
1509.78070198226
 20
2378.78245925935
 10
1509.73272217046
 20
2378.92696680795
 10
1509.20335592242
 20
2380.43980862784
 10
1509.15076906696
 20
2380.58270410214
 10
1508.57318583177
 20
2382.07780162505
 10
1508.51604596921
 20
2382.21893819029
 10
1507.8908392527
 20
2383.69475510245
 10
1507.82920509811
 20
2383.83398773128
 10
1507.15701734244
 20
2385.28900753104
 10
1507.09095222907
 20
2385.42619315251
 10
1506.3724741526
 20
2386.85892070868
 10
1506.30204596683
 20
2386.9939183553
 10
1505.53801585435
 20
2388.40288144345
 10
1505.46329696589
 20
2388.53555239601
 10
1504.65449990999
 20
2389.91930321134
 10
1504.57556709757
 20
2390.04951114146
 10
1503.72283419189
 20
2391.40662778646
 10
1503.63976856429
 20
2391.53423889669
 10
1502.74397604955
 20
2392.86332684228
 10
1502.65686296232
 20
2392.98821000358
 10
1501.71893132587
 20
2394.28790352204
 10
1501.62786029361
 20
2394.40993040853
 10
1500.64875332362
 20
2395.6788939769
 10
1500.55381792795
 20
2395.7979391977
 10
1499.53454172301
 20
2397.03486887015
 10
1499.43583951649
 20
2397.15081009825
 10
1498.3774414518
 20
2398.35443484592
 10
1498.27507385761
 20
2398.46715294386
 10
1497.17864150873
 20
2399.63623596097
 10
1497.07271371649
 20
2399.74561510329
 10
1495.93937374177
 20
2400.87895507801
 10
1495.82999459945
 20
2400.98488287025
 10
1494.66091158234
 20
2402.08131521913
 10
1494.5481934844
 20
2402.18368281332
 10
1493.34456873673
 20
2403.24208087801
 10
1493.22862750863
 20
2403.34078308453
 10
1491.99169783618
 20
2404.36005928947
 10
1491.87265261538
 20
2404.45499468513
 10
1490.60368904701
 20
2405.43410165513
 10
1490.48166216052
 20
2405.52517268739
 10
1489.18196864206
 20
2406.46310432384
 10
1489.05708548076
 20
2406.55021741107
 10
1487.72799753518
 20
2407.44600992581
 10
1487.60038642494
 20
2407.52907555341
 10
1486.24326977994
 20
2408.38180845908
 10
1486.11306184982
 20
2408.46074127151
 10
1484.72931103449
 20
2409.26953832741
 10
1484.59664008193
 20
2409.34425721587
 10
1483.18767699378
 20
2410.10828732835
 10
1483.05267934716
 20
2410.17871551412
 10
1481.61995179099
 20
2410.89719359059
 10
1481.48276616952
 20
2410.96325870396
 10
1480.02774636976
 20
2411.63544645963
 10
1479.88851374093
 20
2411.69708061422
 10
1478.41269682878
 20
2412.32228733073
 10
1478.27156026353
 20
2412.37942719329
 10
1476.77646274062
 20
2412.95701042848
 10
1476.63356726632
 20
2413.00959728394
 10
1475.12072544643
 20
2413.53896353198
 10
1474.97621789783
 20
2413.58694334378
 10
1473.4471863282
 20
2414.06754864508
 10
1473.30121519657
 20
2414.11087211073
 10
1471.7575650605
 20
2414.54222261085
 10
1471.61028034105
 20
2414.58084521256
 10
1470.05359784339
 20
2414.9624976697
 10
1469.90515088114
 20
2414.99637972012
 10
1468.33703561839
 20
2415.32794196058
 10
1468.18757895261
 20
2415.35704864364
 10
1466.60964226921
 20
2415.63817996481
 10
1466.45932947674
 20
2415.6624813714
 10
1464.8731928093
 20
2415.89289289184
 10
1464.72217834668
 20
2415.91236405064
 10
1463.12947155784
 20
2416.09181900694
 10
1462.97791060265
 20
2416.10643991
 10
1461.3802703063
 20
2416.23475390006
 10
1461.22831859767
 20
2416.24450952343
 10
1459.62738647722
 20
2416.32155069595
 10
1459.47520015579
 20
2416.32643101507
 10
1458.06303759683
 20
2416.34906784919
 10
1455.21387067497
 20
2416.62392355552
 10
1452.35053880856
 20
2417.08684484621
 10
1449.52274943348
 20
2417.73226931802
 10
1446.74212254285
 20
2418.55754478335
 10
1444.020084329
 20
2419.55928000829
 10
1441.36782023082
 20
2420.73335864794
 10
1438.7962289704
 20
2422.07495616132
 10
1436.31587776783
 20
2423.57855963647
 10
1433.93695891824
 20
2425.23799044421
 10
1431.66924790947
 20
2427.04642962738
 10
1429.52206325245
 20
2428.99644592149
 10
1427.50422818953
 20
2431.08002629129
 10
1425.6240344378
 20
2433.28860885813
 10
1423.88920811669
 20
2435.61311808249
 10
1422.30687799967
 20
2438.04400205737
 10
1420.88354622059
 20
2440.5712717591
 10
1419.62506155504
 20
2443.18454209436
 10
1418.53659538646
 20
2445.87307457481
 10
1417.62262045582
 20
2448.6258214438
 10
1416.88689248213
 20
2451.43147107398
 10
1416.33243472947
 20
2454.2784944492
 10
1415.96152558367
 20
2457.15519253975
 10
1415.77568918997
 20
2460.0497443761
 10
1415.77568918997
 20
2462.9502556239
 10
1415.96152558367
 20
2465.84480746025
 10
1416.33243472947
 20
2468.7215055508
 10
1416.88689248213
 20
2471.56852892602
 10
1417.62262045582
 20
2474.3741785562
 10
1418.53659538646
 20
2477.12692542519
 10
1419.62506155504
 20
2479.81545790564
 10
1420.88354622059
 20
2482.4287282409
 10
1422.30687799967
 20
2484.95599794263
 10
1423.88920811669
 20
2487.38688191751
 10
1425.6240344378
 20
2489.71139114187
 10
1427.50422818953
 20
2491.91997370871
 10
1429.52206325245
 20
2494.00355407851
 10
1431.66924790946
 20
2495.95357037262
 10
1433.93695891824
 20
2497.76200955579
 10
1436.31587776783
 20
2499.42144036353
 10
1438.7962289704
 20
2500.92504383868
 10
1441.36782023082
 20
2502.26664135206
 10
1444.020084329
 20
2503.44071999171
 10
1446.74212254285
 20
2504.44245521665
 10
1449.52274943348
 20
2505.26773068198
 10
1452.35053880856
 20
2505.91315515379
 10
1455.21387067497
 20
2506.37607644448
 10
1458.10097898789
 20
2506.65459231118
 10
1461.07614205701
 20
2506.75
 10
1681
 20
2506.75
 10
1681.15224499347
 20
2506.75244047305
 10
1684.3557559925
 20
2506.85517083553
 10
1684.6596203721
 20
2506.87467957597
 10
1687.84996745729
 20
2507.18244852233
 10
1688.15195758563
 20
2507.22138583762
 10
1691.31603093648
 20
2507.73292867923
 10
1691.61490587136
 20
2507.79113456758
 10
1694.73970363177
 20
2508.50434926518
 10
1695.03423523197
 20
2508.58158454612
 10
1698.10691693768
 20
2509.49354034754
 10
1698.39589490968
 20
2509.58948764473
 10
1701.40383425247
 20
2510.69643712796
 10
1701.6860711238
 20
2510.81070217337
 10
1704.61690783571
 20
2512.10809664555
 10
1704.89124383452
 20
2512.24020989961
 10
1707.73293447884
 20
2513.72271808856
 10
1707.99824229967
 20
2513.87213666956
 10
1710.73910976
 20
2515.53366663113
 10
1710.99429919611
 20
2515.69977654607
 10
1713.62308066014
 20
2517.53350069727
 10
1713.86710308339
 20
2517.71561936488
 10
1716.37299632422
 20
2519.71400253982
 10
1716.60484899413
 20
2519.91138159544
 10
1718.97755675891
 20
2522.06621200901
 10
1719.19628694314
 20
2522.27804037975
 10
1721.42605926673
 20
2524.58046337157
 10
1721.63076815602
 20
2524.80587060922
 10
1723.70844242566
 20
2527.24642502935
 10
1723.89828882727
 20
2527.48448488723
 10
1725.81532743372
 20
2530.05314197406
 10
1725.98953122808
 20
2530.30287621314
 10
1727.7380566485
 20
2532.98908080372
 10
1727.89590199485
 20
2533.24946321245
 10
1729.46872916324
 20
2536.04217711594
 10
1729.60956744119
 20
2536.31213772715
 10
1731.00023327333
 20
2539.19988508307
 10
1731.12348574818
 20
2539.4783145707
 10
1732.32627569988
 20
2542.44922900576
 10
1732.43143590079
 20
2542.73498324332
 10
1733.44140745013
 20
2545.77685663284
 10
1733.52804325127
 20
2546.06876139488
 10
1734.34104620853
 20
2549.16909402861
 10
1734.4088016048
 20
2549.46594981585
 10
1735.02149516643
 20
2552.612001762
 10
1735.07009173638
 20
2552.91258873033
 10
1735.47995821312
 20
2556.09143218661
 10
1735.50919626302
 20
2556.39451515971
 10
1735.7145514256
 20
2559.59308757651
 10
1735.72431081003
 20
2559.89742112142
 10
1735.72431081003
 20
2563.10257887858
 10
1735.7145514256
 20
2563.40691242349
 10
1735.50919626302
 20
2566.60548484029
 10
1735.47995821312
 20
2566.90856781339
 10
1735.07009173638
 20
2570.08741126967
 10
1735.02149516643
 20
2570.387998238
 10
1734.4088016048
 20
2573.53405018415
 10
1734.34104620853
 20
2573.83090597139
 10
1733.52804325127
 20
2576.93123860512
 10
1733.44140745013
 20
2577.22314336716
 10
1732.43143590079
 20
2580.26501675668
 10
1732.32627569988
 20
2580.55077099424
 10
1731.12348574818
 20
2583.5216854293
 10
1731.00023327333
 20
2583.80011491693
 10
1729.60956744119
 20
2586.68786227285
 10
1729.46872916324
 20
2586.95782288406
 10
1727.89590199485
 20
2589.75053678754
 10
1727.7380566485
 20
2590.01091919628
 10
1725.98953122808
 20
2592.69712378686
 10
1725.81532743372
 20
2592.94685802594
 10
1723.89828882727
 20
2595.51551511277
 10
1723.70844242566
 20
2595.75357497065
 10
1721.63076815602
 20
2598.19412939078
 10
1721.42605926673
 20
2598.41953662843
 10
1719.19628694314
 20
2600.72195962025
 10
1718.97755675891
 20
2600.93378799099
 10
1716.60484899413
 20
2603.08861840456
 10
1716.37299632422
 20
2603.28599746018
 10
1713.86710308339
 20
2605.28438063512
 10
1713.62308066014
 20
2605.46649930273
 10
1710.99429919611
 20
2607.30022345393
 10
1710.73910976
 20
2607.46633336887
 10
1707.99824229967
 20
2609.12786333044
 10
1707.73293447884
 20
2609.27728191144
 10
1704.89124383452
 20
2610.75979010039
 10
1704.61690783571
 20
2610.89190335445
 10
1701.6860711238
 20
2612.18929782663
 10
1701.40383425247
 20
2612.30356287204
 10
1698.39589490968
 20
2613.41051235527
 10
1698.10691693768
 20
2613.50645965246
 10
1695.03423523197
 20
2614.41841545388
 10
1694.73970363177
 20
2614.49565073482
 10
1691.61490587136
 20
2615.20886543242
 10
1691.31603093648
 20
2615.26707132077
 10
1688.15195758563
 20
2615.77861416238
 10
1687.84996745729
 20
2615.81755147767
 10
1684.6596203721
 20
2616.12532042403
 10
1684.3557559925
 20
2616.14482916447
 10
1681.15224499347
 20
2616.24755952695
 10
1681
 20
2616.25
 10
1461.07614205701
 20
2616.25
 10
1458.10097898789
 20
2616.34540768882
 10
1455.21387067497
 20
2616.62392355551
 10
1452.35053880856
 20
2617.08684484621
 10
1449.52274943348
 20
2617.73226931802
 10
1446.74212254285
 20
2618.55754478335
 10
1444.020084329
 20
2619.55928000829
 10
1441.36782023082
 20
2620.73335864794
 10
1438.7962289704
 20
2622.07495616132
 10
1436.31587776783
 20
2623.57855963647
 10
1433.93695891824
 20
2625.23799044421
 10
1431.66924790946
 20
2627.04642962738
 10
1429.52206325245
 20
2628.99644592149
 10
1427.50422818953
 20
2631.08002629129
 10
1425.62403443781
 20
2633.28860885813
 10
1423.88920811669
 20
2635.61311808249
 10
1422.30687799967
 20
2638.04400205737
 10
1420.88354622059
 20
2640.5712717591
 10
1419.62506155504
 20
2643.18454209436
 10
1418.53659538646
 20
2645.87307457481
 10
1417.62262045582
 20
2648.6258214438
 10
1416.88689248213
 20
2651.43147107398
 10
1416.33243472947
 20
2654.2784944492
 10
1415.96152558367
 20
2657.15519253975
 10
1415.77568918997
 20
2660.0497443761
 10
1415.77568918997
 20
2662.9502556239
 10
1415.96152558367
 20
2665.84480746025
 10
1416.33243472947
 20
2668.7215055508
 10
1416.88689248213
 20
2671.56852892602
 10
1417.62262045582
 20
2674.3741785562
 10
1418.53659538646
 20
2677.12692542519
 10
1419.62506155504
 20
2679.81545790564
 10
1420.88354622059
 20
2682.4287282409
 10
1422.30687799967
 20
2684.95599794263
 10
1423.88920811669
 20
2687.38688191751
 10
1425.62403443781
 20
2689.71139114187
 10
1427.50422818953
 20
2691.91997370871
 10
1429.52206325245
 20
2694.00355407851
 10
1431.66924790946
 20
2695.95357037262
 10
1433.93695891824
 20
2697.76200955579
 10
1436.31587776783
 20
2699.42144036353
 10
1438.7962289704
 20
2700.92504383868
 10
1441.36782023082
 20
2702.26664135206
 10
1444.020084329
 20
2703.44071999171
 10
1446.74212254285
 20
2704.44245521665
 10
1449.52274943348
 20
2705.26773068198
 10
1452.35053880856
 20
2705.91315515379
 10
1455.21387067497
 20
2706.37607644449
 10
1458.10097898789
 20
2706.65459231118
 10
1461.07614205701
 20
2706.75
 10
1681
 20
2706.75
 10
1681.15224499347
 20
2706.75244047305
 10
1684.3557559925
 20
2706.85517083553
 10
1684.6596203721
 20
2706.87467957597
 10
1687.84996745729
 20
2707.18244852233
 10
1688.15195758563
 20
2707.22138583762
 10
1691.31603093648
 20
2707.73292867923
 10
1691.61490587136
 20
2707.79113456758
 10
1694.73970363177
 20
2708.50434926518
 10
1695.03423523197
 20
2708.58158454612
 10
1698.10691693768
 20
2709.49354034754
 10
1698.39589490968
 20
2709.58948764473
 10
1701.40383425247
 20
2710.69643712796
 10
1701.6860711238
 20
2710.81070217337
 10
1704.61690783571
 20
2712.10809664555
 10
1704.89124383452
 20
2712.24020989961
 10
1707.73293447884
 20
2713.72271808856
 10
1707.99824229967
 20
2713.87213666956
 10
1710.73910976
 20
2715.53366663113
 10
1710.99429919611
 20
2715.69977654607
 10
1713.62308066014
 20
2717.53350069727
 10
1713.86710308339
 20
2717.71561936488
 10
1716.37299632422
 20
2719.71400253982
 10
1716.60484899413
 20
2719.91138159544
 10
1718.97755675891
 20
2722.06621200901
 10
1719.19628694314
 20
2722.27804037975
 10
1721.42605926673
 20
2724.58046337157
 10
1721.63076815602
 20
2724.80587060922
 10
1723.70844242566
 20
2727.24642502935
 10
1723.89828882727
 20
2727.48448488723
 10
1725.81532743372
 20
2730.05314197406
 10
1725.98953122808
 20
2730.30287621314
 10
1727.7380566485
 20
2732.98908080372
 10
1727.89590199485
 20
2733.24946321245
 10
1729.46872916324
 20
2736.04217711594
 10
1729.60956744119
 20
2736.31213772715
 10
1731.00023327333
 20
2739.19988508307
 10
1731.12348574818
 20
2739.4783145707
 10
1732.32627569988
 20
2742.44922900576
 10
1732.43143590079
 20
2742.73498324332
 10
1733.44140745013
 20
2745.77685663284
 10
1733.52804325127
 20
2746.06876139488
 10
1734.34104620853
 20
2749.16909402861
 10
1734.4088016048
 20
2749.46594981585
 10
1735.02149516643
 20
2752.612001762
 10
1735.07009173638
 20
2752.91258873033
 10
1735.47995821312
 20
2756.09143218661
 10
1735.50919626302
 20
2756.39451515971
 10
1735.7145514256
 20
2759.59308757651
 10
1735.72431081003
 20
2759.89742112142
 10
1735.72431081003
 20
2763.10257887858
 10
1735.7145514256
 20
2763.40691242349
 10
1735.50919626302
 20
2766.60548484029
 10
1735.47995821312
 20
2766.90856781339
 10
1735.07009173638
 20
2770.08741126967
 10
1735.02149516643
 20
2770.387998238
 10
1734.4088016048
 20
2773.53405018415
 10
1734.34104620853
 20
2773.83090597139
 10
1733.52804325127
 20
2776.93123860512
 10
1733.44140745013
 20
2777.22314336716
 10
1732.43143590079
 20
2780.26501675668
 10
1732.32627569988
 20
2780.55077099424
 10
1731.12348574818
 20
2783.5216854293
 10
1731.00023327333
 20
2783.80011491693
 10
1729.60956744119
 20
2786.68786227285
 10
1729.46872916324
 20
2786.95782288406
 10
1727.89590199485
 20
2789.75053678754
 10
1727.7380566485
 20
2790.01091919628
 10
1725.98953122808
 20
2792.69712378686
 10
1725.81532743372
 20
2792.94685802594
 10
1723.89828882727
 20
2795.51551511277
 10
1723.70844242566
 20
2795.75357497065
 10
1721.63076815602
 20
2798.19412939078
 10
1721.42605926673
 20
2798.41953662843
 10
1719.19628694314
 20
2800.72195962025
 10
1718.97755675891
 20
2800.93378799099
 10
1716.60484899413
 20
2803.08861840456
 10
1716.37299632422
 20
2803.28599746018
 10
1713.86710308339
 20
2805.28438063512
 10
1713.62308066014
 20
2805.46649930273
 10
1710.99429919611
 20
2807.30022345393
 10
1710.73910976
 20
2807.46633336887
 10
1707.99824229967
 20
2809.12786333044
 10
1707.73293447884
 20
2809.27728191144
 10
1704.89124383452
 20
2810.75979010039
 10
1704.61690783571
 20
2810.89190335445
 10
1701.6860711238
 20
2812.18929782663
 10
1701.40383425247
 20
2812.30356287204
 10
1698.39589490968
 20
2813.41051235527
 10
1698.10691693768
 20
2813.50645965246
 10
1695.03423523197
 20
2814.41841545388
 10
1694.73970363177
 20
2814.49565073482
 10
1691.61490587136
 20
2815.20886543242
 10
1691.31603093648
 20
2815.26707132077
 10
1688.15195758563
 20
2815.77861416238
 10
1687.84996745729
 20
2815.81755147767
 10
1684.6596203721
 20
2816.12532042403
 10
1684.3557559925
 20
2816.14482916447
 10
1681.15224499347
 20
2816.24755952695
 10
1681
 20
2816.25
 10
1461.07614205701
 20
2816.25
 10
1458.10097898789
 20
2816.34540768882
 10
1455.21387067497
 20
2816.62392355551
 10
1452.35053880856
 20
2817.08684484621
 10
1449.52274943348
 20
2817.73226931802
 10
1446.74212254285
 20
2818.55754478335
 10
1444.020084329
 20
2819.55928000829
 10
1441.36782023082
 20
2820.73335864794
 10
1438.7962289704
 20
2822.07495616132
 10
1436.31587776783
 20
2823.57855963647
 10
1433.93695891824
 20
2825.23799044421
 10
1431.66924790946
 20
2827.04642962738
 10
1429.52206325245
 20
2828.99644592149
 10
1427.50422818953
 20
2831.08002629129
 10
1425.62403443781
 20
2833.28860885813
 10
1423.88920811669
 20
2835.61311808249
 10
1422.30687799967
 20
2838.04400205737
 10
1420.88354622059
 20
2840.5712717591
 10
1419.62506155504
 20
2843.18454209436
 10
1418.53659538646
 20
2845.87307457481
 10
1417.62262045582
 20
2848.6258214438
 10
1416.88689248213
 20
2851.43147107398
 10
1416.33243472947
 20
2854.2784944492
 10
1415.96152558367
 20
2857.15519253975
 10
1415.77568918997
 20
2860.0497443761
 10
1415.77568918997
 20
2862.9502556239
 10
1415.96152558367
 20
2865.84480746025
 10
1416.33243472947
 20
2868.7215055508
 10
1416.88689248213
 20
2871.56852892602
 10
1417.62262045582
 20
2874.3741785562
 10
1418.53659538646
 20
2877.12692542519
 10
1419.62506155504
 20
2879.81545790564
 10
1420.88354622059
 20
2882.4287282409
 10
1422.30687799967
 20
2884.95599794263
 10
1423.88920811669
 20
2887.38688191751
 10
1425.62403443781
 20
2889.71139114187
 10
1427.50422818953
 20
2891.91997370871
 10
1429.52206325245
 20
2894.00355407851
 10
1431.66924790946
 20
2895.95357037262
 10
1433.93695891824
 20
2897.76200955579
 10
1436.31587776783
 20
2899.42144036353
 10
1438.7962289704
 20
2900.92504383868
 10
1441.36782023082
 20
2902.26664135206
 10
1444.020084329
 20
2903.44071999171
 10
1446.74212254285
 20
2904.44245521665
 10
1449.52274943348
 20
2905.26773068198
 10
1452.35053880856
 20
2905.91315515379
 10
1455.21387067497
 20
2906.37607644449
 10
1458.10097898789
 20
2906.65459231118
 10
1461.07614205701
 20
2906.75
 10
1681
 20
2906.75
 10
1681.15224499347
 20
2906.75244047305
 10
1684.3557559925
 20
2906.85517083553
 10
1684.6596203721
 20
2906.87467957597
 10
1687.84996745729
 20
2907.18244852233
 10
1688.15195758563
 20
2907.22138583762
 10
1691.31603093648
 20
2907.73292867923
 10
1691.61490587136
 20
2907.79113456758
 10
1694.73970363177
 20
2908.50434926518
 10
1695.03423523197
 20
2908.58158454612
 10
1698.10691693768
 20
2909.49354034754
 10
1698.39589490968
 20
2909.58948764473
 10
1701.40383425247
 20
2910.69643712796
 10
1701.6860711238
 20
2910.81070217337
 10
1704.61690783571
 20
2912.10809664555
 10
1704.89124383452
 20
2912.24020989961
 10
1707.73293447884
 20
2913.72271808856
 10
1707.99824229967
 20
2913.87213666956
 10
1710.73910976
 20
2915.53366663113
 10
1710.99429919611
 20
2915.69977654607
 10
1713.62308066014
 20
2917.53350069727
 10
1713.86710308339
 20
2917.71561936488
 10
1716.37299632422
 20
2919.71400253982
 10
1716.60484899413
 20
2919.91138159544
 10
1718.97755675891
 20
2922.06621200901
 10
1719.19628694314
 20
2922.27804037975
 10
1721.42605926673
 20
2924.58046337157
 10
1721.63076815602
 20
2924.80587060922
 10
1723.70844242566
 20
2927.24642502935
 10
1723.89828882727
 20
2927.48448488723
 10
1725.81532743372
 20
2930.05314197406
 10
1725.98953122808
 20
2930.30287621314
 10
1727.7380566485
 20
2932.98908080372
 10
1727.89590199485
 20
2933.24946321245
 10
1729.46872916324
 20
2936.04217711594
 10
1729.60956744119
 20
2936.31213772715
 10
1731.00023327333
 20
2939.19988508307
 10
1731.12348574818
 20
2939.4783145707
 10
1732.32627569988
 20
2942.44922900576
 10
1732.43143590079
 20
2942.73498324332
 10
1733.44140745013
 20
2945.77685663284
 10
1733.52804325127
 20
2946.06876139488
 10
1734.34104620853
 20
2949.16909402861
 10
1734.4088016048
 20
2949.46594981585
 10
1735.02149516643
 20
2952.612001762
 10
1735.07009173638
 20
2952.91258873033
 10
1735.47995821312
 20
2956.09143218661
 10
1735.50919626302
 20
2956.39451515971
 10
1735.7145514256
 20
2959.59308757651
 10
1735.72431081003
 20
2959.89742112142
 10
1735.72431081003
 20
2963.10257887858
 10
1735.7145514256
 20
2963.40691242349
 10
1735.50919626302
 20
2966.60548484029
 10
1735.47995821312
 20
2966.90856781339
 10
1735.07009173638
 20
2970.08741126967
 10
1735.02149516643
 20
2970.387998238
 10
1734.4088016048
 20
2973.53405018415
 10
1734.34104620853
 20
2973.83090597139
 10
1733.52804325127
 20
2976.93123860512
 10
1733.44140745013
 20
2977.22314336716
 10
1732.43143590079
 20
2980.26501675668
 10
1732.32627569988
 20
2980.55077099424
 10
1731.12348574818
 20
2983.5216854293
 10
1731.00023327333
 20
2983.80011491693
 10
1729.60956744119
 20
2986.68786227285
 10
1729.46872916324
 20
2986.95782288406
 10
1727.89590199485
 20
2989.75053678754
 10
1727.7380566485
 20
2990.01091919628
 10
1725.98953122808
 20
2992.69712378686
 10
1725.81532743372
 20
2992.94685802594
 10
1723.89828882727
 20
2995.51551511277
 10
1723.70844242566
 20
2995.75357497065
 10
1721.63076815602
 20
2998.19412939078
 10
1721.42605926673
 20
2998.41953662843
 10
1719.19628694314
 20
3000.72195962025
 10
1718.97755675891
 20
3000.93378799099
 10
1716.60484899413
 20
3003.08861840456
 10
1716.37299632422
 20
3003.28599746018
 10
1713.86710308339
 20
3005.28438063512
 10
1713.62308066014
 20
3005.46649930273
 10
1710.99429919611
 20
3007.30022345393
 10
1710.73910976
 20
3007.46633336887
 10
1707.99824229967
 20
3009.12786333044
 10
1707.73293447884
 20
3009.27728191144
 10
1704.89124383452
 20
3010.75979010039
 10
1704.61690783571
 20
3010.89190335445
 10
1701.6860711238
 20
3012.18929782663
 10
1701.40383425247
 20
3012.30356287204
 10
1698.39589490968
 20
3013.41051235527
 10
1698.10691693768
 20
3013.50645965246
 10
1695.03423523197
 20
3014.41841545388
 10
1694.73970363177
 20
3014.49565073482
 10
1691.61490587136
 20
3015.20886543242
 10
1691.31603093648
 20
3015.26707132077
 10
1688.15195758563
 20
3015.77861416238
 10
1687.84996745729
 20
3015.81755147767
 10
1684.6596203721
 20
3016.12532042403
 10
1684.3557559925
 20
3016.14482916447
 10
1681.15224499347
 20
3016.24755952695
 10
1681
 20
3016.25
 10
1461.07614205701
 20
3016.25
 10
1458.10097898789
 20
3016.34540768882
 10
1455.21387067497
 20
3016.62392355551
 10
1452.35053880856
 20
3017.08684484621
 10
1449.52274943348
 20
3017.73226931802
 10
1446.74212254285
 20
3018.55754478335
 10
1444.020084329
 20
3019.55928000829
 10
1441.36782023082
 20
3020.73335864794
 10
1438.7962289704
 20
3022.07495616132
 10
1436.31587776783
 20
3023.57855963647
 10
1433.93695891824
 20
3025.23799044421
 10
1431.66924790946
 20
3027.04642962738
 10
1429.52206325245
 20
3028.99644592149
 10
1427.50422818953
 20
3031.08002629129
 10
1425.62403443781
 20
3033.28860885813
 10
1423.88920811669
 20
3035.61311808249
 10
1422.30687799967
 20
3038.04400205737
 10
1420.88354622059
 20
3040.5712717591
 10
1419.62506155504
 20
3043.18454209436
 10
1418.53659538647
 20
3045.87307457481
 10
1417.62262045582
 20
3048.6258214438
 10
1416.88689248213
 20
3051.43147107398
 10
1416.33243472947
 20
3054.2784944492
 10
1415.96152558367
 20
3057.15519253975
 10
1415.77568918997
 20
3060.0497443761
 10
1415.77568918997
 20
3062.9502556239
 10
1415.96152558367
 20
3065.84480746025
 10
1416.33243472947
 20
3068.7215055508
 10
1416.88689248213
 20
3071.56852892602
 10
1417.62262045582
 20
3074.3741785562
 10
1418.53659538647
 20
3077.12692542519
 10
1419.62506155504
 20
3079.81545790564
 10
1420.88354622059
 20
3082.42872824091
 10
1422.30687799967
 20
3084.95599794263
 10
1423.88920811669
 20
3087.38688191751
 10
1425.6240344378
 20
3089.71139114187
 10
1427.50422818953
 20
3091.91997370871
 10
1429.52206325245
 20
3094.00355407851
 10
1431.66924790947
 20
3095.95357037262
 10
1433.93695891824
 20
3097.76200955579
 10
1436.31587776783
 20
3099.42144036353
 10
1438.79622897039
 20
3100.92504383868
 10
1441.36782023082
 20
3102.26664135206
 10
1444.020084329
 20
3103.44071999171
 10
1446.74212254285
 20
3104.44245521665
 10
1449.52274943349
 20
3105.26773068198
 10
1452.35053880855
 20
3105.91315515379
 10
1455.21387067497
 20
3106.37607644449
 10
1458.1009789879
 20
3106.65459231118
 10
1461.07614205701
 20
3106.75
 10
1661
 20
3106.75
 10
1661.07613227624
 20
3106.75061015745
 10
1662.67871115483
 20
3106.77629934742
 10
1662.83089747625
 20
3106.78117966653
 10
1664.43182959671
 20
3106.85822083905
 10
1664.58378130534
 20
3106.86797646242
 10
1666.18142160169
 20
3106.99629045248
 10
1666.33298255687
 20
3107.01091135555
 10
1667.92568934572
 20
3107.19036631184
 10
1668.07670380833
 20
3107.20983747064
 10
1669.66284047578
 20
3107.44024899108
 10
1669.81315326825
 20
3107.46455039768
 10
1671.39108995165
 20
3107.74568171884
 10
1671.54054661743
 20
3107.7747884019
 10
1673.10866188017
 20
3108.10635064236
 10
1673.25710884243
 20
3108.14023269279
 10
1674.81379134009
 20
3108.52188514993
 10
1674.96107605953
 20
3108.56050775163
 10
1676.50472619561
 20
3108.99185825175
 10
1676.65069732723
 20
3109.0351817174
 10
1678.17972889686
 20
3109.5157870187
 10
1678.32423644547
 20
3109.5637668305
 10
1679.83707826535
 20
3110.09313307855
 10
1679.97997373966
 20
3110.145719934
 10
1681.47507126256
 20
3110.72330316919
 10
1681.61620782781
 20
3110.78044303175
 10
1683.09202473996
 20
3111.40564974826
 10
1683.23125736879
 20
3111.46728390286
 10
1684.68627716855
 20
3112.13947165853
 10
1684.82346279003
 20
3112.20553677189
 10
1686.25619034619
 20
3112.92401484837
 10
1686.39118799281
 20
3112.99444303414
 10
1687.80015108097
 20
3113.75847314662
 10
1687.93282203352
 20
3113.83319203507
 10
1689.31657284885
 20
3114.64198909097
 10
1689.44678077897
 20
3114.7209219034
 10
1690.80389742398
 20
3115.57365480907
 10
1690.93150853421
 20
3115.65672043667
 10
1692.26059647979
 20
3116.55251295142
 10
1692.3854796411
 20
3116.63962603864
 10
1693.68517315955
 20
3117.57755767509
 10
1693.80720004604
 20
3117.66862870735
 10
1695.07616361442
 20
3118.64773567735
 10
1695.19520883522
 20
3118.74267107301
 10
1696.43213850767
 20
3119.76194727795
 10
1696.54807973576
 20
3119.86064948448
 10
1697.75170448344
 20
3120.91904754917
 10
1697.86442258138
 20
3121.02141514336
 10
1699.03350559849
 20
3122.11784749224
 10
1699.14288474081
 20
3122.22377528448
 10
1700.27622471552
 20
3123.35711525919
 10
1700.38215250776
 20
3123.46649440151
 10
1701.47858485664
 20
3124.63557741862
 10
1701.58095245084
 20
3124.74829551656
 10
1702.63935051553
 20
3125.95192026424
 10
1702.73805272205
 20
3126.06786149233
 10
1703.75732892699
 20
3127.30479116478
 10
1703.85226432265
 20
3127.42383638558
 10
1704.83137129265
 20
3128.69279995396
 10
1704.92244232491
 20
3128.81482684045
 10
1705.86037396136
 20
3130.1145203589
 10
1705.94748704858
 20
3130.23940352021
 10
1706.84327956333
 20
3131.56849146579
 10
1706.92634519093
 20
3131.69610257602
 10
1707.7790780966
 20
3133.05321922103
 10
1707.85801090903
 20
3133.18342715115
 10
1708.66680796493
 20
3134.56717796648
 10
1708.74152685338
 20
3134.69984891903
 10
1709.50555696586
 20
3136.10881200719
 10
1709.57598515164
 20
3136.24380965381
 10
1710.29446322811
 20
3137.67653720997
 10
1710.36052834147
 20
3137.81372283145
 10
1711.03271609714
 20
3139.26874263121
 10
1711.09435025174
 20
3139.40797526004
 10
1711.71955696825
 20
3140.88379217219
 10
1711.77669683081
 20
3141.02492873744
 10
1712.354280066
 20
3142.52002626034
 10
1712.40686692145
 20
3142.66292173465
 10
1712.9362331695
 20
3144.17576355453
 10
1712.9842129813
 20
3144.32027110314
 10
1713.4648182826
 20
3145.84930267276
 10
1713.50814174825
 20
3145.99527380439
 10
1713.93949224837
 20
3147.53892394047
 10
1713.97811485007
 20
3147.68620865991
 10
1714.35976730721
 20
3149.24289115757
 10
1714.39364935764
 20
3149.39133811983
 10
1714.7252115981
 20
3150.95945338257
 10
1714.75431828116
 20
3151.10891004835
 10
1715.03544960232
 20
3152.68684673175
 10
1715.05975100892
 20
3152.83715952422
 10
1715.29016252936
 20
3154.42329619167
 10
1715.30963368816
 20
3154.57431065428
 10
1715.48908864445
 20
3156.16701744313
 10
1715.50370954752
 20
3156.31857839831
 10
1715.63202353758
 20
3157.91621869466
 10
1715.64177916095
 20
3158.0681704033
 10
1715.71882033347
 20
3159.66910252375
 10
1715.72370065258
 20
3159.82128884517
 10
1715.74938984255
 20
3161.42386772376
 10
1715.74938984255
 20
3161.57613227624
 10
1715.72370065258
 20
3163.17871115483
 10
1715.71882033347
 20
3163.33089747625
 10
1715.64177916095
 20
3164.93182959671
 10
1715.63202353758
 20
3165.08378130534
 10
1715.50370954752
 20
3166.68142160169
 10
1715.48908864445
 20
3166.83298255687
 10
1715.30963368816
 20
3168.42568934572
 10
1715.29016252936
 20
3168.57670380833
 10
1715.05975100892
 20
3170.16284047578
 10
1715.03544960232
 20
3170.31315326825
 10
1714.75431828116
 20
3171.89108995165
 10
1714.7252115981
 20
3172.04054661743
 10
1714.39364935764
 20
3173.60866188017
 10
1714.35976730721
 20
3173.75710884243
 10
1713.97811485007
 20
3175.31379134009
 10
1713.93949224837
 20
3175.46107605953
 10
1713.50814174825
 20
3177.00472619561
 10
1713.4648182826
 20
3177.15069732724
 10
1712.9842129813
 20
3178.67972889686
 10
1712.9362331695
 20
3178.82423644547
 10
1712.40686692145
 20
3180.33707826535
 10
1712.354280066
 20
3180.47997373966
 10
1711.77669683081
 20
3181.97507126256
 10
1711.71955696825
 20
3182.11620782781
 10
1711.09435025174
 20
3183.59202473996
 10
1711.03271609714
 20
3183.73125736879
 10
1710.36052834147
 20
3185.18627716855
 10
1710.29446322811
 20
3185.32346279003
 10
1709.57598515164
 20
3186.75619034619
 10
1709.50555696586
 20
3186.89118799281
 10
1708.74152685338
 20
3188.30015108097
 10
1708.66680796493
 20
3188.43282203352
 10
1707.85801090903
 20
3189.81657284885
 10
1707.7790780966
 20
3189.94678077897
 10
1706.92634519093
 20
3191.30389742398
 10
1706.84327956333
 20
3191.43150853421
 10
1705.94748704858
 20
3192.76059647979
 10
1705.86037396136
 20
3192.8854796411
 10
1704.92244232491
 20
3194.18517315955
 10
1704.83137129265
 20
3194.30720004604
 10
1703.85226432265
 20
3195.57616361442
 10
1703.75732892699
 20
3195.69520883522
 10
1702.73805272205
 20
3196.93213850767
 10
1702.63935051553
 20
3197.04807973576
 10
1701.58095245084
 20
3198.25170448344
 10
1701.47858485664
 20
3198.36442258138
 10
1700.38215250776
 20
3199.53350559849
 10
1700.27622471552
 20
3199.64288474081
 10
1699.14288474081
 20
3200.77622471552
 10
1699.03350559849
 20
3200.88215250776
 10
1697.86442258138
 20
3201.97858485664
 10
1697.75170448344
 20
3202.08095245084
 10
1696.54807973576
 20
3203.13935051553
 10
1696.43213850767
 20
3203.23805272205
 10
1695.19520883522
 20
3204.25732892699
 10
1695.07616361442
 20
3204.35226432265
 10
1693.80720004604
 20
3205.33137129265
 10
1693.68517315955
 20
3205.42244232491
 10
1692.3854796411
 20
3206.36037396136
 10
1692.26059647979
 20
3206.44748704858
 10
1690.93150853421
 20
3207.34327956333
 10
1690.80389742398
 20
3207.42634519093
 10
1689.44678077897
 20
3208.2790780966
 10
1689.31657284885
 20
3208.35801090903
 10
1687.93282203352
 20
3209.16680796493
 10
1687.80015108097
 20
3209.24152685338
 10
1686.39118799281
 20
3210.00555696586
 10
1686.25619034619
 20
3210.07598515164
 10
1684.82346279003
 20
3210.79446322811
 10
1684.68627716855
 20
3210.86052834147
 10
1683.23125736879
 20
3211.53271609714
 10
1683.09202473996
 20
3211.59435025174
 10
1681.61620782781
 20
3212.21955696825
 10
1681.47507126256
 20
3212.27669683081
 10
1679.97997373966
 20
3212.854280066
 10
1679.83707826535
 20
3212.90686692145
 10
1678.32423644547
 20
3213.4362331695
 10
1678.17972889686
 20
3213.4842129813
 10
1676.65069732723
 20
3213.9648182826
 10
1676.50472619561
 20
3214.00814174825
 10
1674.96107605953
 20
3214.43949224837
 10
1674.81379134009
 20
3214.47811485007
 10
1673.25710884243
 20
3214.85976730721
 10
1673.10866188017
 20
3214.89364935764
 10
1671.54054661743
 20
3215.2252115981
 10
1671.39108995165
 20
3215.25431828116
 10
1669.81315326825
 20
3215.53544960232
 10
1669.66284047578
 20
3215.55975100892
 10
1668.07670380833
 20
3215.79016252936
 10
1667.92568934572
 20
3215.80963368816
 10
1666.33298255687
 20
3215.98908864445
 10
1666.18142160169
 20
3216.00370954752
 10
1664.58378130534
 20
3216.13202353758
 10
1664.43182959671
 20
3216.14177916095
 10
1662.83089747625
 20
3216.21882033347
 10
1662.67871115483
 20
3216.22370065258
 10
1661.07613227624
 20
3216.24938984255
 10
1661
 20
3216.25
 10
1361
 20
3216.25
 10
1360.92386772376
 20
3216.24938984255
 10
1359.32128884517
 20
3216.22370065258
 10
1359.16910252375
 20
3216.21882033347
 10
1357.56817040329
 20
3216.14177916095
 10
1357.41621869466
 20
3216.13202353758
 10
1355.81857839831
 20
3216.00370954752
 10
1355.66701744313
 20
3215.98908864445
 10
1354.07431065428
 20
3215.80963368816
 10
1353.92329619167
 20
3215.79016252936
 10
1352.33715952422
 20
3215.55975100892
 10
1352.18684673175
 20
3215.53544960232
 10
1350.60891004835
 20
3215.25431828116
 10
1350.45945338257
 20
3215.2252115981
 10
1348.89133811983
 20
3214.89364935764
 10
1348.74289115757
 20
3214.85976730721
 10
1347.18620865991
 20
3214.47811485007
 10
1347.03892394047
 20
3214.43949224837
 10
1345.49527380439
 20
3214.00814174825
 10
1345.34930267277
 20
3213.9648182826
 10
1343.82027110314
 20
3213.4842129813
 10
1343.67576355453
 20
3213.4362331695
 10
1342.16292173465
 20
3212.90686692145
 10
1342.02002626034
 20
3212.854280066
 10
1340.52492873744
 20
3212.27669683081
 10
1340.38379217219
 20
3212.21955696825
 10
1338.90797526004
 20
3211.59435025174
 10
1338.76874263121
 20
3211.53271609714
 10
1337.31372283145
 20
3210.86052834147
 10
1337.17653720997
 20
3210.79446322811
 10
1335.74380965381
 20
3210.07598515164
 10
1335.60881200719
 20
3210.00555696586
 10
1334.19984891903
 20
3209.24152685338
 10
1334.06717796648
 20
3209.16680796493
 10
1332.68342715115
 20
3208.35801090903
 10
1332.55321922103
 20
3208.2790780966
 10
1331.19610257602
 20
3207.42634519093
 10
1331.06849146579
 20
3207.34327956333
 10
1329.73940352021
 20
3206.44748704858
 10
1329.6145203589
 20
3206.36037396136
 10
1328.31482684045
 20
3205.42244232491
 10
1328.19279995396
 20
3205.33137129265
 10
1326.92383638558
 20
3204.35226432265
 10
1326.80479116478
 20
3204.25732892699
 10
1325.56786149233
 20
3203.23805272205
 10
1325.45192026424
 20
3203.13935051552
 10
1324.24829551656
 20
3202.08095245083
 10
1324.13557741862
 20
3201.97858485664
 10
1322.96649440151
 20
3200.88215250776
 10
1322.85711525919
 20
3200.77622471552
 10
1321.72377528448
 20
3199.64288474081
 10
1321.61784749224
 20
3199.53350559849
 10
1320.52141514336
 20
3198.36442258138
 10
1320.41904754917
 20
3198.25170448344
 10
1319.36064948447
 20
3197.04807973576
 10
1319.26194727795
 20
3196.93213850767
 10
1318.24267107301
 20
3195.69520883522
 10
1318.14773567735
 20
3195.57616361442
 10
1317.16862870735
 20
3194.30720004604
 10
1317.07755767509
 20
3194.18517315955
 10
1316.13962603864
 20
3192.8854796411
 10
1316.05251295142
 20
3192.76059647979
 10
1315.15672043667
 20
3191.43150853421
 10
1315.07365480907
 20
3191.30389742398
 10
1314.2209219034
 20
3189.94678077897
 10
1314.14198909097
 20
3189.81657284885
 10
1313.33319203507
 20
3188.43282203352
 10
1313.25847314662
 20
3188.30015108097
 10
1312.49444303414
 20
3186.89118799281
 10
1312.42401484837
 20
3186.75619034619
 10
1311.70553677189
 20
3185.32346279003
 10
1311.63947165853
 20
3185.18627716855
 10
1310.96728390286
 20
3183.73125736879
 10
1310.90564974826
 20
3183.59202473996
 10
1310.28044303175
 20
3182.11620782781
 10
1310.22330316919
 20
3181.97507126256
 10
1309.645719934
 20
3180.47997373966
 10
1309.59313307855
 20
3180.33707826535
 10
1309.0637668305
 20
3178.82423644547
 10
1309.0157870187
 20
3178.67972889686
 10
1308.5351817174
 20
3177.15069732724
 10
1308.49185825175
 20
3177.00472619561
 10
1308.06050775163
 20
3175.46107605953
 10
1308.02188514993
 20
3175.31379134009
 10
1307.64023269279
 20
3173.75710884243
 10
1307.60635064236
 20
3173.60866188017
 10
1307.2747884019
 20
3172.04054661743
 10
1307.24568171884
 20
3171.89108995165
 10
1306.96455039768
 20
3170.31315326825
 10
1306.94024899108
 20
3170.16284047578
 10
1306.70983747064
 20
3168.57670380833
 10
1306.69036631184
 20
3168.42568934572
 10
1306.51091135555
 20
3166.83298255687
 10
1306.49629045248
 20
3166.68142160169
 10
1306.36797646242
 20
3165.08378130534
 10
1306.35822083905
 20
3164.93182959671
 10
1306.28117966653
 20
3163.33089747625
 10
1306.27629934742
 20
3163.17871115483
 10
1306.25061015745
 20
3161.57613227624
 10
1306.25
 20
3161.5
 10
1306.25
 20
2061.53806858315
 10
1306.22614136077
 20
2060.04968567391
 10
1306.15642003991
 20
2058.60086164382
 10
1306.04029744494
 20
2057.15501667437
 10
1305.87789289969
 20
2055.713636469
 10
1305.6693732858
 20
2054.27820214332
 10
1305.41495287127
 20
2052.85018870311
 10
1305.11489309028
 20
2051.43106352873
 10
1304.76950227452
 20
2050.02228486721
 10
1304.37913533643
 20
2048.62530033388
 10
1303.9441934044
 20
2047.24154542476
 10
1303.46512341069
 20
2045.87244204157
 10
1302.94241763208
 20
2044.51939703058
 10
1302.37661318411
 20
2043.18380073701
 10
1301.76829146909
 20
2041.86702557634
 10
1301.11807757871
 20
2040.57042462404
 10
1300.42663965168
 20
2039.29533022526
 10
1299.69468818723
 20
2038.04305262567
 10
1298.92297531496
 20
2036.81487862517
 10
1298.11229402201
 20
2035.61207025556
 10
1297.26347733821
 20
2034.43586348375
 10
1296.37739748009
 20
2033.28746694171
 10
1295.45496495459
 20
2032.16806068452
 10
1294.49712762349
 20
2031.07879497777
 10
1293.5048697294
 20
2030.02078911562
 10
1292.47921088438
 20
2028.9951302706
 10
1291.42120502223
 20
2028.00287237651
 10
1290.33193931548
 20
2027.04503504541
 10
1289.21253305829
 20
2026.12260251991
 10
1288.06413651625
 20
2025.23652266179
 10
1286.88792974444
 20
2024.38770597799
 10
1285.68512137483
 20
2023.57702468504
 10
1284.45694737433
 20
2022.80531181277
 10
1283.20466977474
 20
2022.07336034832
 10
1281.92957537596
 20
2021.38192242129
 10
1280.63297442366
 20
2020.73170853091
 10
1279.31619926298
 20
2020.12338681589
 10
1277.98060296942
 20
2019.55758236792
 10
1276.62755795843
 20
2019.03487658931
 10
1275.25845457524
 20
2018.5558065956
 10
1273.87469966612
 20
2018.12086466357
 10
1272.47771513279
 20
2017.73049772547
 10
1271.06893647127
 20
2017.38510690972
 10
1269.64981129689
 20
2017.08504712873
 10
1268.22179785669
 20
2016.8306267142
 10
1266.786363531
 20
2016.62210710031
 10
1265.34498332563
 20
2016.45970255506
 10
1263.89913835618
 20
2016.34357996009
 10
1262.4503143261
 20
2016.27385863923
 10
1260.96193141684
 20
2016.25
 10
961
 20
2016.25
 10
958.75
 20
2016.25
 10
958.75
 20
2006.75
 10
961
 20
2006.75
 10
1261
 20
2006.75
 97
0
 75
0
 76
1
 98
0
  0
ENDSEC
  0
SECTION
  2
OBJECTS
  0
DICTIONARY
  5
C
330
0
100
AcDbDictionary
281
     1
  3
ACAD_GROUP
350
D
  3
ACAD_LAYOUT
350
1A
  3
ACAD_MLEADERSTYLE
350
43
  3
ACAD_MLINESTYLE
350
17
  3
ACAD_PLOTSETTINGS
350
19
  3
ACAD_PLOTSTYLENAME
350
E
  3
ACAD_TABLESTYLE
350
42
  3
ACAD_VISUALSTYLE
350
2A
  0
DICTIONARY
  5
D
102
{ACAD_REACTORS
330
C
102
}
330
C
100
AcDbDictionary
281
     1
  0
DICTIONARY
  5
1A
102
{ACAD_REACTORS
330
C
102
}
330
C
100
AcDbDictionary
281
     1
  3
Layout1
350
1E
  3
Layout2
350
26
  3
Model
350
22
  0
DICTIONARY
  5
43
102
{ACAD_REACTORS
330
C
102
}
330
C
100
AcDbDictionary
281
     1
  0
DICTIONARY
  5
17
102
{ACAD_REACTORS
330
C
102
}
330
C
100
AcDbDictionary
281
     1
  3
Standard
350
18
  0
DICTIONARY
  5
19
102
{ACAD_REACTORS
330
C
102
}
330
C
100
AcDbDictionary
281
     1
  0
ACDBDICTIONARYWDFLT
  5
E
102
{ACAD_REACTORS
330
C
102
}
330
C
100
AcDbDictionary
281
     1
  3
Normal
350
F
100
AcDbDictionaryWithDefault
340
F
  0
DICTIONARY
  5
42
102
{ACAD_REACTORS
330
C
102
}
330
C
100
AcDbDictionary
281
     1
  0
DICTIONARY
  5
2A
102
{ACAD_REACTORS
330
C
102
}
330
C
100
AcDbDictionary
281
     1
  3
2dWireframe
350
2F
  3
3D Hidden
350
31
  3
3dWireframe
350
30
  3
Basic
350
32
  3
Brighten
350
36
  3
ColorChange
350
3A
  3
Conceptual
350
34
  3
Dim
350
35
  3
Facepattern
350
39
  3
Flat
350
2B
  3
FlatWithEdges
350
2C
  3
Gouraud
350
2D
  3
GouraudWithEdges
350
2E
  3
Linepattern
350
38
  3
Realistic
350
33
  3
Thicken
350
37
  0
LAYOUT
  5
1E
102
{ACAD_REACTORS
330
1A
102
}
330
1A
100
AcDbPlotSettings
  1

  2
none_device
  4

  6

 40
0.0
 41
0.0
 42
0.0
 43
0.0
 44
0.0
 45
0.0
 46
0.0
 47
0.0
 48
0.0
 49
0.0
140
0.0
141
0.0
142
1.0
143
1.0
 70
   688
 72
     0
 73
     0
 74
     5
  7

 75
    16
 76
     0
 77
     2
 78
   300
147
1.0
148
0.0
149
0.0
100
AcDbLayout
  1
Layout1
 70
     1
 71
     1
 10
0.0
 20
0.0
 11
12.0
 21
9.0
 12
0.0
 22
0.0
 32
0.0
 14
1.000000000000000E+20
 24
1.000000000000000E+20
 34
1.000000000000000E+20
 15
-1.000000000000000E+20
 25
-1.000000000000000E+20
 35
-1.000000000000000E+20
146
0.0
 13
0.0
 23
0.0
 33
0.0
 16
1.0
 26
0.0
 36
0.0
 17
0.0
 27
1.0
 37
0.0
 76
     0
330
1B
  0
LAYOUT
  5
26
102
{ACAD_REACTORS
330
1A
102
}
330
1A
100
AcDbPlotSettings
  1

  2
none_device
  4

  6

 40
0.0
 41
0.0
 42
0.0
 43
0.0
 44
0.0
 45
0.0
 46
0.0
 47
0.0
 48
0.0
 49
0.0
140
0.0
141
0.0
142
1.0
143
1.0
 70
   688
 72
     0
 73
     0
 74
     5
  7

 75
    16
 76
     0
 77
     2
 78
   300
147
1.0
148
0.0
149
0.0
100
AcDbLayout
  1
Layout2
 70
     1
 71
     2
 10
0.0
 20
0.0
 11
0.0
 21
0.0
 12
0.0
 22
0.0
 32
0.0
 14
0.0
 24
0.0
 34
0.0
 15
0.0
 25
0.0
 35
0.0
146
0.0
 13
0.0
 23
0.0
 33
0.0
 16
1.0
 26
0.0
 36
0.0
 17
0.0
 27
1.0
 37
0.0
 76
     0
330
23
  0
LAYOUT
  5
22
102
{ACAD_REACTORS
330
1A
102
}
330
1A
100
AcDbPlotSettings
  1

  2
none_device
  4

  6

 40
0.0
 41
0.0
 42
0.0
 43
0.0
 44
0.0
 45
0.0
 46
0.0
 47
0.0
 48
0.0
 49
0.0
140
0.0
141
0.0
142
1.0
143
1.0
 70
  1712
 72
     0
 73
     0
 74
     0
  7

 75
     0
 76
     0
 77
     2
 78
   300
147
1.0
148
0.0
149
0.0
100
AcDbLayout
  1
Model
 70
     1
 71
     0
 10
0.0
 20
0.0
 11
12.0
 21
9.0
 12
0.0
 22
0.0
 32
0.0
 14
30.0
 24
49.75
 34
0.0
 15
130.5
 25
163.1318914119703
 35
0.0
146
0.0
 13
0.0
 23
0.0
 33
0.0
 16
1.0
 26
0.0
 36
0.0
 17
0.0
 27
1.0
 37
0.0
 76
     0
330
1F
331
29
  0
MLINESTYLE
  5
18
102
{ACAD_REACTORS
330
17
102
}
330
17
100
AcDbMlineStyle
  2
Standard
 70
     0
  3

 62
   256
 51
90.0
 52
90.0
 71
     2
 49
0.5
 62
   256
  6
BYLAYER
 49
-0.5
 62
   256
  6
BYLAYER
  0
ACDBPLACEHOLDER
  5
F
102
{ACAD_REACTORS
330
E
102
}
330
E
  0
VISUALSTYLE
  5
2F
102
{ACAD_REACTORS
330
2A
102
}
330
2A
100
AcDbVisualStyle
  2
2dWireframe
 70
     4
 71
     0
 72
     2
 73
     0
 90
        0
 40
-0.6
 41
-30.0
 62
     5
 63
     7
421
 16777215
 74
     1
 91
        4
 64
     7
 65
   257
 75
     1
175
     1
 42
1.0
 92
        0
 66
   257
 43
1.0
 76
     1
 77
     6
 78
     2
 67
     7
 79
     5
170
     0
171
     0
290
     0
174
     0
 93
        1
 44
0.0
173
     0
291
     0
 45
0.0
1001
ACAD
1000
AcDbSavedByObjectVersion
1070
     0
  0
VISUALSTYLE
  5
31
102
{ACAD_REACTORS
330
2A
102
}
330
2A
100
AcDbVisualStyle
  2
3D Hidden
 70
     6
 71
     1
 72
     2
 73
     2
 90
        0
 40
-0.6
 41
-30.0
 62
     5
 63
     7
421
 16777215
 74
     2
 91
        2
 64
     7
 65
   257
 75
     2
175
     1
 42
40.0
 92
        0
 66
   257
 43
1.0
 76
     1
 77
     6
 78
     2
 67
     7
 79
     3
170
     0
171
     0
290
     0
174
     0
 93
        1
 44
0.0
173
     0
291
     0
 45
0.0
1001
ACAD
1000
AcDbSavedByObjectVersion
1070
     0
  0
VISUALSTYLE
  5
30
102
{ACAD_REACTORS
330
2A
102
}
330
2A
100
AcDbVisualStyle
  2
3dWireframe
 70
     5
 71
     0
 72
     2
 73
     0
 90
        0
 40
-0.6
 41
-30.0
 62
     5
 63
     7
421
 16777215
 74
     1
 91
        4
 64
     7
 65
   257
 75
     1
175
     1
 42
1.0
 92
        0
 66
   257
 43
1.0
 76
     1
 77
     6
 78
     2
 67
     7
 79
     5
170
     0
171
     0
290
     0
174
     0
 93
        1
 44
0.0
173
     0
291
     0
 45
0.0
1001
ACAD
1000
AcDbSavedByObjectVersion
1070
     0
  0
VISUALSTYLE
  5
32
102
{ACAD_REACTORS
330
2A
102
}
330
2A
100
AcDbVisualStyle
  2
Basic
 70
     7
 71
     1
 72
     0
 73
     1
 90
        0
 40
-0.6
 41
-30.0
 62
     5
 63
     7
421
 16777215
 74
     0
 91
        4
 64
     7
 65
   257
 75
     1
175
     1
 42
1.0
 92
        8
 66
     7
 43
1.0
 76
     1
 77
     6
 78
     2
 67
     7
 79
     5
170
     0
171
     0
290
     0
174
     0
 93
        1
 44
0.0
173
     0
291
     1
 45
0.0
1001
ACAD
1000
AcDbSavedByObjectVersion
1070
     0
  0
VISUALSTYLE
  5
36
102
{ACAD_REACTORS
330
2A
102
}
330
2A
100
AcDbVisualStyle
  2
Brighten
 70
    12
 71
     2
 72
     2
 73
     0
 90
        0
 40
-0.6
 41
-30.0
 62
     5
 63
     7
421
 16777215
 74
     1
 91
        4
 64
     7
 65
   257
 75
     1
175
     1
 42
1.0
 92
        8
 66
     7
 43
1.0
 76
     1
 77
     6
 78
     2
 67
     7
 79
     5
170
     0
171
     0
290
     0
174
     0
 93
        1
 44
50.0
173
     0
291
     1
 45
0.0
1001
ACAD
1000
AcDbSavedByObjectVersion
1070
     0
  0
VISUALSTYLE
  5
3A
102
{ACAD_REACTORS
330
2A
102
}
330
2A
100
AcDbVisualStyle
  2
ColorChange
 70
    16
 71
     2
 72
     2
 73
     3
 90
        0
 40
-0.6
 41
-30.0
 62
     5
 63
     8
421
  8421504
 74
     1
 91
        4
 64
     7
 65
   257
 75
     1
175
     1
 42
1.0
 92
        8
 66
     8
424
  8421504
 43
1.0
 76
     1
 77
     6
 78
     2
 67
     7
 79
     5
170
     0
171
     0
290
     0
174
     0
 93
        1
 44
0.0
173
     0
291
     1
 45
0.0
1001
ACAD
1000
AcDbSavedByObjectVersion
1070
     0
  0
VISUALSTYLE
  5
34
102
{ACAD_REACTORS
330
2A
102
}
330
2A
100
AcDbVisualStyle
  2
Conceptual
 70
     9
 71
     3
 72
     2
 73
     0
 90
        0
 40
-0.6
 41
-30.0
 62
     5
 63
     7
421
 16777215
 74
     2
 91
        2
 64
     7
 65
   257
 75
     1
175
     1
 42
40.0
 92
        8
 66
     7
 43
1.0
 76
     1
 77
     6
 78
     2
 67
     7
 79
     3
170
     0
171
     0
290
     0
174
     0
 93
        1
 44
0.0
173
     0
291
     0
 45
0.0
1001
ACAD
1000
AcDbSavedByObjectVersion
1070
     0
  0
VISUALSTYLE
  5
35
102
{ACAD_REACTORS
330
2A
102
}
330
2A
100
AcDbVisualStyle
  2
Dim
 70
    11
 71
     2
 72
     2
 73
     0
 90
        0
 40
-0.6
 41
-30.0
 62
     5
 63
     7
421
 16777215
 74
     1
 91
        4
 64
     7
 65
   257
 75
     1
175
     1
 42
1.0
 92
        8
 66
     7
 43
1.0
 76
     1
 77
     6
 78
     2
 67
     7
 79
     5
170
     0
171
     0
290
     0
174
     0
 93
        1
 44
-50.0
173
     0
291
     1
 45
0.0
1001
ACAD
1000
AcDbSavedByObjectVersion
1070
     0
  0
VISUALSTYLE
  5
39
102
{ACAD_REACTORS
330
2A
102
}
330
2A
100
AcDbVisualStyle
  2
Facepattern
 70
    15
 71
     2
 72
     2
 73
     0
 90
        0
 40
-0.6
 41
-30.0
 62
     5
 63
     7
421
 16777215
 74
     1
 91
        4
 64
     7
 65
   257
 75
     1
175
     1
 42
1.0
 92
        8
 66
     7
 43
1.0
 76
     1
 77
     6
 78
     2
 67
     7
 79
     5
170
     0
171
     0
290
     0
174
     0
 93
        1
 44
0.0
173
     0
291
     1
 45
0.0
1001
ACAD
1000
AcDbSavedByObjectVersion
1070
     0
  0
VISUALSTYLE
  5
2B
102
{ACAD_REACTORS
330
2A
102
}
330
2A
100
AcDbVisualStyle
  2
Flat
 70
     0
 71
     2
 72
     1
 73
     1
 90
        2
 40
-0.6
 41
30.0
 62
     5
 63
     7
421
 16777215
 74
     0
 91
        4
 64
     7
 65
   257
 75
     1
175
     1
 42
1.0
 92
        8
 66
     7
 43
1.0
 76
     1
 77
     6
 78
     2
 67
     7
 79
     5
170
     0
171
     0
290
     0
174
     0
 93
       13
 44
0.0
173
     0
291
     1
 45
0.0
1001
ACAD
1000
AcDbSavedByObjectVersion
1070
     0
  0
VISUALSTYLE
  5
2C
102
{ACAD_REACTORS
330
2A
102
}
330
2A
100
AcDbVisualStyle
  2
FlatWithEdges
 70
     1
 71
     2
 72
     1
 73
     1
 90
        2
 40
-0.6
 41
30.0
 62
     5
 63
     7
421
 16777215
 74
     1
 91
        4
 64
     7
 65
   257
 75
     1
175
     1
 42
1.0
 92
        0
 66
   257
 43
1.0
 76
     1
 77
     6
 78
     2
 67
     7
 79
     5
170
     0
171
     0
290
     0
174
     0
 93
       13
 44
0.0
173
     0
291
     1
 45
0.0
1001
ACAD
1000
AcDbSavedByObjectVersion
1070
     0
  0
VISUALSTYLE
  5
2D
102
{ACAD_REACTORS
330
2A
102
}
330
2A
100
AcDbVisualStyle
  2
Gouraud
 70
     2
 71
     2
 72
     2
 73
     1
 90
        2
 40
-0.6
 41
30.0
 62
     5
 63
     7
421
 16777215
 74
     0
 91
        4
 64
     7
 65
   257
 75
     1
175
     1
 42
1.0
 92
        0
 66
     7
 43
1.0
 76
     1
 77
     6
 78
     2
 67
     7
 79
     5
170
     0
171
     0
290
     0
174
     0
 93
       13
 44
0.0
173
     0
291
     1
 45
0.0
1001
ACAD
1000
AcDbSavedByObjectVersion
1070
     0
  0
VISUALSTYLE
  5
2E
102
{ACAD_REACTORS
330
2A
102
}
330
2A
100
AcDbVisualStyle
  2
GouraudWithEdges
 70
     3
 71
     2
 72
     2
 73
     1
 90
        2
 40
-0.6
 41
30.0
 62
     5
 63
     7
421
 16777215
 74
     1
 91
        4
 64
     7
 65
   257
 75
     1
175
     1
 42
1.0
 92
        0
 66
   257
 43
1.0
 76
     1
 77
     6
 78
     2
 67
     7
 79
     5
170
     0
171
     0
290
     0
174
     0
 93
       13
 44
0.0
173
     0
291
     1
 45
0.0
1001
ACAD
1000
AcDbSavedByObjectVersion
1070
     0
  0
VISUALSTYLE
  5
38
102
{ACAD_REACTORS
330
2A
102
}
330
2A
100
AcDbVisualStyle
  2
Linepattern
 70
    14
 71
     2
 72
     2
 73
     0
 90
        0
 40
-0.6
 41
-30.0
 62
     5
 63
     7
421
 16777215
 74
     1
 91
        4
 64
     7
 65
   257
 75
     7
175
     7
 42
1.0
 92
        8
 66
     7
 43
1.0
 76
     1
 77
     6
 78
     2
 67
     7
 79
     5
170
     0
171
     0
290
     0
174
     0
 93
        1
 44
0.0
173
     0
291
     1
 45
0.0
1001
ACAD
1000
AcDbSavedByObjectVersion
1070
     0
  0
VISUALSTYLE
  5
33
102
{ACAD_REACTORS
330
2A
102
}
330
2A
100
AcDbVisualStyle
  2
Realistic
 70
     8
 71
     2
 72
     2
 73
     0
 90
        0
 40
-0.6
 41
-30.0
 62
     5
 63
     7
421
 16777215
 74
     1
 91
        0
 64
     7
 65
   257
 75
     1
175
     1
 42
1.0
 92
        8
 66
     8
424
  7895160
 43
1.0
 76
     1
 77
     6
 78
     2
 67
     7
 79
     5
170
     0
171
     0
290
     0
174
     0
 93
       13
 44
0.0
173
     0
291
     0
 45
0.0
1001
ACAD
1000
AcDbSavedByObjectVersion
1070
     0
  0
VISUALSTYLE
  5
37
102
{ACAD_REACTORS
330
2A
102
}
330
2A
100
AcDbVisualStyle
  2
Thicken
 70
    13
 71
     2
 72
     2
 73
     0
 90
        0
 40
-0.6
 41
-30.0
 62
     5
 63
     7
421
 16777215
 74
     1
 91
        4
 64
     7
 65
   257
 75
     1
175
     1
 42
1.0
 92
       12
 66
     7
 43
1.0
 76
     1
 77
     6
 78
     2
 67
     7
 79
     5
170
     0
171
     0
290
     0
174
     0
 93
        1
 44
0.0
173
     0
291
     1
 45
0.0
1001
ACAD
1000
AcDbSavedByObjectVersion
1070
     0
  0
ENDSEC
  0
EOF
