0
SECTION
2
HEADER
9
$ACADVER
1
AC1006
0
ENDSEC
0
SECTION
2
TABLES
0
TABLE
2
LAYER
70
1
0
LAYER
70
0
62
1
6
CONTINUOUS
2
L0D0_0
0
ENDTAB
0
ENDSEC
0
SECTION
2
BLOCKS
0
ENDSEC
0
SECTION
2
ENTITIES
0
POLYLINE
8
L0D0_0
70
1
40
0
41
0
66
1
0
VERTEX
8
L0D0_0
10
0
20
-5
0
VERTEX
8
L0D0_0
10
-0.49
20
-4.976
0
VERTEX
8
L0D0_0
10
-0.975
20
-4.904
0
VERTEX
8
L0D0_0
10
-1.451
20
-4.785
0
VERTEX
8
L0D0_0
10
-1.913
20
-4.619
0
VERTEX
8
L0D0_0
10
-2.357
20
-4.41
0
VERTEX
8
L0D0_0
10
-2.778
20
-4.157
0
VERTEX
8
L0D0_0
10
-3.172
20
-3.865
0
VERTEX
8
L0D0_0
10
-3.536
20
-3.536
0
VERTEX
8
L0D0_0
10
-3.865
20
-3.172
0
VERTEX
8
L0D0_0
10
-4.157
20
-2.778
0
VERTEX
8
L0D0_0
10
-4.41
20
-2.357
0
VERTEX
8
L0D0_0
10
-4.619
20
-1.913
0
VERTEX
8
L0D0_0
10
-4.785
20
-1.451
0
VERTEX
8
L0D0_0
10
-4.904
20
-0.975
0
VERTEX
8
L0D0_0
10
-4.976
20
-0.49
0
VERTEX
8
L0D0_0
10
-5
20
0
0
VERTEX
8
L0D0_0
10
-4.976
20
0.49
0
VERTEX
8
L0D0_0
10
-4.904
20
0.975
0
VERTEX
8
L0D0_0
10
-4.785
20
1.451
0
VERTEX
8
L0D0_0
10
-4.619
20
1.913
0
VERTEX
8
L0D0_0
10
-4.41
20
2.357
0
VERTEX
8
L0D0_0
10
-4.157
20
2.778
0
VERTEX
8
L0D0_0
10
-3.865
20
3.172
0
VERTEX
8
L0D0_0
10
-3.536
20
3.536
0
VERTEX
8
L0D0_0
10
-3.172
20
3.865
0
VERTEX
8
L0D0_0
10
-2.778
20
4.157
0
VERTEX
8
L0D0_0
10
-2.357
20
4.41
0
VERTEX
8
L0D0_0
10
-1.913
20
4.619
0
VERTEX
8
L0D0_0
10
-1.451
20
4.785
0
VERTEX
8
L0D0_0
10
-0.975
20
4.904
0
VERTEX
8
L0D0_0
10
-0.49
20
4.976
0
VERTEX
8
L0D0_0
10
0
20
5
0
VERTEX
8
L0D0_0
10
0.49
20
4.976
0
VERTEX
8
L0D0_0
10
0.975
20
4.904
0
VERTEX
8
L0D0_0
10
1.451
20
4.785
0
VERTEX
8
L0D0_0
10
1.913
20
4.619
0
VERTEX
8
L0D0_0
10
2.357
20
4.41
0
VERTEX
8
L0D0_0
10
2.778
20
4.157
0
VERTEX
8
L0D0_0
10
3.172
20
3.865
0
VERTEX
8
L0D0_0
10
3.536
20
3.536
0
VERTEX
8
L0D0_0
10
3.865
20
3.172
0
VERTEX
8
L0D0_0
10
4.157
20
2.778
0
VERTEX
8
L0D0_0
10
4.41
20
2.357
0
VERTEX
8
L0D0_0
10
4.619
20
1.913
0
VERTEX
8
L0D0_0
10
4.785
20
1.451
0
VERTEX
8
L0D0_0
10
4.904
20
0.975
0
VERTEX
8
L0D0_0
10
4.976
20
0.49
0
VERTEX
8
L0D0_0
10
5
20
0
0
VERTEX
8
L0D0_0
10
4.976
20
-0.49
0
VERTEX
8
L0D0_0
10
4.904
20
-0.975
0
VERTEX
8
L0D0_0
10
4.785
20
-1.451
0
VERTEX
8
L0D0_0
10
4.619
20
-1.913
0
VERTEX
8
L0D0_0
10
4.41
20
-2.357
0
VERTEX
8
L0D0_0
10
4.157
20
-2.778
0
VERTEX
8
L0D0_0
10
3.865
20
-3.172
0
VERTEX
8
L0D0_0
10
3.536
20
-3.536
0
VERTEX
8
L0D0_0
10
3.172
20
-3.865
0
VERTEX
8
L0D0_0
10
2.778
20
-4.157
0
VERTEX
8
L0D0_0
10
2.357
20
-4.41
0
VERTEX
8
L0D0_0
10
1.913
20
-4.619
0
VERTEX
8
L0D0_0
10
1.451
20
-4.785
0
VERTEX
8
L0D0_0
10
0.975
20
-4.904
0
VERTEX
8
L0D0_0
10
0.49
20
-4.976
0
SEQEND
0
ENDSEC
0
EOF
