0
SECTION
2
HEADER
9
$ACADVER
1
AC1006
0
ENDSEC
0
SECTION
2
TABLES
0
TABLE
2
LAYER
70
1
0
LAYER
70
0
62
1
6
CONTINUOUS
2
L0D0_0
0
ENDTAB
0
ENDSEC
0
SECTION
2
BLOCKS
0
ENDSEC
0
SECTION
2
ENTITIES
0
POLYLINE
8
L0D0_0
70
1
40
0
41
0
66
1
0
VERTEX
8
L0D0_0
10
711
20
1811.5
0
VERTEX
8
L0D0_0
10
711
20
1995.25
0
VERTEX
8
L0D0_0
10
1511
20
1995.25
0
VERTEX
8
L0D0_0
10
1511
20
1811.5
0
SEQEND
0
POLYLINE
8
L0D0_0
70
1
40
0
41
0
66
1
0
VERTEX
8
L0D0_0
10
711
20
1997.5
0
VERTEX
8
L0D0_0
10
711
20
2002.5
0
VERTEX
8
L0D0_0
10
1511
20
2002.5
0
VERTEX
8
L0D0_0
10
1511
20
1997.5
0
SEQEND
0
POLYLINE
8
L0D0_0
70
1
40
0
41
0
66
1
0
VERTEX
8
L0D0_0
10
711
20
2004.75
0
VERTEX
8
L0D0_0
10
711
20
2211.5
0
VERTEX
8
L0D0_0
10
1306.25
20
2211.5
0
VERTEX
8
L0D0_0
10
1306.25
20
2061.538
0
VERTEX
8
L0D0_0
10
1306.226
20
2060.05
0
VERTEX
8
L0D0_0
10
1306.156
20
2058.601
0
VERTEX
8
L0D0_0
10
1306.04
20
2057.155
0
VERTEX
8
L0D0_0
10
1305.878
20
2055.714
0
VERTEX
8
L0D0_0
10
1305.669
20
2054.278
0
VERTEX
8
L0D0_0
10
1305.415
20
2052.85
0
VERTEX
8
L0D0_0
10
1305.115
20
2051.431
0
VERTEX
8
L0D0_0
10
1304.77
20
2050.022
0
VERTEX
8
L0D0_0
10
1304.379
20
2048.625
0
VERTEX
8
L0D0_0
10
1303.944
20
2047.242
0
VERTEX
8
L0D0_0
10
1303.465
20
2045.872
0
VERTEX
8
L0D0_0
10
1302.942
20
2044.519
0
VERTEX
8
L0D0_0
10
1302.377
20
2043.184
0
VERTEX
8
L0D0_0
10
1301.768
20
2041.867
0
VERTEX
8
L0D0_0
10
1301.118
20
2040.57
0
VERTEX
8
L0D0_0
10
1300.427
20
2039.295
0
VERTEX
8
L0D0_0
10
1299.695
20
2038.043
0
VERTEX
8
L0D0_0
10
1298.923
20
2036.815
0
VERTEX
8
L0D0_0
10
1298.112
20
2035.612
0
VERTEX
8
L0D0_0
10
1297.263
20
2034.436
0
VERTEX
8
L0D0_0
10
1296.377
20
2033.287
0
VERTEX
8
L0D0_0
10
1295.455
20
2032.168
0
VERTEX
8
L0D0_0
10
1294.497
20
2031.079
0
VERTEX
8
L0D0_0
10
1293.505
20
2030.021
0
VERTEX
8
L0D0_0
10
1292.479
20
2028.995
0
VERTEX
8
L0D0_0
10
1291.421
20
2028.003
0
VERTEX
8
L0D0_0
10
1290.332
20
2027.045
0
VERTEX
8
L0D0_0
10
1289.213
20
2026.123
0
VERTEX
8
L0D0_0
10
1288.064
20
2025.237
0
VERTEX
8
L0D0_0
10
1286.888
20
2024.388
0
VERTEX
8
L0D0_0
10
1285.685
20
2023.577
0
VERTEX
8
L0D0_0
10
1284.457
20
2022.805
0
VERTEX
8
L0D0_0
10
1283.205
20
2022.073
0
VERTEX
8
L0D0_0
10
1281.93
20
2021.382
0
VERTEX
8
L0D0_0
10
1280.633
20
2020.732
0
VERTEX
8
L0D0_0
10
1279.316
20
2020.123
0
VERTEX
8
L0D0_0
10
1277.981
20
2019.558
0
VERTEX
8
L0D0_0
10
1276.628
20
2019.035
0
VERTEX
8
L0D0_0
10
1275.258
20
2018.556
0
VERTEX
8
L0D0_0
10
1273.875
20
2018.121
0
VERTEX
8
L0D0_0
10
1272.478
20
2017.73
0
VERTEX
8
L0D0_0
10
1271.069
20
2017.385
0
VERTEX
8
L0D0_0
10
1269.65
20
2017.085
0
VERTEX
8
L0D0_0
10
1268.222
20
2016.831
0
VERTEX
8
L0D0_0
10
1266.786
20
2016.622
0
VERTEX
8
L0D0_0
10
1265.345
20
2016.46
0
VERTEX
8
L0D0_0
10
1263.899
20
2016.344
0
VERTEX
8
L0D0_0
10
1262.45
20
2016.274
0
VERTEX
8
L0D0_0
10
1260.962
20
2016.25
0
VERTEX
8
L0D0_0
10
958.75
20
2016.25
0
VERTEX
8
L0D0_0
10
958.75
20
2006.75
0
VERTEX
8
L0D0_0
10
1261
20
2006.75
0
VERTEX
8
L0D0_0
10
1261.076
20
2006.751
0
VERTEX
8
L0D0_0
10
1262.679
20
2006.776
0
VERTEX
8
L0D0_0
10
1262.831
20
2006.781
0
VERTEX
8
L0D0_0
10
1264.432
20
2006.858
0
VERTEX
8
L0D0_0
10
1264.584
20
2006.868
0
VERTEX
8
L0D0_0
10
1266.181
20
2006.996
0
VERTEX
8
L0D0_0
10
1266.333
20
2007.011
0
VERTEX
8
L0D0_0
10
1267.926
20
2007.19
0
VERTEX
8
L0D0_0
10
1268.077
20
2007.21
0
VERTEX
8
L0D0_0
10
1269.663
20
2007.44
0
VERTEX
8
L0D0_0
10
1269.813
20
2007.465
0
VERTEX
8
L0D0_0
10
1271.391
20
2007.746
0
VERTEX
8
L0D0_0
10
1271.541
20
2007.775
0
VERTEX
8
L0D0_0
10
1273.109
20
2008.106
0
VERTEX
8
L0D0_0
10
1273.257
20
2008.14
0
VERTEX
8
L0D0_0
10
1274.814
20
2008.522
0
VERTEX
8
L0D0_0
10
1274.961
20
2008.561
0
VERTEX
8
L0D0_0
10
1276.505
20
2008.992
0
VERTEX
8
L0D0_0
10
1276.651
20
2009.035
0
VERTEX
8
L0D0_0
10
1278.18
20
2009.516
0
VERTEX
8
L0D0_0
10
1278.324
20
2009.564
0
VERTEX
8
L0D0_0
10
1279.837
20
2010.093
0
VERTEX
8
L0D0_0
10
1279.98
20
2010.146
0
VERTEX
8
L0D0_0
10
1281.475
20
2010.723
0
VERTEX
8
L0D0_0
10
1281.616
20
2010.78
0
VERTEX
8
L0D0_0
10
1283.092
20
2011.406
0
VERTEX
8
L0D0_0
10
1283.231
20
2011.467
0
VERTEX
8
L0D0_0
10
1284.686
20
2012.139
0
VERTEX
8
L0D0_0
10
1284.823
20
2012.206
0
VERTEX
8
L0D0_0
10
1286.256
20
2012.924
0
VERTEX
8
L0D0_0
10
1286.391
20
2012.994
0
VERTEX
8
L0D0_0
10
1287.8
20
2013.758
0
VERTEX
8
L0D0_0
10
1287.933
20
2013.833
0
VERTEX
8
L0D0_0
10
1289.317
20
2014.642
0
VERTEX
8
L0D0_0
10
1289.447
20
2014.721
0
VERTEX
8
L0D0_0
10
1290.804
20
2015.574
0
VERTEX
8
L0D0_0
10
1290.932
20
2015.657
0
VERTEX
8
L0D0_0
10
1292.261
20
2016.553
0
VERTEX
8
L0D0_0
10
1292.385
20
2016.64
0
VERTEX
8
L0D0_0
10
1293.685
20
2017.578
0
VERTEX
8
L0D0_0
10
1293.807
20
2017.669
0
VERTEX
8
L0D0_0
10
1295.076
20
2018.648
0
VERTEX
8
L0D0_0
10
1295.195
20
2018.743
0
VERTEX
8
L0D0_0
10
1296.432
20
2019.762
0
VERTEX
8
L0D0_0
10
1296.548
20
2019.861
0
VERTEX
8
L0D0_0
10
1297.752
20
2020.919
0
VERTEX
8
L0D0_0
10
1297.864
20
2021.021
0
VERTEX
8
L0D0_0
10
1299.034
20
2022.118
0
VERTEX
8
L0D0_0
10
1299.143
20
2022.224
0
VERTEX
8
L0D0_0
10
1300.276
20
2023.357
0
VERTEX
8
L0D0_0
10
1300.382
20
2023.466
0
VERTEX
8
L0D0_0
10
1301.479
20
2024.636
0
VERTEX
8
L0D0_0
10
1301.581
20
2024.748
0
VERTEX
8
L0D0_0
10
1302.639
20
2025.952
0
VERTEX
8
L0D0_0
10
1302.738
20
2026.068
0
VERTEX
8
L0D0_0
10
1303.757
20
2027.305
0
VERTEX
8
L0D0_0
10
1303.852
20
2027.424
0
VERTEX
8
L0D0_0
10
1304.831
20
2028.693
0
VERTEX
8
L0D0_0
10
1304.922
20
2028.815
0
VERTEX
8
L0D0_0
10
1305.86
20
2030.115
0
VERTEX
8
L0D0_0
10
1305.947
20
2030.239
0
VERTEX
8
L0D0_0
10
1306.843
20
2031.568
0
VERTEX
8
L0D0_0
10
1306.926
20
2031.696
0
VERTEX
8
L0D0_0
10
1307.779
20
2033.053
0
VERTEX
8
L0D0_0
10
1307.858
20
2033.183
0
VERTEX
8
L0D0_0
10
1308.667
20
2034.567
0
VERTEX
8
L0D0_0
10
1308.742
20
2034.7
0
VERTEX
8
L0D0_0
10
1309.506
20
2036.109
0
VERTEX
8
L0D0_0
10
1309.576
20
2036.244
0
VERTEX
8
L0D0_0
10
1310.294
20
2037.677
0
VERTEX
8
L0D0_0
10
1310.361
20
2037.814
0
VERTEX
8
L0D0_0
10
1311.033
20
2039.269
0
VERTEX
8
L0D0_0
10
1311.094
20
2039.408
0
VERTEX
8
L0D0_0
10
1311.72
20
2040.884
0
VERTEX
8
L0D0_0
10
1311.777
20
2041.025
0
VERTEX
8
L0D0_0
10
1312.354
20
2042.52
0
VERTEX
8
L0D0_0
10
1312.407
20
2042.663
0
VERTEX
8
L0D0_0
10
1312.936
20
2044.176
0
VERTEX
8
L0D0_0
10
1312.984
20
2044.32
0
VERTEX
8
L0D0_0
10
1313.465
20
2045.849
0
VERTEX
8
L0D0_0
10
1313.508
20
2045.995
0
VERTEX
8
L0D0_0
10
1313.939
20
2047.539
0
VERTEX
8
L0D0_0
10
1313.978
20
2047.686
0
VERTEX
8
L0D0_0
10
1314.36
20
2049.243
0
VERTEX
8
L0D0_0
10
1314.394
20
2049.391
0
VERTEX
8
L0D0_0
10
1314.725
20
2050.959
0
VERTEX
8
L0D0_0
10
1314.754
20
2051.109
0
VERTEX
8
L0D0_0
10
1315.035
20
2052.687
0
VERTEX
8
L0D0_0
10
1315.06
20
2052.837
0
VERTEX
8
L0D0_0
10
1315.29
20
2054.423
0
VERTEX
8
L0D0_0
10
1315.31
20
2054.574
0
VERTEX
8
L0D0_0
10
1315.489
20
2056.167
0
VERTEX
8
L0D0_0
10
1315.504
20
2056.319
0
VERTEX
8
L0D0_0
10
1315.632
20
2057.916
0
VERTEX
8
L0D0_0
10
1315.642
20
2058.068
0
VERTEX
8
L0D0_0
10
1315.719
20
2059.669
0
VERTEX
8
L0D0_0
10
1315.724
20
2059.821
0
VERTEX
8
L0D0_0
10
1315.749
20
2061.424
0
VERTEX
8
L0D0_0
10
1315.75
20
2061.5
0
VERTEX
8
L0D0_0
10
1315.75
20
2211.5
0
VERTEX
8
L0D0_0
10
1511
20
2211.5
0
VERTEX
8
L0D0_0
10
1511
20
2004.75
0
SEQEND
0
POLYLINE
8
L0D0_0
70
1
40
0
41
0
66
1
0
VERTEX
8
L0D0_0
10
961
20
2009
0
VERTEX
8
L0D0_0
10
961
20
2014
0
VERTEX
8
L0D0_0
10
1260.98
20
2014
0
VERTEX
8
L0D0_0
10
1262.522
20
2014.025
0
VERTEX
8
L0D0_0
10
1264.043
20
2014.098
0
VERTEX
8
L0D0_0
10
1265.561
20
2014.22
0
VERTEX
8
L0D0_0
10
1267.074
20
2014.39
0
VERTEX
8
L0D0_0
10
1268.581
20
2014.609
0
VERTEX
8
L0D0_0
10
1270.08
20
2014.876
0
VERTEX
8
L0D0_0
10
1271.57
20
2015.191
0
VERTEX
8
L0D0_0
10
1273.049
20
2015.554
0
VERTEX
8
L0D0_0
10
1274.515
20
2015.964
0
VERTEX
8
L0D0_0
10
1275.968
20
2016.42
0
VERTEX
8
L0D0_0
10
1277.405
20
2016.923
0
VERTEX
8
L0D0_0
10
1278.825
20
2017.472
0
VERTEX
8
L0D0_0
10
1280.227
20
2018.066
0
VERTEX
8
L0D0_0
10
1281.609
20
2018.704
0
VERTEX
8
L0D0_0
10
1282.97
20
2019.387
0
VERTEX
8
L0D0_0
10
1284.309
20
2020.113
0
VERTEX
8
L0D0_0
10
1285.623
20
2020.881
0
VERTEX
8
L0D0_0
10
1286.913
20
2021.691
0
VERTEX
8
L0D0_0
10
1288.175
20
2022.542
0
VERTEX
8
L0D0_0
10
1289.41
20
2023.433
0
VERTEX
8
L0D0_0
10
1290.616
20
2024.363
0
VERTEX
8
L0D0_0
10
1291.791
20
2025.332
0
VERTEX
8
L0D0_0
10
1292.934
20
2026.337
0
VERTEX
8
L0D0_0
10
1294.045
20
2027.379
0
VERTEX
8
L0D0_0
10
1295.121
20
2028.455
0
VERTEX
8
L0D0_0
10
1296.163
20
2029.566
0
VERTEX
8
L0D0_0
10
1297.168
20
2030.709
0
VERTEX
8
L0D0_0
10
1298.137
20
2031.884
0
VERTEX
8
L0D0_0
10
1299.067
20
2033.09
0
VERTEX
8
L0D0_0
10
1299.958
20
2034.325
0
VERTEX
8
L0D0_0
10
1300.809
20
2035.587
0
VERTEX
8
L0D0_0
10
1301.619
20
2036.877
0
VERTEX
8
L0D0_0
10
1302.387
20
2038.191
0
VERTEX
8
L0D0_0
10
1303.113
20
2039.53
0
VERTEX
8
L0D0_0
10
1303.796
20
2040.891
0
VERTEX
8
L0D0_0
10
1304.434
20
2042.273
0
VERTEX
8
L0D0_0
10
1305.028
20
2043.675
0
VERTEX
8
L0D0_0
10
1305.577
20
2045.095
0
VERTEX
8
L0D0_0
10
1306.08
20
2046.532
0
VERTEX
8
L0D0_0
10
1306.536
20
2047.985
0
VERTEX
8
L0D0_0
10
1306.946
20
2049.451
0
VERTEX
8
L0D0_0
10
1307.309
20
2050.93
0
VERTEX
8
L0D0_0
10
1307.624
20
2052.42
0
VERTEX
8
L0D0_0
10
1307.891
20
2053.919
0
VERTEX
8
L0D0_0
10
1308.11
20
2055.426
0
VERTEX
8
L0D0_0
10
1308.28
20
2056.939
0
VERTEX
8
L0D0_0
10
1308.402
20
2058.457
0
VERTEX
8
L0D0_0
10
1308.475
20
2059.978
0
VERTEX
8
L0D0_0
10
1308.5
20
2061.52
0
VERTEX
8
L0D0_0
10
1308.5
20
2211.5
0
VERTEX
8
L0D0_0
10
1313.5
20
2211.5
0
VERTEX
8
L0D0_0
10
1313.5
20
2061.46
0
VERTEX
8
L0D0_0
10
1313.474
20
2059.857
0
VERTEX
8
L0D0_0
10
1313.471
20
2059.777
0
VERTEX
8
L0D0_0
10
1313.394
20
2058.176
0
VERTEX
8
L0D0_0
10
1313.389
20
2058.096
0
VERTEX
8
L0D0_0
10
1313.261
20
2056.499
0
VERTEX
8
L0D0_0
10
1313.253
20
2056.419
0
VERTEX
8
L0D0_0
10
1313.074
20
2054.826
0
VERTEX
8
L0D0_0
10
1313.064
20
2054.747
0
VERTEX
8
L0D0_0
10
1312.833
20
2053.161
0
VERTEX
8
L0D0_0
10
1312.82
20
2053.082
0
VERTEX
8
L0D0_0
10
1312.539
20
2051.504
0
VERTEX
8
L0D0_0
10
1312.524
20
2051.425
0
VERTEX
8
L0D0_0
10
1312.192
20
2049.857
0
VERTEX
8
L0D0_0
10
1312.174
20
2049.779
0
VERTEX
8
L0D0_0
10
1311.793
20
2048.222
0
VERTEX
8
L0D0_0
10
1311.773
20
2048.144
0
VERTEX
8
L0D0_0
10
1311.341
20
2046.601
0
VERTEX
8
L0D0_0
10
1311.318
20
2046.524
0
VERTEX
8
L0D0_0
10
1310.838
20
2044.995
0
VERTEX
8
L0D0_0
10
1310.812
20
2044.919
0
VERTEX
8
L0D0_0
10
1310.283
20
2043.406
0
VERTEX
8
L0D0_0
10
1310.255
20
2043.331
0
VERTEX
8
L0D0_0
10
1309.678
20
2041.836
0
VERTEX
8
L0D0_0
10
1309.648
20
2041.761
0
VERTEX
8
L0D0_0
10
1309.023
20
2040.286
0
VERTEX
8
L0D0_0
10
1308.99
20
2040.212
0
VERTEX
8
L0D0_0
10
1308.318
20
2038.757
0
VERTEX
8
L0D0_0
10
1308.283
20
2038.685
0
VERTEX
8
L0D0_0
10
1307.565
20
2037.252
0
VERTEX
8
L0D0_0
10
1307.528
20
2037.181
0
VERTEX
8
L0D0_0
10
1306.764
20
2035.772
0
VERTEX
8
L0D0_0
10
1306.724
20
2035.703
0
VERTEX
8
L0D0_0
10
1305.915
20
2034.319
0
VERTEX
8
L0D0_0
10
1305.874
20
2034.25
0
VERTEX
8
L0D0_0
10
1305.021
20
2032.893
0
VERTEX
8
L0D0_0
10
1304.977
20
2032.826
0
VERTEX
8
L0D0_0
10
1304.082
20
2031.497
0
VERTEX
8
L0D0_0
10
1304.036
20
2031.431
0
VERTEX
8
L0D0_0
10
1303.098
20
2030.132
0
VERTEX
8
L0D0_0
10
1303.05
20
2030.067
0
VERTEX
8
L0D0_0
10
1302.071
20
2028.798
0
VERTEX
8
L0D0_0
10
1302.021
20
2028.736
0
VERTEX
8
L0D0_0
10
1301.002
20
2027.499
0
VERTEX
8
L0D0_0
10
1300.95
20
2027.438
0
VERTEX
8
L0D0_0
10
1299.891
20
2026.234
0
VERTEX
8
L0D0_0
10
1299.837
20
2026.175
0
VERTEX
8
L0D0_0
10
1298.741
20
2025.006
0
VERTEX
8
L0D0_0
10
1298.685
20
2024.948
0
VERTEX
8
L0D0_0
10
1297.552
20
2023.815
0
VERTEX
8
L0D0_0
10
1297.494
20
2023.759
0
VERTEX
8
L0D0_0
10
1296.325
20
2022.663
0
VERTEX
8
L0D0_0
10
1296.266
20
2022.609
0
VERTEX
8
L0D0_0
10
1295.062
20
2021.55
0
VERTEX
8
L0D0_0
10
1295.001
20
2021.498
0
VERTEX
8
L0D0_0
10
1293.764
20
2020.479
0
VERTEX
8
L0D0_0
10
1293.702
20
2020.429
0
VERTEX
8
L0D0_0
10
1292.433
20
2019.45
0
VERTEX
8
L0D0_0
10
1292.368
20
2019.402
0
VERTEX
8
L0D0_0
10
1291.069
20
2018.464
0
VERTEX
8
L0D0_0
10
1291.003
20
2018.418
0
VERTEX
8
L0D0_0
10
1289.674
20
2017.523
0
VERTEX
8
L0D0_0
10
1289.607
20
2017.479
0
VERTEX
8
L0D0_0
10
1288.25
20
2016.626
0
VERTEX
8
L0D0_0
10
1288.181
20
2016.585
0
VERTEX
8
L0D0_0
10
1286.797
20
2015.776
0
VERTEX
8
L0D0_0
10
1286.728
20
2015.736
0
VERTEX
8
L0D0_0
10
1285.319
20
2014.972
0
VERTEX
8
L0D0_0
10
1285.248
20
2014.935
0
VERTEX
8
L0D0_0
10
1283.815
20
2014.217
0
VERTEX
8
L0D0_0
10
1283.743
20
2014.182
0
VERTEX
8
L0D0_0
10
1282.288
20
2013.51
0
VERTEX
8
L0D0_0
10
1282.214
20
2013.477
0
VERTEX
8
L0D0_0
10
1280.739
20
2012.852
0
VERTEX
8
L0D0_0
10
1280.664
20
2012.822
0
VERTEX
8
L0D0_0
10
1279.169
20
2012.245
0
VERTEX
8
L0D0_0
10
1279.094
20
2012.217
0
VERTEX
8
L0D0_0
10
1277.581
20
2011.688
0
VERTEX
8
L0D0_0
10
1277.505
20
2011.662
0
VERTEX
8
L0D0_0
10
1275.976
20
2011.182
0
VERTEX
8
L0D0_0
10
1275.899
20
2011.159
0
VERTEX
8
L0D0_0
10
1274.356
20
2010.727
0
VERTEX
8
L0D0_0
10
1274.278
20
2010.707
0
VERTEX
8
L0D0_0
10
1272.721
20
2010.326
0
VERTEX
8
L0D0_0
10
1272.643
20
2010.308
0
VERTEX
8
L0D0_0
10
1271.075
20
2009.976
0
VERTEX
8
L0D0_0
10
1270.996
20
2009.961
0
VERTEX
8
L0D0_0
10
1269.418
20
2009.68
0
VERTEX
8
L0D0_0
10
1269.339
20
2009.667
0
VERTEX
8
L0D0_0
10
1267.753
20
2009.436
0
VERTEX
8
L0D0_0
10
1267.674
20
2009.426
0
VERTEX
8
L0D0_0
10
1266.081
20
2009.247
0
VERTEX
8
L0D0_0
10
1266.001
20
2009.239
0
VERTEX
8
L0D0_0
10
1264.404
20
2009.111
0
VERTEX
8
L0D0_0
10
1264.324
20
2009.106
0
VERTEX
8
L0D0_0
10
1262.723
20
2009.029
0
VERTEX
8
L0D0_0
10
1262.643
20
2009.026
0
VERTEX
8
L0D0_0
10
1261.04
20
2009
0
SEQEND
0
ENDSEC
0
EOF
