  0
SECTION
  2
HEADER
  9
$ACADVER
  1
AC1018
  9
$ACADMAINTVER
 70
     0
  9
$DWGCODEPAGE
  3
ANSI_1252
  9
$INSBASE
 10
0.0
 20
0.0
 30
0.0
  9
$EXTMIN
 10
711
 20
1811.5
 30
0.0
  9
$EXTMAX
 10
1511
 20
2211.5
 30
0.0
  9
$LIMMIN
 10
0.0
 20
0.0
  9
$LIMMAX
 10
12.0
 20
9.0
  9
$ORTHOMODE
 70
     0
  9
$REGENMODE
 70
     1
  9
$FILLMODE
 70
     1
  9
$QTEXTMODE
 70
     0
  9
$MIRRTEXT
 70
     1
  9
$LTSCALE
 40
1.0
  9
$ATTMODE
 70
     1
  9
$TEXTSIZE
 40
0.2
  9
$TRACEWID
 40
0.05
  9
$TEXTSTYLE
  7
Standard
  9
$CLAYER
  8
0
  9
$CELTYPE
  6
ByLayer
  9
$CECOLOR
 62
   256
  9
$CELTSCALE
 40
1.0
  9
$DISPSILH
 70
     0
  9
$DIMSCALE
 40
1.0
  9
$DIMASZ
 40
0.18
  9
$DIMEXO
 40
0.0625
  9
$DIMDLI
 40
0.38
  9
$DIMRND
 40
0.0
  9
$DIMDLE
 40
0.0
  9
$DIMEXE
 40
0.18
  9
$DIMTP
 40
0.0
  9
$DIMTM
 40
0.0
  9
$DIMTXT
 40
0.18
  9
$DIMCEN
 40
0.09
  9
$DIMTSZ
 40
0.0
  9
$DIMTOL
 70
     0
  9
$DIMLIM
 70
     0
  9
$DIMTIH
 70
     1
  9
$DIMTOH
 70
     1
  9
$DIMSE1
 70
     0
  9
$DIMSE2
 70
     0
  9
$DIMTAD
 70
     0
  9
$DIMZIN
 70
     0
  9
$DIMBLK
  1

  9
$DIMASO
 70
     1
  9
$DIMSHO
 70
     1
  9
$DIMPOST
  1

  9
$DIMAPOST
  1

  9
$DIMALT
 70
     0
  9
$DIMALTD
 70
     2
  9
$DIMALTF
 40
25.4
  9
$DIMLFAC
 40
1.0
  9
$DIMTOFL
 70
     0
  9
$DIMTVP
 40
0.0
  9
$DIMTIX
 70
     0
  9
$DIMSOXD
 70
     0
  9
$DIMSAH
 70
     0
  9
$DIMBLK1
  1

  9
$DIMBLK2
  1

  9
$DIMSTYLE
  2
Standard
  9
$DIMCLRD
 70
     0
  9
$DIMCLRE
 70
     0
  9
$DIMCLRT
 70
     0
  9
$DIMTFAC
 40
1.0
  9
$DIMGAP
 40
0.09
  9
$DIMJUST
 70
     0
  9
$DIMSD1
 70
     0
  9
$DIMSD2
 70
     0
  9
$DIMTOLJ
 70
     1
  9
$DIMTZIN
 70
     0
  9
$DIMALTZ
 70
     0
  9
$DIMALTTZ
 70
     0
  9
$DIMUPT
 70
     0
  9
$DIMDEC
 70
     4
  9
$DIMTDEC
 70
     4
  9
$DIMALTU
 70
     2
  9
$DIMALTTD
 70
     2
  9
$DIMTXSTY
  7
Standard
  9
$DIMAUNIT
 70
     0
  9
$DIMADEC
 70
     0
  9
$DIMALTRND
 40
0.0
  9
$DIMAZIN
 70
     0
  9
$DIMDSEP
 70
    46
  9
$DIMATFIT
 70
     3
  9
$DIMFRAC
 70
     0
  9
$DIMLDRBLK
  1

  9
$DIMLUNIT
 70
     2
  9
$DIMLWD
 70
    -2
  9
$DIMLWE
 70
    -2
  9
$DIMTMOVE
 70
     0
  9
$LUNITS
 70
     2
  9
$LUPREC
 70
     4
  9
$SKETCHINC
 40
0.1
  9
$FILLETRAD
 40
0.5
  9
$AUNITS
 70
     0
  9
$AUPREC
 70
     0
  9
$MENU
  1
.
  9
$ELEVATION
 40
0.0
  9
$PELEVATION
 40
0.0
  9
$THICKNESS
 40
0.0
  9
$LIMCHECK
 70
     0
  9
$CHAMFERA
 40
0.5
  9
$CHAMFERB
 40
0.5
  9
$CHAMFERC
 40
1.0
  9
$CHAMFERD
 40
0.0
  9
$SKPOLY
 70
     0
  9
$TDCREATE
 40
2455343.56230316
  9
$TDUCREATE
 40
2455343.728969826
  9
$TDUPDATE
 40
2455343.562303171
  9
$TDUUPDATE
 40
2455343.728969838
  9
$TDINDWG
 40
0.0000000116
  9
$TDUSRTIMER
 40
0.0000000116
  9
$USRTIMER
 70
     1
  9
$ANGBASE
 50
0.0
  9
$ANGDIR
 70
     0
  9
$PDMODE
 70
     0
  9
$PDSIZE
 40
0.0
  9
$PLINEWID
 40
0.0
  9
$SPLFRAME
 70
     0
  9
$SPLINETYPE
 70
     6
  9
$SPLINESEGS
 70
     8
  9
$HANDSEED
  5
00020004
  9
$SURFTAB1
 70
     6
  9
$SURFTAB2
 70
     6
  9
$SURFTYPE
 70
     6
  9
$SURFU
 70
     6
  9
$SURFV
 70
     6
  9
$UCSBASE
  2

  9
$UCSNAME
  2

  9
$UCSORG
 10
0.0
 20
0.0
 30
0.0
  9
$UCSXDIR
 10
1.0
 20
0.0
 30
0.0
  9
$UCSYDIR
 10
0.0
 20
1.0
 30
0.0
  9
$UCSORTHOREF
  2

  9
$UCSORTHOVIEW
 70
     0
  9
$UCSORGTOP
 10
0.0
 20
0.0
 30
0.0
  9
$UCSORGBOTTOM
 10
0.0
 20
0.0
 30
0.0
  9
$UCSORGLEFT
 10
0.0
 20
0.0
 30
0.0
  9
$UCSORGRIGHT
 10
0.0
 20
0.0
 30
0.0
  9
$UCSORGFRONT
 10
0.0
 20
0.0
 30
0.0
  9
$UCSORGBACK
 10
0.0
 20
0.0
 30
0.0
  9
$PUCSBASE
  2

  9
$PUCSNAME
  2

  9
$PUCSORG
 10
0.0
 20
0.0
 30
0.0
  9
$PUCSXDIR
 10
1.0
 20
0.0
 30
0.0
  9
$PUCSYDIR
 10
0.0
 20
1.0
 30
0.0
  9
$PUCSORTHOREF
  2

  9
$PUCSORTHOVIEW
 70
     0
  9
$PUCSORGTOP
 10
0.0
 20
0.0
 30
0.0
  9
$PUCSORGBOTTOM
 10
0.0
 20
0.0
 30
0.0
  9
$PUCSORGLEFT
 10
0.0
 20
0.0
 30
0.0
  9
$PUCSORGRIGHT
 10
0.0
 20
0.0
 30
0.0
  9
$PUCSORGFRONT
 10
0.0
 20
0.0
 30
0.0
  9
$PUCSORGBACK
 10
0.0
 20
0.0
 30
0.0
  9
$USERI1
 70
     0
  9
$USERI2
 70
     0
  9
$USERI3
 70
     0
  9
$USERI4
 70
     0
  9
$USERI5
 70
     0
  9
$USERR1
 40
0.0
  9
$USERR2
 40
0.0
  9
$USERR3
 40
0.0
  9
$USERR4
 40
0.0
  9
$USERR5
 40
0.0
  9
$WORLDVIEW
 70
     1
  9
$SHADEDGE
 70
     3
  9
$SHADEDIF
 70
    70
  9
$TILEMODE
 70
     1
  9
$MAXACTVP
 70
    64
  9
$PINSBASE
 10
0.0
 20
0.0
 30
0.0
  9
$PLIMCHECK
 70
     0
  9
$PEXTMIN
 10
1.000000000000000E+20
 20
1.000000000000000E+20
 30
1.000000000000000E+20
  9
$PEXTMAX
 10
-1.000000000000000E+20
 20
-1.000000000000000E+20
 30
-1.000000000000000E+20
  9
$PLIMMIN
 10
0.0
 20
0.0
  9
$PLIMMAX
 10
12.0
 20
9.0
  9
$UNITMODE
 70
     0
  9
$VISRETAIN
 70
     1
  9
$PLINEGEN
 70
     0
  9
$PSLTSCALE
 70
     1
  9
$TREEDEPTH
 70
  3020
  9
$CMLSTYLE
  2
Standard
  9
$CMLJUST
 70
     0
  9
$CMLSCALE
 40
1.0
  9
$PROXYGRAPHICS
 70
     1
  9
$MEASUREMENT
 70
     0
  9
$CELWEIGHT
370
    -1
  9
$ENDCAPS
280
     0
  9
$JOINSTYLE
280
     0
  9
$LWDISPLAY
290
     0
  9
$INSUNITS
 70
     1
  9
$HYPERLINKBASE
  1

  9
$STYLESHEET
  1

  9
$XEDIT
290
     1
  9
$CEPSNTYPE
380
     0
  9
$PSTYLEMODE
290
     1
  9
$FINGERPRINTGUID
  2
{E7F7769E-AACA-40AB-9EF3-61BBAFBCBA26}
  9
$VERSIONGUID
  2
{FAEB1C32-E019-11D5-929B-00C0DF256EC4}
  9
$EXTNAMES
290
     1
  9
$PSVPSCALE
 40
0.0
  9
$OLESTARTUP
290
     0
  9
$SORTENTS
280
   127
  9
$INDEXCTL
280
     0
  9
$HIDETEXT
280
     1
  9
$XCLIPFRAME
290
     0
  9
$HALOGAP
280
     0
  9
$OBSCOLOR
 70
   257
  9
$OBSLTYPE
280
     0
  9
$INTERSECTIONDISPLAY
280
     0
  9
$INTERSECTIONCOLOR
 70
   257
  9
$DIMASSOC
280
     2
  9
$PROJECTNAME
  1

  0
ENDSEC
  0
SECTION
  2
CLASSES
  0
CLASS
  1
ACDBDICTIONARYWDFLT
  2
AcDbDictionaryWithDefault
  3
ObjectDBX Classes
 90
        0
 91
        4
280
     0
281
     0
  0
CLASS
  1
VISUALSTYLE
  2
AcDbVisualStyle
  3
ObjectDBX Classes
 90
     4095
 91
        4
280
     0
281
     0
  0
ENDSEC
  0
SECTION
  2
TABLES
  0
TABLE
  2
VPORT
  5
8
330
0
100
AcDbSymbolTable
 70
     1
  0
VPORT
  5
29
330
8
100
AcDbSymbolTableRecord
100
AcDbViewportTableRecord
  2
*Active
 70
     0
 10
0.0
 20
0.0
 11
1.0
 21
1.0
 12
80.25
 22
106.4409457059851
 13
0.0
 23
0.0
 14
0.5
 24
0.5
 15
0.5
 25
0.5
 16
0.0
 26
0.0
 36
1.0
 17
0.0
 27
0.0
 37
0.0
 40
113.3818914119703
 41
0.8863849310366128
 42
50.0
 43
0.0
 44
0.0
 50
0.0
 51
0.0
 71
     0
 72
  1000
 73
     1
 74
     3
 75
     0
 76
     0
 77
     0
 78
     0
281
     0
 65
     1
110
0.0
120
0.0
130
0.0
111
1.0
121
0.0
131
0.0
112
0.0
122
1.0
132
0.0
 79
     0
146
0.0
  0
ENDTAB
  0
TABLE
  2
LTYPE
  5
5
330
0
100
AcDbSymbolTable
 70
     1
  0
LTYPE
  5
14
330
5
100
AcDbSymbolTableRecord
100
AcDbLinetypeTableRecord
  2
ByBlock
 70
     0
  3

 72
    65
 73
     0
 40
0.0
  0
LTYPE
  5
15
330
5
100
AcDbSymbolTableRecord
100
AcDbLinetypeTableRecord
  2
ByLayer
 70
     0
  3

 72
    65
 73
     0
 40
0.0
  0
LTYPE
  5
16
330
5
100
AcDbSymbolTableRecord
100
AcDbLinetypeTableRecord
  2
Continuous
 70
     0
  3
Solid line
 72
    65
 73
     0
 40
0.0
  0
ENDTAB
  0
TABLE
  2
LAYER
  5
2
330
0
100
AcDbSymbolTable
 70
     1
  0
LAYER
  5
10
330
2
100
AcDbSymbolTableRecord
100
AcDbLayerTableRecord
  2
0
 70
     0
 62
     7
  6
Continuous
370
    -3
390
F
  0
ENDTAB
  0
TABLE
  2
STYLE
  5
3
330
0
100
AcDbSymbolTable
 70
     1
  0
STYLE
  5
11
330
3
100
AcDbSymbolTableRecord
100
AcDbTextStyleTableRecord
  2
Standard
 70
     0
 40
0.0
 41
1.0
 50
0.0
 71
     0
 42
0.2
  3
txt
  4

  0
ENDTAB
  0
TABLE
  2
VIEW
  5
6
330
0
100
AcDbSymbolTable
 70
     0
  0
ENDTAB
  0
TABLE
  2
UCS
  5
7
330
0
100
AcDbSymbolTable
 70
     0
  0
ENDTAB
  0
TABLE
  2
APPID
  5
9
330
0
100
AcDbSymbolTable
 70
     1
  0
APPID
  5
12
330
9
100
AcDbSymbolTableRecord
100
AcDbRegAppTableRecord
  2
ACAD
 70
     0
  0
ENDTAB
  0
TABLE
  2
DIMSTYLE
  5
A
330
0
100
AcDbSymbolTable
 70
     1
100
AcDbDimStyleTable
  0
DIMSTYLE
105
27
330
A
100
AcDbSymbolTableRecord
100
AcDbDimStyleTableRecord
  2
Standard
 70
     0
340
11
  0
ENDTAB
  0
TABLE
  2
BLOCK_RECORD
  5
1
330
0
100
AcDbSymbolTable
 70
     1
  0
BLOCK_RECORD
  5
1F
330
1
100
AcDbSymbolTableRecord
100
AcDbBlockTableRecord
  2
*Model_Space
340
22
  0
BLOCK_RECORD
  5
1B
330
1
100
AcDbSymbolTableRecord
100
AcDbBlockTableRecord
  2
*Paper_Space
340
1E
  0
BLOCK_RECORD
  5
23
330
1
100
AcDbSymbolTableRecord
100
AcDbBlockTableRecord
  2
*Paper_Space0
340
26
  0
ENDTAB
  0
ENDSEC
  0
SECTION
  2
BLOCKS
  0
BLOCK
  5
20
330
1F
100
AcDbEntity
  8
0
100
AcDbBlockBegin
  2
*Model_Space
 70
     0
 10
0.0
 20
0.0
 30
0.0
  3
*Model_Space
  1

  0
ENDBLK
  5
21
330
1F
100
AcDbEntity
  8
0
100
AcDbBlockEnd
  0
BLOCK
  5
1C
330
1B
100
AcDbEntity
 67
     1
  8
0
100
AcDbBlockBegin
  2
*Paper_Space
 70
     0
 10
0.0
 20
0.0
 30
0.0
  3
*Paper_Space
  1

  0
ENDBLK
  5
1D
330
1B
100
AcDbEntity
 67
     1
  8
0
100
AcDbBlockEnd
  0
BLOCK
  5
24
330
23
100
AcDbEntity
  8
0
100
AcDbBlockBegin
  2
*Paper_Space0
 70
     0
 10
0.0
 20
0.0
 30
0.0
  3
*Paper_Space0
  1

  0
ENDBLK
  5
25
330
23
100
AcDbEntity
  8
0
100
AcDbBlockEnd
  0
ENDSEC
  0
SECTION
  2
ENTITIES
  0
HATCH
  5
20000
  8
0
100
AcDbEntity
100
AcDbHatch
 10
0
 20
0
 30
0
210
0
220
0
230
1
  2
SOLID
 70
1
 71
0
 91
1
 92
2
 72
0
 73
1
 93
5
 10
711
 20
1811.5
 10
711
 20
1995.25
 10
1511
 20
1995.25
 10
1511
 20
1811.5
 10
711
 20
1811.5
 97
0
 75
0
 76
1
 98
0
  0
HATCH
  5
20001
  8
0
100
AcDbEntity
100
AcDbHatch
 10
0
 20
0
 30
0
210
0
220
0
230
1
  2
SOLID
 70
1
 71
0
 91
1
 92
2
 72
0
 73
1
 93
5
 10
711
 20
1997.5
 10
711
 20
2002.5
 10
1511
 20
2002.5
 10
1511
 20
1997.5
 10
711
 20
1997.5
 97
0
 75
0
 76
1
 98
0
  0
HATCH
  5
20002
  8
0
100
AcDbEntity
100
AcDbHatch
 10
0
 20
0
 30
0
210
0
220
0
230
1
  2
SOLID
 70
1
 71
0
 91
1
 92
2
 72
0
 73
1
 93
161
 10
711
 20
2004.75
 10
711
 20
2211.5
 10
1306.25
 20
2211.5
 10
1306.25
 20
2061.53806858315
 10
1306.22614136077
 20
2060.04968567391
 10
1306.15642003991
 20
2058.60086164382
 10
1306.04029744494
 20
2057.15501667437
 10
1305.87789289969
 20
2055.713636469
 10
1305.6693732858
 20
2054.27820214332
 10
1305.41495287127
 20
2052.85018870311
 10
1305.11489309028
 20
2051.43106352873
 10
1304.76950227452
 20
2050.02228486721
 10
1304.37913533643
 20
2048.62530033388
 10
1303.9441934044
 20
2047.24154542476
 10
1303.46512341069
 20
2045.87244204157
 10
1302.94241763208
 20
2044.51939703058
 10
1302.37661318411
 20
2043.18380073701
 10
1301.76829146909
 20
2041.86702557634
 10
1301.11807757871
 20
2040.57042462404
 10
1300.42663965168
 20
2039.29533022526
 10
1299.69468818723
 20
2038.04305262567
 10
1298.92297531496
 20
2036.81487862517
 10
1298.11229402201
 20
2035.61207025556
 10
1297.26347733821
 20
2034.43586348375
 10
1296.37739748009
 20
2033.28746694171
 10
1295.45496495459
 20
2032.16806068452
 10
1294.49712762349
 20
2031.07879497777
 10
1293.5048697294
 20
2030.02078911562
 10
1292.47921088438
 20
2028.9951302706
 10
1291.42120502223
 20
2028.00287237651
 10
1290.33193931548
 20
2027.04503504541
 10
1289.21253305829
 20
2026.12260251991
 10
1288.06413651625
 20
2025.23652266179
 10
1286.88792974444
 20
2024.38770597799
 10
1285.68512137483
 20
2023.57702468504
 10
1284.45694737433
 20
2022.80531181277
 10
1283.20466977474
 20
2022.07336034832
 10
1281.92957537596
 20
2021.38192242129
 10
1280.63297442366
 20
2020.73170853091
 10
1279.31619926298
 20
2020.12338681589
 10
1277.98060296942
 20
2019.55758236792
 10
1276.62755795843
 20
2019.03487658931
 10
1275.25845457524
 20
2018.5558065956
 10
1273.87469966612
 20
2018.12086466357
 10
1272.47771513279
 20
2017.73049772547
 10
1271.06893647127
 20
2017.38510690972
 10
1269.64981129689
 20
2017.08504712873
 10
1268.22179785669
 20
2016.8306267142
 10
1266.786363531
 20
2016.62210710031
 10
1265.34498332563
 20
2016.45970255506
 10
1263.89913835618
 20
2016.34357996009
 10
1262.4503143261
 20
2016.27385863923
 10
1260.96193141684
 20
2016.25
 10
961
 20
2016.25
 10
958.75
 20
2016.25
 10
958.75
 20
2006.75
 10
961
 20
2006.75
 10
1261
 20
2006.75
 10
1261.07613227624
 20
2006.75061015745
 10
1262.67871115483
 20
2006.77629934742
 10
1262.83089747625
 20
2006.78117966653
 10
1264.43182959671
 20
2006.85822083905
 10
1264.58378130534
 20
2006.86797646242
 10
1266.18142160169
 20
2006.99629045248
 10
1266.33298255687
 20
2007.01091135555
 10
1267.92568934572
 20
2007.19036631184
 10
1268.07670380833
 20
2007.20983747064
 10
1269.66284047578
 20
2007.44024899108
 10
1269.81315326825
 20
2007.46455039768
 10
1271.39108995165
 20
2007.74568171885
 10
1271.54054661743
 20
2007.7747884019
 10
1273.10866188017
 20
2008.10635064236
 10
1273.25710884243
 20
2008.14023269279
 10
1274.81379134009
 20
2008.52188514993
 10
1274.96107605953
 20
2008.56050775163
 10
1276.50472619561
 20
2008.99185825175
 10
1276.65069732724
 20
2009.0351817174
 10
1278.17972889686
 20
2009.5157870187
 10
1278.32423644547
 20
2009.5637668305
 10
1279.83707826535
 20
2010.09313307855
 10
1279.97997373966
 20
2010.145719934
 10
1281.47507126256
 20
2010.72330316919
 10
1281.61620782781
 20
2010.78044303175
 10
1283.09202473996
 20
2011.40564974826
 10
1283.23125736879
 20
2011.46728390286
 10
1284.68627716855
 20
2012.13947165853
 10
1284.82346279003
 20
2012.20553677189
 10
1286.25619034619
 20
2012.92401484836
 10
1286.39118799281
 20
2012.99444303414
 10
1287.80015108097
 20
2013.75847314662
 10
1287.93282203352
 20
2013.83319203507
 10
1289.31657284885
 20
2014.64198909097
 10
1289.44678077897
 20
2014.7209219034
 10
1290.80389742398
 20
2015.57365480907
 10
1290.93150853421
 20
2015.65672043667
 10
1292.26059647979
 20
2016.55251295142
 10
1292.3854796411
 20
2016.63962603864
 10
1293.68517315955
 20
2017.57755767509
 10
1293.80720004604
 20
2017.66862870735
 10
1295.07616361442
 20
2018.64773567735
 10
1295.19520883522
 20
2018.74267107301
 10
1296.43213850767
 20
2019.76194727795
 10
1296.54807973576
 20
2019.86064948447
 10
1297.75170448344
 20
2020.91904754917
 10
1297.86442258138
 20
2021.02141514336
 10
1299.03350559849
 20
2022.11784749224
 10
1299.14288474081
 20
2022.22377528448
 10
1300.27622471552
 20
2023.35711525919
 10
1300.38215250776
 20
2023.46649440151
 10
1301.47858485664
 20
2024.63557741862
 10
1301.58095245083
 20
2024.74829551656
 10
1302.63935051553
 20
2025.95192026424
 10
1302.73805272205
 20
2026.06786149233
 10
1303.75732892699
 20
2027.30479116478
 10
1303.85226432265
 20
2027.42383638558
 10
1304.83137129265
 20
2028.69279995396
 10
1304.92244232491
 20
2028.81482684045
 10
1305.86037396136
 20
2030.1145203589
 10
1305.94748704858
 20
2030.23940352021
 10
1306.84327956333
 20
2031.56849146579
 10
1306.92634519093
 20
2031.69610257602
 10
1307.7790780966
 20
2033.05321922103
 10
1307.85801090903
 20
2033.18342715115
 10
1308.66680796493
 20
2034.56717796648
 10
1308.74152685338
 20
2034.69984891903
 10
1309.50555696586
 20
2036.10881200719
 10
1309.57598515164
 20
2036.24380965381
 10
1310.29446322811
 20
2037.67653720997
 10
1310.36052834147
 20
2037.81372283145
 10
1311.03271609714
 20
2039.26874263121
 10
1311.09435025174
 20
2039.40797526004
 10
1311.71955696825
 20
2040.88379217219
 10
1311.77669683081
 20
2041.02492873744
 10
1312.354280066
 20
2042.52002626034
 10
1312.40686692145
 20
2042.66292173465
 10
1312.9362331695
 20
2044.17576355453
 10
1312.9842129813
 20
2044.32027110314
 10
1313.4648182826
 20
2045.84930267276
 10
1313.50814174825
 20
2045.99527380439
 10
1313.93949224837
 20
2047.53892394047
 10
1313.97811485007
 20
2047.68620865991
 10
1314.35976730721
 20
2049.24289115757
 10
1314.39364935764
 20
2049.39133811982
 10
1314.7252115981
 20
2050.95945338257
 10
1314.75431828116
 20
2051.10891004835
 10
1315.03544960232
 20
2052.68684673175
 10
1315.05975100892
 20
2052.83715952422
 10
1315.29016252936
 20
2054.42329619167
 10
1315.30963368816
 20
2054.57431065428
 10
1315.48908864445
 20
2056.16701744313
 10
1315.50370954752
 20
2056.31857839831
 10
1315.63202353758
 20
2057.91621869466
 10
1315.64177916095
 20
2058.06817040329
 10
1315.71882033347
 20
2059.66910252375
 10
1315.72370065258
 20
2059.82128884517
 10
1315.74938984255
 20
2061.42386772376
 10
1315.75
 20
2061.5
 10
1315.75
 20
2211.5
 10
1511
 20
2211.5
 10
1511
 20
2004.75
 10
711
 20
2004.75
 97
0
 75
0
 76
1
 98
0
  0
HATCH
  5
20003
  8
0
100
AcDbEntity
100
AcDbHatch
 10
0
 20
0
 30
0
210
0
220
0
230
1
  2
SOLID
 70
1
 71
0
 91
1
 92
2
 72
0
 73
1
 93
155
 10
1308.5
 20
2211.5
 10
1313.5
 20
2211.5
 10
1313.5
 20
2061.5
 10
1313.4996788645
 20
2061.45993038092
 10
1313.47398967453
 20
2059.85735150234
 10
1313.47142108553
 20
2059.77725343843
 10
1313.39437991301
 20
2058.17632131798
 10
1313.38924537439
 20
2058.09634673449
 10
1313.26093138433
 20
2056.49870643814
 10
1313.25323617219
 20
2056.41893751436
 10
1313.0737812159
 20
2054.82623072552
 10
1313.06353323758
 20
2054.7467494294
 10
1312.83312171714
 20
2053.16061276196
 10
1312.82033150314
 20
2053.08150076592
 10
1312.53920018198
 20
2051.50356408252
 10
1312.52388087511
 20
2051.42490267948
 10
1312.19231863464
 20
2049.85678741673
 10
1312.17448597652
 20
2049.7786574366
 10
1311.79283351938
 20
2048.22197493894
 10
1311.77250583428
 20
2048.14445666555
 10
1311.34115533416
 20
2046.60080652947
 10
1311.31835351013
 20
2046.52397961809
 10
1310.83774820883
 20
2044.99494804846
 10
1310.8124956763
 20
2044.91889144393
 10
1310.28312942826
 20
2043.40604962405
 10
1310.25545213591
 20
2043.33084147968
 10
1309.67786890073
 20
2041.83574395677
 10
1309.64779528885
 20
2041.76146155401
 10
1309.02258857234
 20
2040.28564464186
 10
1308.99014954361
 20
2040.21236431089
 10
1308.31796178794
 20
2038.75734451114
 10
1308.28319067564
 20
2038.68514155246
 10
1307.56471259917
 20
2037.2524139963
 10
1307.52764513297
 20
2037.18136260334
 10
1306.76361502049
 20
2035.77239951519
 10
1306.72428928973
 20
2035.70257269805
 10
1305.91549223383
 20
2034.31882188272
 10
1305.87394864834
 20
2034.25029139319
 10
1305.02121574266
 20
2032.89317474818
 10
1304.9774969913
 20
2032.82601100596
 10
1304.08170447655
 20
2031.49692306037
 10
1304.03585548328
 20
2031.43119508074
 10
1303.09792384683
 20
2030.13150156229
 10
1303.04999172458
 20
2030.06727688519
 10
1302.07088475458
 20
2028.79831331681
 10
1302.02091875687
 20
2028.73565793744
 10
1301.00164255192
 20
2027.49872826499
 10
1300.94969402218
 20
2027.43770656599
 10
1299.89129595749
 20
2026.23408181832
 10
1299.83741827633
 20
2026.17475650361
 10
1298.74098592745
 20
2025.0056734865
 10
1298.68523445785
 20
2024.94810551686
 10
1297.55189448314
 20
2023.81476554215
 10
1297.4943265135
 20
2023.75901407255
 10
1296.32524349639
 20
2022.66258172367
 10
1296.26591818168
 20
2022.60870404251
 10
1295.06229343401
 20
2021.55030597782
 10
1295.00127173501
 20
2021.49835744808
 10
1293.76434206256
 20
2020.47908124313
 10
1293.70168668319
 20
2020.42911524541
 10
1292.43272311481
 20
2019.45000827542
 10
1292.36849843771
 20
2019.40207615317
 10
1291.06880491926
 20
2018.46414451672
 10
1291.00307693963
 20
2018.41829552345
 10
1289.67398899405
 20
2017.5225030087
 10
1289.60682525182
 20
2017.47878425734
 10
1288.24970860681
 20
2016.62605135166
 10
1288.18117811728
 20
2016.58450776617
 10
1286.79742730195
 20
2015.77571071027
 10
1286.72760048481
 20
2015.73638497951
 10
1285.31863739666
 20
2014.97235486703
 10
1285.2475860037
 20
2014.93528740083
 10
1283.81485844754
 20
2014.21680932436
 10
1283.74265548886
 20
2014.18203821206
 10
1282.28763568911
 20
2013.50985045639
 10
1282.21435535814
 20
2013.47741142766
 10
1280.73853844599
 20
2012.85220471115
 10
1280.66425604323
 20
2012.82213109927
 10
1279.16915852033
 20
2012.24454786409
 10
1279.09395037595
 20
2012.21687057174
 10
1277.58110855607
 20
2011.6875043237
 10
1277.50505195154
 20
2011.66225179117
 10
1275.97602038191
 20
2011.18164648987
 10
1275.89919347053
 20
2011.15884466584
 10
1274.35554333445
 20
2010.72749416572
 10
1274.27802506106
 20
2010.70716648062
 10
1272.7213425634
 20
2010.32551402348
 10
1272.64321258327
 20
2010.30768136536
 10
1271.07509732052
 20
2009.97611912489
 10
1270.99643591748
 20
2009.96079981803
 10
1269.41849923408
 20
2009.67966849686
 10
1269.33938723804
 20
2009.66687828286
 10
1267.7532505706
 20
2009.43646676242
 10
1267.67376927448
 20
2009.4262187841
 10
1266.08106248564
 20
2009.24676382781
 10
1266.00129356186
 20
2009.23906861567
 10
1264.40365326551
 20
2009.11075462561
 10
1264.32367868202
 20
2009.10562008699
 10
1262.72274656157
 20
2009.02857891447
 10
1262.64264849766
 20
2009.02601032547
 10
1261.04006961908
 20
2009.0003211355
 10
1261
 20
2009
 10
961
 20
2009
 10
961
 20
2014
 10
1260.9799639036
 20
2014
 10
1262.52243964043
 20
2014.02472574221
 10
1264.04331487122
 20
2014.09791436122
 10
1265.56106289025
 20
2014.21981182755
 10
1267.07412410884
 20
2014.3902928833
 10
1268.58094375431
 20
2014.60918234766
 10
1270.07997346761
 20
2014.87625529691
 10
1271.56967289437
 20
2015.19123729555
 10
1273.04851126775
 20
2015.55380467827
 10
1274.51496898133
 20
2015.96358488259
 10
1275.96753915069
 20
2016.42015683164
 10
1277.40472916178
 20
2016.92305136688
 10
1278.82506220473
 20
2017.47175173018
 10
1280.22707879131
 20
2018.06569409483
 10
1281.60933825471
 20
2018.70426814489
 10
1282.97042022989
 20
2019.38681770237
 10
1284.30892611312
 20
2020.11264140145
 10
1285.62348049911
 20
2020.88099340923
 10
1286.91273259437
 20
2021.69108419206
 10
1288.17535760523
 20
2022.54208132691
 10
1289.41005809913
 20
2023.4331103567
 10
1290.61556533786
 20
2024.36325568887
 10
1291.79064058123
 20
2025.33156153621
 10
1292.93407635999
 20
2026.33703289901
 10
1294.0446977166
 20
2027.37863658747
 10
1295.12136341253
 20
2028.4553022834
 10
1296.16296710099
 20
2029.56592364001
 10
1297.16843846379
 20
2030.70935941877
 10
1298.13674431113
 20
2031.88443466214
 10
1299.0668896433
 20
2033.08994190087
 10
1299.95791867309
 20
2034.32464239477
 10
1300.80891580794
 20
2035.58726740563
 10
1301.61900659077
 20
2036.87651950089
 10
1302.38735859855
 20
2038.19107388689
 10
1303.11318229763
 20
2039.52957977011
 10
1303.79573185511
 20
2040.89066174529
 10
1304.43430590517
 20
2042.27292120869
 10
1305.02824826982
 20
2043.67493779527
 10
1305.57694863312
 20
2045.09527083822
 10
1306.07984316836
 20
2046.53246084931
 10
1306.53641511741
 20
2047.98503101867
 10
1306.94619532173
 20
2049.45148873225
 10
1307.30876270445
 20
2050.93032710563
 10
1307.62374470309
 20
2052.42002653239
 10
1307.89081765234
 20
2053.91905624569
 10
1308.1097071167
 20
2055.42587589116
 10
1308.28018817245
 20
2056.93893710975
 10
1308.40208563878
 20
2058.45668512878
 10
1308.47527425779
 20
2059.97756035957
 10
1308.5
 20
2061.5200360964
 10
1308.5
 20
2211.5
 97
0
 75
0
 76
1
 98
0
  0
ENDSEC
  0
SECTION
  2
OBJECTS
  0
DICTIONARY
  5
C
330
0
100
AcDbDictionary
281
     1
  3
ACAD_GROUP
350
D
  3
ACAD_LAYOUT
350
1A
  3
ACAD_MLEADERSTYLE
350
43
  3
ACAD_MLINESTYLE
350
17
  3
ACAD_PLOTSETTINGS
350
19
  3
ACAD_PLOTSTYLENAME
350
E
  3
ACAD_TABLESTYLE
350
42
  3
ACAD_VISUALSTYLE
350
2A
  0
DICTIONARY
  5
D
102
{ACAD_REACTORS
330
C
102
}
330
C
100
AcDbDictionary
281
     1
  0
DICTIONARY
  5
1A
102
{ACAD_REACTORS
330
C
102
}
330
C
100
AcDbDictionary
281
     1
  3
Layout1
350
1E
  3
Layout2
350
26
  3
Model
350
22
  0
DICTIONARY
  5
43
102
{ACAD_REACTORS
330
C
102
}
330
C
100
AcDbDictionary
281
     1
  0
DICTIONARY
  5
17
102
{ACAD_REACTORS
330
C
102
}
330
C
100
AcDbDictionary
281
     1
  3
Standard
350
18
  0
DICTIONARY
  5
19
102
{ACAD_REACTORS
330
C
102
}
330
C
100
AcDbDictionary
281
     1
  0
ACDBDICTIONARYWDFLT
  5
E
102
{ACAD_REACTORS
330
C
102
}
330
C
100
AcDbDictionary
281
     1
  3
Normal
350
F
100
AcDbDictionaryWithDefault
340
F
  0
DICTIONARY
  5
42
102
{ACAD_REACTORS
330
C
102
}
330
C
100
AcDbDictionary
281
     1
  0
DICTIONARY
  5
2A
102
{ACAD_REACTORS
330
C
102
}
330
C
100
AcDbDictionary
281
     1
  3
2dWireframe
350
2F
  3
3D Hidden
350
31
  3
3dWireframe
350
30
  3
Basic
350
32
  3
Brighten
350
36
  3
ColorChange
350
3A
  3
Conceptual
350
34
  3
Dim
350
35
  3
Facepattern
350
39
  3
Flat
350
2B
  3
FlatWithEdges
350
2C
  3
Gouraud
350
2D
  3
GouraudWithEdges
350
2E
  3
Linepattern
350
38
  3
Realistic
350
33
  3
Thicken
350
37
  0
LAYOUT
  5
1E
102
{ACAD_REACTORS
330
1A
102
}
330
1A
100
AcDbPlotSettings
  1

  2
none_device
  4

  6

 40
0.0
 41
0.0
 42
0.0
 43
0.0
 44
0.0
 45
0.0
 46
0.0
 47
0.0
 48
0.0
 49
0.0
140
0.0
141
0.0
142
1.0
143
1.0
 70
   688
 72
     0
 73
     0
 74
     5
  7

 75
    16
 76
     0
 77
     2
 78
   300
147
1.0
148
0.0
149
0.0
100
AcDbLayout
  1
Layout1
 70
     1
 71
     1
 10
0.0
 20
0.0
 11
12.0
 21
9.0
 12
0.0
 22
0.0
 32
0.0
 14
1.000000000000000E+20
 24
1.000000000000000E+20
 34
1.000000000000000E+20
 15
-1.000000000000000E+20
 25
-1.000000000000000E+20
 35
-1.000000000000000E+20
146
0.0
 13
0.0
 23
0.0
 33
0.0
 16
1.0
 26
0.0
 36
0.0
 17
0.0
 27
1.0
 37
0.0
 76
     0
330
1B
  0
LAYOUT
  5
26
102
{ACAD_REACTORS
330
1A
102
}
330
1A
100
AcDbPlotSettings
  1

  2
none_device
  4

  6

 40
0.0
 41
0.0
 42
0.0
 43
0.0
 44
0.0
 45
0.0
 46
0.0
 47
0.0
 48
0.0
 49
0.0
140
0.0
141
0.0
142
1.0
143
1.0
 70
   688
 72
     0
 73
     0
 74
     5
  7

 75
    16
 76
     0
 77
     2
 78
   300
147
1.0
148
0.0
149
0.0
100
AcDbLayout
  1
Layout2
 70
     1
 71
     2
 10
0.0
 20
0.0
 11
0.0
 21
0.0
 12
0.0
 22
0.0
 32
0.0
 14
0.0
 24
0.0
 34
0.0
 15
0.0
 25
0.0
 35
0.0
146
0.0
 13
0.0
 23
0.0
 33
0.0
 16
1.0
 26
0.0
 36
0.0
 17
0.0
 27
1.0
 37
0.0
 76
     0
330
23
  0
LAYOUT
  5
22
102
{ACAD_REACTORS
330
1A
102
}
330
1A
100
AcDbPlotSettings
  1

  2
none_device
  4

  6

 40
0.0
 41
0.0
 42
0.0
 43
0.0
 44
0.0
 45
0.0
 46
0.0
 47
0.0
 48
0.0
 49
0.0
140
0.0
141
0.0
142
1.0
143
1.0
 70
  1712
 72
     0
 73
     0
 74
     0
  7

 75
     0
 76
     0
 77
     2
 78
   300
147
1.0
148
0.0
149
0.0
100
AcDbLayout
  1
Model
 70
     1
 71
     0
 10
0.0
 20
0.0
 11
12.0
 21
9.0
 12
0.0
 22
0.0
 32
0.0
 14
30.0
 24
49.75
 34
0.0
 15
130.5
 25
163.1318914119703
 35
0.0
146
0.0
 13
0.0
 23
0.0
 33
0.0
 16
1.0
 26
0.0
 36
0.0
 17
0.0
 27
1.0
 37
0.0
 76
     0
330
1F
331
29
  0
MLINESTYLE
  5
18
102
{ACAD_REACTORS
330
17
102
}
330
17
100
AcDbMlineStyle
  2
Standard
 70
     0
  3

 62
   256
 51
90.0
 52
90.0
 71
     2
 49
0.5
 62
   256
  6
BYLAYER
 49
-0.5
 62
   256
  6
BYLAYER
  0
ACDBPLACEHOLDER
  5
F
102
{ACAD_REACTORS
330
E
102
}
330
E
  0
VISUALSTYLE
  5
2F
102
{ACAD_REACTORS
330
2A
102
}
330
2A
100
AcDbVisualStyle
  2
2dWireframe
 70
     4
 71
     0
 72
     2
 73
     0
 90
        0
 40
-0.6
 41
-30.0
 62
     5
 63
     7
421
 16777215
 74
     1
 91
        4
 64
     7
 65
   257
 75
     1
175
     1
 42
1.0
 92
        0
 66
   257
 43
1.0
 76
     1
 77
     6
 78
     2
 67
     7
 79
     5
170
     0
171
     0
290
     0
174
     0
 93
        1
 44
0.0
173
     0
291
     0
 45
0.0
1001
ACAD
1000
AcDbSavedByObjectVersion
1070
     0
  0
VISUALSTYLE
  5
31
102
{ACAD_REACTORS
330
2A
102
}
330
2A
100
AcDbVisualStyle
  2
3D Hidden
 70
     6
 71
     1
 72
     2
 73
     2
 90
        0
 40
-0.6
 41
-30.0
 62
     5
 63
     7
421
 16777215
 74
     2
 91
        2
 64
     7
 65
   257
 75
     2
175
     1
 42
40.0
 92
        0
 66
   257
 43
1.0
 76
     1
 77
     6
 78
     2
 67
     7
 79
     3
170
     0
171
     0
290
     0
174
     0
 93
        1
 44
0.0
173
     0
291
     0
 45
0.0
1001
ACAD
1000
AcDbSavedByObjectVersion
1070
     0
  0
VISUALSTYLE
  5
30
102
{ACAD_REACTORS
330
2A
102
}
330
2A
100
AcDbVisualStyle
  2
3dWireframe
 70
     5
 71
     0
 72
     2
 73
     0
 90
        0
 40
-0.6
 41
-30.0
 62
     5
 63
     7
421
 16777215
 74
     1
 91
        4
 64
     7
 65
   257
 75
     1
175
     1
 42
1.0
 92
        0
 66
   257
 43
1.0
 76
     1
 77
     6
 78
     2
 67
     7
 79
     5
170
     0
171
     0
290
     0
174
     0
 93
        1
 44
0.0
173
     0
291
     0
 45
0.0
1001
ACAD
1000
AcDbSavedByObjectVersion
1070
     0
  0
VISUALSTYLE
  5
32
102
{ACAD_REACTORS
330
2A
102
}
330
2A
100
AcDbVisualStyle
  2
Basic
 70
     7
 71
     1
 72
     0
 73
     1
 90
        0
 40
-0.6
 41
-30.0
 62
     5
 63
     7
421
 16777215
 74
     0
 91
        4
 64
     7
 65
   257
 75
     1
175
     1
 42
1.0
 92
        8
 66
     7
 43
1.0
 76
     1
 77
     6
 78
     2
 67
     7
 79
     5
170
     0
171
     0
290
     0
174
     0
 93
        1
 44
0.0
173
     0
291
     1
 45
0.0
1001
ACAD
1000
AcDbSavedByObjectVersion
1070
     0
  0
VISUALSTYLE
  5
36
102
{ACAD_REACTORS
330
2A
102
}
330
2A
100
AcDbVisualStyle
  2
Brighten
 70
    12
 71
     2
 72
     2
 73
     0
 90
        0
 40
-0.6
 41
-30.0
 62
     5
 63
     7
421
 16777215
 74
     1
 91
        4
 64
     7
 65
   257
 75
     1
175
     1
 42
1.0
 92
        8
 66
     7
 43
1.0
 76
     1
 77
     6
 78
     2
 67
     7
 79
     5
170
     0
171
     0
290
     0
174
     0
 93
        1
 44
50.0
173
     0
291
     1
 45
0.0
1001
ACAD
1000
AcDbSavedByObjectVersion
1070
     0
  0
VISUALSTYLE
  5
3A
102
{ACAD_REACTORS
330
2A
102
}
330
2A
100
AcDbVisualStyle
  2
ColorChange
 70
    16
 71
     2
 72
     2
 73
     3
 90
        0
 40
-0.6
 41
-30.0
 62
     5
 63
     8
421
  8421504
 74
     1
 91
        4
 64
     7
 65
   257
 75
     1
175
     1
 42
1.0
 92
        8
 66
     8
424
  8421504
 43
1.0
 76
     1
 77
     6
 78
     2
 67
     7
 79
     5
170
     0
171
     0
290
     0
174
     0
 93
        1
 44
0.0
173
     0
291
     1
 45
0.0
1001
ACAD
1000
AcDbSavedByObjectVersion
1070
     0
  0
VISUALSTYLE
  5
34
102
{ACAD_REACTORS
330
2A
102
}
330
2A
100
AcDbVisualStyle
  2
Conceptual
 70
     9
 71
     3
 72
     2
 73
     0
 90
        0
 40
-0.6
 41
-30.0
 62
     5
 63
     7
421
 16777215
 74
     2
 91
        2
 64
     7
 65
   257
 75
     1
175
     1
 42
40.0
 92
        8
 66
     7
 43
1.0
 76
     1
 77
     6
 78
     2
 67
     7
 79
     3
170
     0
171
     0
290
     0
174
     0
 93
        1
 44
0.0
173
     0
291
     0
 45
0.0
1001
ACAD
1000
AcDbSavedByObjectVersion
1070
     0
  0
VISUALSTYLE
  5
35
102
{ACAD_REACTORS
330
2A
102
}
330
2A
100
AcDbVisualStyle
  2
Dim
 70
    11
 71
     2
 72
     2
 73
     0
 90
        0
 40
-0.6
 41
-30.0
 62
     5
 63
     7
421
 16777215
 74
     1
 91
        4
 64
     7
 65
   257
 75
     1
175
     1
 42
1.0
 92
        8
 66
     7
 43
1.0
 76
     1
 77
     6
 78
     2
 67
     7
 79
     5
170
     0
171
     0
290
     0
174
     0
 93
        1
 44
-50.0
173
     0
291
     1
 45
0.0
1001
ACAD
1000
AcDbSavedByObjectVersion
1070
     0
  0
VISUALSTYLE
  5
39
102
{ACAD_REACTORS
330
2A
102
}
330
2A
100
AcDbVisualStyle
  2
Facepattern
 70
    15
 71
     2
 72
     2
 73
     0
 90
        0
 40
-0.6
 41
-30.0
 62
     5
 63
     7
421
 16777215
 74
     1
 91
        4
 64
     7
 65
   257
 75
     1
175
     1
 42
1.0
 92
        8
 66
     7
 43
1.0
 76
     1
 77
     6
 78
     2
 67
     7
 79
     5
170
     0
171
     0
290
     0
174
     0
 93
        1
 44
0.0
173
     0
291
     1
 45
0.0
1001
ACAD
1000
AcDbSavedByObjectVersion
1070
     0
  0
VISUALSTYLE
  5
2B
102
{ACAD_REACTORS
330
2A
102
}
330
2A
100
AcDbVisualStyle
  2
Flat
 70
     0
 71
     2
 72
     1
 73
     1
 90
        2
 40
-0.6
 41
30.0
 62
     5
 63
     7
421
 16777215
 74
     0
 91
        4
 64
     7
 65
   257
 75
     1
175
     1
 42
1.0
 92
        8
 66
     7
 43
1.0
 76
     1
 77
     6
 78
     2
 67
     7
 79
     5
170
     0
171
     0
290
     0
174
     0
 93
       13
 44
0.0
173
     0
291
     1
 45
0.0
1001
ACAD
1000
AcDbSavedByObjectVersion
1070
     0
  0
VISUALSTYLE
  5
2C
102
{ACAD_REACTORS
330
2A
102
}
330
2A
100
AcDbVisualStyle
  2
FlatWithEdges
 70
     1
 71
     2
 72
     1
 73
     1
 90
        2
 40
-0.6
 41
30.0
 62
     5
 63
     7
421
 16777215
 74
     1
 91
        4
 64
     7
 65
   257
 75
     1
175
     1
 42
1.0
 92
        0
 66
   257
 43
1.0
 76
     1
 77
     6
 78
     2
 67
     7
 79
     5
170
     0
171
     0
290
     0
174
     0
 93
       13
 44
0.0
173
     0
291
     1
 45
0.0
1001
ACAD
1000
AcDbSavedByObjectVersion
1070
     0
  0
VISUALSTYLE
  5
2D
102
{ACAD_REACTORS
330
2A
102
}
330
2A
100
AcDbVisualStyle
  2
Gouraud
 70
     2
 71
     2
 72
     2
 73
     1
 90
        2
 40
-0.6
 41
30.0
 62
     5
 63
     7
421
 16777215
 74
     0
 91
        4
 64
     7
 65
   257
 75
     1
175
     1
 42
1.0
 92
        0
 66
     7
 43
1.0
 76
     1
 77
     6
 78
     2
 67
     7
 79
     5
170
     0
171
     0
290
     0
174
     0
 93
       13
 44
0.0
173
     0
291
     1
 45
0.0
1001
ACAD
1000
AcDbSavedByObjectVersion
1070
     0
  0
VISUALSTYLE
  5
2E
102
{ACAD_REACTORS
330
2A
102
}
330
2A
100
AcDbVisualStyle
  2
GouraudWithEdges
 70
     3
 71
     2
 72
     2
 73
     1
 90
        2
 40
-0.6
 41
30.0
 62
     5
 63
     7
421
 16777215
 74
     1
 91
        4
 64
     7
 65
   257
 75
     1
175
     1
 42
1.0
 92
        0
 66
   257
 43
1.0
 76
     1
 77
     6
 78
     2
 67
     7
 79
     5
170
     0
171
     0
290
     0
174
     0
 93
       13
 44
0.0
173
     0
291
     1
 45
0.0
1001
ACAD
1000
AcDbSavedByObjectVersion
1070
     0
  0
VISUALSTYLE
  5
38
102
{ACAD_REACTORS
330
2A
102
}
330
2A
100
AcDbVisualStyle
  2
Linepattern
 70
    14
 71
     2
 72
     2
 73
     0
 90
        0
 40
-0.6
 41
-30.0
 62
     5
 63
     7
421
 16777215
 74
     1
 91
        4
 64
     7
 65
   257
 75
     7
175
     7
 42
1.0
 92
        8
 66
     7
 43
1.0
 76
     1
 77
     6
 78
     2
 67
     7
 79
     5
170
     0
171
     0
290
     0
174
     0
 93
        1
 44
0.0
173
     0
291
     1
 45
0.0
1001
ACAD
1000
AcDbSavedByObjectVersion
1070
     0
  0
VISUALSTYLE
  5
33
102
{ACAD_REACTORS
330
2A
102
}
330
2A
100
AcDbVisualStyle
  2
Realistic
 70
     8
 71
     2
 72
     2
 73
     0
 90
        0
 40
-0.6
 41
-30.0
 62
     5
 63
     7
421
 16777215
 74
     1
 91
        0
 64
     7
 65
   257
 75
     1
175
     1
 42
1.0
 92
        8
 66
     8
424
  7895160
 43
1.0
 76
     1
 77
     6
 78
     2
 67
     7
 79
     5
170
     0
171
     0
290
     0
174
     0
 93
       13
 44
0.0
173
     0
291
     0
 45
0.0
1001
ACAD
1000
AcDbSavedByObjectVersion
1070
     0
  0
VISUALSTYLE
  5
37
102
{ACAD_REACTORS
330
2A
102
}
330
2A
100
AcDbVisualStyle
  2
Thicken
 70
    13
 71
     2
 72
     2
 73
     0
 90
        0
 40
-0.6
 41
-30.0
 62
     5
 63
     7
421
 16777215
 74
     1
 91
        4
 64
     7
 65
   257
 75
     1
175
     1
 42
1.0
 92
       12
 66
     7
 43
1.0
 76
     1
 77
     6
 78
     2
 67
     7
 79
     5
170
     0
171
     0
290
     0
174
     0
 93
        1
 44
0.0
173
     0
291
     1
 45
0.0
1001
ACAD
1000
AcDbSavedByObjectVersion
1070
     0
  0
ENDSEC
  0
EOF
